<?xml version="1.0"?>
<svg xmlns:xlink="http://www.w3.org/1999/xlink" xmlns="http://www.w3.org/2000/svg" version="1.1" viewBox="0.0 0.0 960.0 540.0" fill="none" stroke="none" stroke-linecap="square" stroke-miterlimit="10" style="background-color:transparent;">
  <clipPath id="p.0">
    <path d="m0 0l960.0 0l0 540.0l-960.0 0l0 -540.0z" clip-rule="nonzero"/>
  </clipPath>
  <g clip-path="url(#p.0)">
    <path fill="none" d="m0 0l960.0 0l0 540.0l-960.0 0z" fill-rule="evenodd"/>
    <path fill="#bce6e9" d="m487.24988 14.677799c-90.44479 0 -155.06378 106.79018 -155.06378 106.79018c-16.5997 -24.444405 -57.100098 -55.265617 -103.1216 -55.265617c-24.191254 0 -49.908096 8.502403 -74.53523 30.863724c-71.0482 65.00087 -33.054123 198.36107 -33.054123 198.36107c0 0 -69.84953 72.653015 -12.676796 142.92538c14.093407 17.34491 31.673836 23.339111 49.1453 23.339111c38.320984 0 76.2061 -28.610596 76.2061 -28.610596c0 0 66.50778 77.83951 157.31583 77.83951c11.078583 0 22.520386 -1.1478271 34.21646 -3.7835693c108.20682 -24.359406 128.65683 -72.142914 128.65683 -72.142914c20.0141 40.088837 76.024475 68.69943 130.18237 68.69943c60.768738 0 119.17645 -36.00769 121.75543 -132.25488c4.5040283 -181.65384 -160.07642 -183.56688 -160.07642 -183.56688c-8.1727295 -44.425064 -31.855469 -148.15437 -134.75912 -170.60072c-8.245361 -1.7429924 -16.309113 -2.593233 -24.191254 -2.593233z" fill-rule="evenodd"/>
    <path fill="none" d="m135.6767 176.7743c-0.8717499 0 -1.7798309 0.5101471 -2.3610077 1.5729523c-6.1386185 23.891754 -7.773163 49.228912 -4.9036255 74.05592c0.14529419 1.7004852 1.0533752 2.4231873 2.0704193 2.4231873c1.5619049 0 3.3054047 -1.70047 2.8332062 -4.3362274c-2.4699707 -23.424118 -0.83543396 -47.783493 5.303192 -70.22984c0 -2.125595 -1.4529266 -3.4859924 -2.9421844 -3.4859924z" fill-rule="evenodd"/>
    <path stroke="#ffffff" stroke-width="1.0" stroke-linejoin="round" stroke-linecap="butt" d="m135.6767 176.7743c-0.8717499 0 -1.7798309 0.5101471 -2.3610077 1.5729523c-6.1386185 23.891754 -7.773163 49.228912 -4.9036255 74.05592c0.14529419 1.7004852 1.0533752 2.4231873 2.0704193 2.4231873c1.5619049 0 3.3054047 -1.70047 2.8332062 -4.3362274c-2.4699707 -23.424118 -0.83543396 -47.783493 5.303192 -70.22984c0 -2.125595 -1.4529266 -3.4859924 -2.9421844 -3.4859924z" fill-rule="evenodd"/>
    <path fill="none" d="m167.74988 114.36737c-0.43588257 0 -0.8717499 0.12753296 -1.3802795 0.3826065c-8.572281 6.2492676 -15.51001 14.836693 -20.41365 25.337166c-0.83543396 2.6357422 0.83543396 4.8463593 2.651596 4.8463593c0.79911804 0 1.634552 -0.46762085 2.2520447 -1.487915c4.504074 -9.565201 10.606369 -17.684998 18.379547 -22.95649c2.4336548 -2.0405731 1.0170441 -6.121727 -1.4892578 -6.121727z" fill-rule="evenodd"/>
    <path stroke="#ffffff" stroke-width="1.0" stroke-linejoin="round" stroke-linecap="butt" d="m167.74988 114.36737c-0.43588257 0 -0.8717499 0.12753296 -1.3802795 0.3826065c-8.572281 6.2492676 -15.51001 14.836693 -20.41365 25.337166c-0.83543396 2.6357422 0.83543396 4.8463593 2.651596 4.8463593c0.79911804 0 1.634552 -0.46762085 2.2520447 -1.487915c4.504074 -9.565201 10.606369 -17.684998 18.379547 -22.95649c2.4336548 -2.0405731 1.0170441 -6.121727 -1.4892578 -6.121727z" fill-rule="evenodd"/>
    <path fill="none" d="m229.24448 92.006294c-9.044479 0 -18.12529 1.5304337 -26.915497 4.591301c-2.7242432 1.3603821 -1.743515 5.7816315 0.7991028 5.7816315c0.14529419 0 0.29058838 0 0.3995514 -0.042510986c8.318024 -2.8483047 16.817657 -4.251198 25.244629 -4.251198c12.713135 0 25.317291 3.1884003 36.83174 9.52269c0.5085144 0.29758453 0.9807434 0.3826065 1.4165955 0.3826065c2.578949 0 4.213501 -4.038643 1.4529419 -5.6540985c-12.240936 -6.8869476 -25.680511 -10.330421 -39.229065 -10.330421z" fill-rule="evenodd"/>
    <path stroke="#ffffff" stroke-width="1.0" stroke-linejoin="round" stroke-linecap="butt" d="m229.24448 92.006294c-9.044479 0 -18.12529 1.5304337 -26.915497 4.591301c-2.7242432 1.3603821 -1.743515 5.7816315 0.7991028 5.7816315c0.14529419 0 0.29058838 0 0.3995514 -0.042510986c8.318024 -2.8483047 16.817657 -4.251198 25.244629 -4.251198c12.713135 0 25.317291 3.1884003 36.83174 9.52269c0.5085144 0.29758453 0.9807434 0.3826065 1.4165955 0.3826065c2.578949 0 4.213501 -4.038643 1.4529419 -5.6540985c-12.240936 -6.8869476 -25.680511 -10.330421 -39.229065 -10.330421z" fill-rule="evenodd"/>
    <path fill="none" d="m294.18936 118.10838c-0.7991028 0 -1.634552 0 -2.0340881 0.4676361c-0.8354492 0.51013947 -1.2349854 0.9777756 -1.2349854 1.9130402c-0.39956665 1.9130402 0.39953613 3.3584442 1.6345215 3.8260803l0.8354492 0.46762848c1.1986694 0.9777756 2.833191 1.4454117 4.068207 2.8908234l1.2349854 1.4454117c0.5448303 0.63768005 1.1986694 0.93525696 1.852478 0.93525696c2.1067505 0 4.1045227 -3.1458893 2.2156982 -5.7391205c-2.4336548 -2.8483047 -5.3031616 -4.761345 -8.572266 -6.2067566z" fill-rule="evenodd"/>
    <path stroke="#ffffff" stroke-width="1.0" stroke-linejoin="round" stroke-linecap="butt" d="m294.18936 118.10838c-0.7991028 0 -1.634552 0 -2.0340881 0.4676361c-0.8354492 0.51013947 -1.2349854 0.9777756 -1.2349854 1.9130402c-0.39956665 1.9130402 0.39953613 3.3584442 1.6345215 3.8260803l0.8354492 0.46762848c1.1986694 0.9777756 2.833191 1.4454117 4.068207 2.8908234l1.2349854 1.4454117c0.5448303 0.63768005 1.1986694 0.93525696 1.852478 0.93525696c2.1067505 0 4.1045227 -3.1458893 2.2156982 -5.7391205c-2.4336548 -2.8483047 -5.3031616 -4.761345 -8.572266 -6.2067566z" fill-rule="evenodd"/>
    <path fill="none" d="m382.7809 91.623695c-0.5448303 0 -1.1260071 0.21255493 -1.5982056 0.68019104l-21.249084 27.250198c-1.9251404 2.2531357 -0.072631836 5.6540985 1.9977722 5.6540985c0.54486084 0 1.1623535 -0.25507355 1.6708679 -0.8927536l21.648651 -26.740051c1.9614563 -2.6782608 -0.25427246 -5.951683 -2.4700012 -5.951683z" fill-rule="evenodd"/>
    <path stroke="#ffffff" stroke-width="1.0" stroke-linejoin="round" stroke-linecap="butt" d="m382.7809 91.623695c-0.5448303 0 -1.1260071 0.21255493 -1.5982056 0.68019104l-21.249084 27.250198c-1.9251404 2.2531357 -0.072631836 5.6540985 1.9977722 5.6540985c0.54486084 0 1.1623535 -0.25507355 1.6708679 -0.8927536l21.648651 -26.740051c1.9614563 -2.6782608 -0.25427246 -5.951683 -2.4700012 -5.951683z" fill-rule="evenodd"/>
    <path fill="none" d="m463.92648 36.273663c-0.21792603 0 -0.43588257 0.042510986 -0.6901245 0.12753677c-21.612335 7.6521606 -41.226868 20.06567 -58.770966 36.772896c-1.9251404 1.8705292 -0.10897827 5.1864624 2.1430664 5.1864624c0.6174927 0 1.3076477 -0.25507355 1.9251404 -0.8927536c16.345428 -15.771957 35.52408 -27.71783 55.937744 -34.85985c3.4143677 -0.8927498 2.2520142 -6.3342896 -0.54486084 -6.3342896z" fill-rule="evenodd"/>
    <path stroke="#ffffff" stroke-width="1.0" stroke-linejoin="round" stroke-linecap="butt" d="m463.92648 36.273663c-0.21792603 0 -0.43588257 0.042510986 -0.6901245 0.12753677c-21.612335 7.6521606 -41.226868 20.06567 -58.770966 36.772896c-1.9251404 1.8705292 -0.10897827 5.1864624 2.1430664 5.1864624c0.6174927 0 1.3076477 -0.25507355 1.9251404 -0.8927536c16.345428 -15.771957 35.52408 -27.71783 55.937744 -34.85985c3.4143677 -0.8927498 2.2520142 -6.3342896 -0.54486084 -6.3342896z" fill-rule="evenodd"/>
    <path fill="none" d="m509.2568 35.08334c-3.6686401 0 -7.3372803 0.5526581 -10.896942 1.7855072c-2.4336548 1.4454079 -1.634552 5.7391205 1.2349854 5.7391205c3.2690735 -0.9777756 6.5744934 -1.4454079 9.879913 -1.4454079c6.6108093 0 13.112701 1.9130402 19.105988 5.7391205c4.5040894 2.8483047 8.572266 6.2067566 12.676819 9.565205c3.6686401 3.8260803 7.7368164 6.206753 12.640503 7.6521645c0.29052734 0.042510986 0.5084839 0.08502197 0.76275635 0.08502197c3.0874634 0 3.9229126 -5.44154 0.87176514 -6.2917786c-5.3032227 -1.9130402 -9.807251 -4.803856 -13.875488 -8.62994c-4.0681763 -3.8260803 -8.971802 -6.674385 -13.875427 -9.055058c-5.7390747 -3.358448 -12.095642 -5.143955 -18.524872 -5.143955z" fill-rule="evenodd"/>
    <path stroke="#ffffff" stroke-width="1.0" stroke-linejoin="round" stroke-linecap="butt" d="m509.2568 35.08334c-3.6686401 0 -7.3372803 0.5526581 -10.896942 1.7855072c-2.4336548 1.4454079 -1.634552 5.7391205 1.2349854 5.7391205c3.2690735 -0.9777756 6.5744934 -1.4454079 9.879913 -1.4454079c6.6108093 0 13.112701 1.9130402 19.105988 5.7391205c4.5040894 2.8483047 8.572266 6.2067566 12.676819 9.565205c3.6686401 3.8260803 7.7368164 6.206753 12.640503 7.6521645c0.29052734 0.042510986 0.5084839 0.08502197 0.76275635 0.08502197c3.0874634 0 3.9229126 -5.44154 0.87176514 -6.2917786c-5.3032227 -1.9130402 -9.807251 -4.803856 -13.875488 -8.62994c-4.0681763 -3.8260803 -8.971802 -6.674385 -13.875427 -9.055058c-5.7390747 -3.358448 -12.095642 -5.143955 -18.524872 -5.143955z" fill-rule="evenodd"/>
    <path fill="none" d="m582.992 89.24305c-2.1067505 0 -3.9955444 3.2734222 -2.1430664 5.441536c7.7731934 9.565201 13.911804 20.065666 18.379578 32.011543c2.0340576 5.739128 3.6686401 11.478249 4.9036255 17.685005c1.6345215 6.7168884 1.6345215 13.391281 3.269043 19.598038c0.5085449 1.530426 1.6345825 2.253128 2.76062 2.253128c1.6708374 0 3.269043 -1.572937 2.5426025 -4.166168c-1.6345215 -6.2067566 -1.6345215 -13.34877 -3.269104 -20.065674c-1.1986694 -6.2067566 -3.269104 -12.413513 -5.702759 -18.620262c-4.5040283 -12.456024 -11.042236 -23.424118 -18.779053 -32.989326c-0.6174927 -0.807724 -1.3076782 -1.1478195 -1.9614868 -1.1478195z" fill-rule="evenodd"/>
    <path stroke="#ffffff" stroke-width="1.0" stroke-linejoin="round" stroke-linecap="butt" d="m582.992 89.24305c-2.1067505 0 -3.9955444 3.2734222 -2.1430664 5.441536c7.7731934 9.565201 13.911804 20.065666 18.379578 32.011543c2.0340576 5.739128 3.6686401 11.478249 4.9036255 17.685005c1.6345215 6.7168884 1.6345215 13.391281 3.269043 19.598038c0.5085449 1.530426 1.6345825 2.253128 2.76062 2.253128c1.6708374 0 3.269043 -1.572937 2.5426025 -4.166168c-1.6345215 -6.2067566 -1.6345215 -13.34877 -3.269104 -20.065674c-1.1986694 -6.2067566 -3.269104 -12.413513 -5.702759 -18.620262c-4.5040283 -12.456024 -11.042236 -23.424118 -18.779053 -32.989326c-0.6174927 -0.807724 -1.3076782 -1.1478195 -1.9614868 -1.1478195z" fill-rule="evenodd"/>
    <path fill="none" d="m129.50194 327.81784c-0.2542572 0 -0.4721985 0.042510986 -0.6901398 0.12753296c-9.407707 5.2289734 -15.945885 15.771942 -17.58043 28.185455c-1.1986694 5.7391357 -2.0341034 11.945892 -2.0341034 18.152618c-0.3995514 4.7613525 1.6345444 9.565216 5.739067 12.413513c0.39955902 0.29760742 0.7991104 0.3826294 1.1623459 0.3826294c2.3610077 0 4.068199 -4.4637756 1.2713089 -6.1217346c-2.8695297 -1.9130554 -2.8695297 -5.6966248 -2.8695297 -9.055054c0.43587494 -5.271515 1.2349854 -10.032837 2.0704193 -15.304352c2.0341034 -9.097565 5.7027435 -18.62024 13.875473 -22.956482c1.2349854 -0.46762085 2.0340881 -1.9130249 1.6345367 -3.7835693c-0.3269043 -1.1903381 -1.4892426 -2.0405579 -2.578949 -2.0405579z" fill-rule="evenodd"/>
    <path stroke="#ffffff" stroke-width="1.0" stroke-linejoin="round" stroke-linecap="butt" d="m129.50194 327.81784c-0.2542572 0 -0.4721985 0.042510986 -0.6901398 0.12753296c-9.407707 5.2289734 -15.945885 15.771942 -17.58043 28.185455c-1.1986694 5.7391357 -2.0341034 11.945892 -2.0341034 18.152618c-0.3995514 4.7613525 1.6345444 9.565216 5.739067 12.413513c0.39955902 0.29760742 0.7991104 0.3826294 1.1623459 0.3826294c2.3610077 0 4.068199 -4.4637756 1.2713089 -6.1217346c-2.8695297 -1.9130554 -2.8695297 -5.6966248 -2.8695297 -9.055054c0.43587494 -5.271515 1.2349854 -10.032837 2.0704193 -15.304352c2.0341034 -9.097565 5.7027435 -18.62024 13.875473 -22.956482c1.2349854 -0.46762085 2.0340881 -1.9130249 1.6345367 -3.7835693c-0.3269043 -1.1903381 -1.4892426 -2.0405579 -2.578949 -2.0405579z" fill-rule="evenodd"/>
    <path fill="none" d="m127.177086 414.32883c-0.25426483 0 -0.5448532 0 -0.83543396 0.08502197c-1.1986694 0.51013184 -2.0341034 2.4231873 -2.0341034 4.336212c2.2883606 9.395172 9.952568 15.856995 18.306892 15.856995c0.58117676 0 1.1260223 -0.042510986 1.7071991 -0.08502197c0.10896301 0 0.21794128 0 0.3269043 0c2.8332214 0 2.8332214 -6.2492676 0 -6.2492676c-0.10896301 0 -0.21794128 0 -0.3269043 0l-0.79911804 -0.9352722l-4.504074 0c-0.83543396 0 -1.2349854 0 -1.6345367 -0.46762085l-0.39956665 0c-0.83543396 -0.51016235 -1.6345367 -0.9777832 -2.4699707 -1.445404l-0.3995514 -0.46765137l-1.2350006 -1.445404l-0.7991028 -0.9352722l-0.3995514 -0.51013184c-0.83543396 -0.9352722 -1.2350006 -1.9130554 -1.634552 -2.848297c0 0 0 0 0 -0.46765137c0 0 0 0 0 -0.51013184l-0.43588257 -1.4028931c-0.3269043 -1.6154785 -1.2349854 -2.5082092 -2.4336472 -2.5082092z" fill-rule="evenodd"/>
    <path stroke="#ffffff" stroke-width="1.0" stroke-linejoin="round" stroke-linecap="butt" d="m127.177086 414.32883c-0.25426483 0 -0.5448532 0 -0.83543396 0.08502197c-1.1986694 0.51013184 -2.0341034 2.4231873 -2.0341034 4.336212c2.2883606 9.395172 9.952568 15.856995 18.306892 15.856995c0.58117676 0 1.1260223 -0.042510986 1.7071991 -0.08502197c0.10896301 0 0.21794128 0 0.3269043 0c2.8332214 0 2.8332214 -6.2492676 0 -6.2492676c-0.10896301 0 -0.21794128 0 -0.3269043 0l-0.79911804 -0.9352722l-4.504074 0c-0.83543396 0 -1.2349854 0 -1.6345367 -0.46762085l-0.39956665 0c-0.83543396 -0.51016235 -1.6345367 -0.9777832 -2.4699707 -1.445404l-0.3995514 -0.46765137l-1.2350006 -1.445404l-0.7991028 -0.9352722l-0.3995514 -0.51013184c-0.83543396 -0.9352722 -1.2350006 -1.9130554 -1.634552 -2.848297c0 0 0 0 0 -0.46765137c0 0 0 0 0 -0.51013184l-0.43588257 -1.4028931c-0.3269043 -1.6154785 -1.2349854 -2.5082092 -2.4336472 -2.5082092z" fill-rule="evenodd"/>
    <path fill="none" d="m350.744 478.52124c-2.542633 0 -4.213501 4.0811768 -1.416626 5.6966248c10.715363 5.3565063 21.75763 8.629944 33.526337 8.629944c0.7991028 0 1.5982361 0 2.3973389 -0.042510986c14.31134 0.46762085 28.586365 0.9777527 42.897705 1.445404c0.10897827 0 0.21795654 0 0.3269043 0c2.9058533 0 2.7969055 -6.2067566 -0.76278687 -6.2067566l-40.427734 -1.445404c-0.87176514 0.042510986 -1.7434998 0.042510986 -2.615265 0.042510986c-11.332855 0 -22.266113 -2.8058167 -32.47296 -7.6946716c-0.5085144 -0.29760742 -0.9807129 -0.42514038 -1.4529114 -0.42514038z" fill-rule="evenodd"/>
    <path stroke="#ffffff" stroke-width="1.0" stroke-linejoin="round" stroke-linecap="butt" d="m350.744 478.52124c-2.542633 0 -4.213501 4.0811768 -1.416626 5.6966248c10.715363 5.3565063 21.75763 8.629944 33.526337 8.629944c0.7991028 0 1.5982361 0 2.3973389 -0.042510986c14.31134 0.46762085 28.586365 0.9777527 42.897705 1.445404c0.10897827 0 0.21795654 0 0.3269043 0c2.9058533 0 2.7969055 -6.2067566 -0.76278687 -6.2067566l-40.427734 -1.445404c-0.87176514 0.042510986 -1.7434998 0.042510986 -2.615265 0.042510986c-11.332855 0 -22.266113 -2.8058167 -32.47296 -7.6946716c-0.5085144 -0.29760742 -0.9807129 -0.42514038 -1.4529114 -0.42514038z" fill-rule="evenodd"/>
    <path fill="none" d="m538.96954 434.7769c-0.58117676 0 -1.1986694 0.21255493 -1.8161621 0.6801758c-20.0141 19.130402 -43.69684 33.45697 -69.0141 40.64148c-2.4336548 1.9130554 -1.634552 6.2067566 1.2349854 6.2067566c26.15271 -8.1197815 50.634583 -22.488861 71.48407 -42.554535c2.2520752 -1.8705139 0.39953613 -4.973877 -1.888794 -4.973877z" fill-rule="evenodd"/>
    <path stroke="#ffffff" stroke-width="1.0" stroke-linejoin="round" stroke-linecap="butt" d="m538.96954 434.7769c-0.58117676 0 -1.1986694 0.21255493 -1.8161621 0.6801758c-20.0141 19.130402 -43.69684 33.45697 -69.0141 40.64148c-2.4336548 1.9130554 -1.634552 6.2067566 1.2349854 6.2067566c26.15271 -8.1197815 50.634583 -22.488861 71.48407 -42.554535c2.2520752 -1.8705139 0.39953613 -4.973877 -1.888794 -4.973877z" fill-rule="evenodd"/>
    <path fill="none" d="m669.6583 206.02226c-2.2157593 0 -4.4677734 0.17004395 -6.7197876 0.51013184c-3.5233765 0.9352722 -2.1794434 6.2492676 0.8353882 6.2492676c0.1453247 0 0.25427246 0 0.39959717 -0.042510986c2.0340576 -0.3400879 4.0681763 -0.5101471 6.065979 -0.5101471c14.85614 0 28.767944 8.714966 41.699036 16.282104c0.43585205 0.29759216 0.87176514 0.42512512 1.2713013 0.42512512c2.324707 0 4.0318604 -4.0386353 1.5982056 -5.6966095c-14.347656 -8.799988 -29.312805 -17.217361 -45.14972 -17.217361z" fill-rule="evenodd"/>
    <path stroke="#ffffff" stroke-width="1.0" stroke-linejoin="round" stroke-linecap="butt" d="m669.6583 206.02226c-2.2157593 0 -4.4677734 0.17004395 -6.7197876 0.51013184c-3.5233765 0.9352722 -2.1794434 6.2492676 0.8353882 6.2492676c0.1453247 0 0.25427246 0 0.39959717 -0.042510986c2.0340576 -0.3400879 4.0681763 -0.5101471 6.065979 -0.5101471c14.85614 0 28.767944 8.714966 41.699036 16.282104c0.43585205 0.29759216 0.87176514 0.42512512 1.2713013 0.42512512c2.324707 0 4.0318604 -4.0386353 1.5982056 -5.6966095c-14.347656 -8.799988 -29.312805 -17.217361 -45.14972 -17.217361z" fill-rule="evenodd"/>
    <path fill="none" d="m739.28906 243.3474c-1.1986694 0 -2.4336548 1.4028931 -2.4336548 3.3159332c0 1.9130402 1.2349854 3.3584442 2.4336548 3.3584442l2.0703735 0l2.4336548 0.4676361c1.6345825 0.4676361 2.8695679 0.9777832 4.5040894 1.9130402c2.833252 1.445404 5.3032227 3.8260956 7.3372803 7.1845245c0.39959717 0.46765137 1.0170898 0.7227173 1.6708984 0.7227173c0.6901245 0 1.380249 -0.25506592 1.9977417 -0.7227173c0.8354492 -1.445404 0.8354492 -3.358429 0 -4.8038483c-4.9036255 -6.6743927 -12.240906 -10.968109 -20.014038 -11.43573z" fill-rule="evenodd"/>
    <path fill="none" d="m609.61664 449.52838c-2.361023 0 -3.9592285 3.9111023 -1.8161621 5.9942017c24.917725 17.217346 53.50409 26.31491 82.48999 26.782562c2.8695679 -0.46765137 2.8695679 -6.2067566 0 -6.716919c-28.150452 -0.46762085 -55.538147 -9.055054 -79.62048 -25.80478c-0.3632202 -0.17004395 -0.7264404 -0.25506592 -1.0533447 -0.25506592z" fill-rule="evenodd"/>
    <path stroke="#ffffff" stroke-width="1.0" stroke-linejoin="round" stroke-linecap="butt" d="m609.61664 449.52838c-2.361023 0 -3.9592285 3.9111023 -1.8161621 5.9942017c24.917725 17.217346 53.50409 26.31491 82.48999 26.782562c2.8695679 -0.46765137 2.8695679 -6.2067566 0 -6.716919c-28.150452 -0.46762085 -55.538147 -9.055054 -79.62048 -25.80478c-0.3632202 -0.17004395 -0.7264404 -0.25506592 -1.0533447 -0.25506592z" fill-rule="evenodd"/>
    <path fill="#5b98a0" d="m405.88205 217.28781c-0.90808105 0 -1.852478 0.25508118 -2.6515808 0.722702l-0.8354492 0.4676361l-1.1986694 0c-1.6345215 0 -2.8695374 1.445404 -2.8695374 2.8483124c-0.39953613 2.4231873 -0.39953613 5.2714844 -0.8354187 7.6521606c-0.39956665 1.9130402 -0.39956665 3.8260803 0 5.7391205c0.43588257 2.3806763 1.634552 4.8038635 3.704956 5.2714844c0.54486084 0.25508118 1.1623535 0.38261414 1.7798462 0.38261414c1.5618896 0 3.1601257 -0.765213 4.3224792 -1.8280182c1.6345215 -1.9130402 2.4699707 -3.8260803 2.8695068 -6.2067566c0 -2.3806763 0.39956665 -4.7613373 0.39956665 -7.1845245c0.8354492 -2.8483124 -0.39956665 -5.2289886 -2.0340881 -7.142029c-0.7991333 -0.46762085 -1.7435303 -0.722702 -2.6516113 -0.722702z" fill-rule="evenodd"/>
    <path stroke="#5b98a0" stroke-width="1.0" stroke-linejoin="round" stroke-linecap="butt" d="m405.88205 217.28781c-0.90808105 0 -1.852478 0.25508118 -2.6515808 0.722702l-0.8354492 0.4676361l-1.1986694 0c-1.6345215 0 -2.8695374 1.445404 -2.8695374 2.8483124c-0.39953613 2.4231873 -0.39953613 5.2714844 -0.8354187 7.6521606c-0.39956665 1.9130402 -0.39956665 3.8260803 0 5.7391205c0.43588257 2.3806763 1.634552 4.8038635 3.704956 5.2714844c0.54486084 0.25508118 1.1623535 0.38261414 1.7798462 0.38261414c1.5618896 0 3.1601257 -0.765213 4.3224792 -1.8280182c1.6345215 -1.9130402 2.4699707 -3.8260803 2.8695068 -6.2067566c0 -2.3806763 0.39956665 -4.7613373 0.39956665 -7.1845245c0.8354492 -2.8483124 -0.39956665 -5.2289886 -2.0340881 -7.142029c-0.7991333 -0.46762085 -1.7435303 -0.722702 -2.6516113 -0.722702z" fill-rule="evenodd"/>
    <path fill="#5b98a0" d="m434.25012 218.94577c-1.1986694 0 -2.0340881 0.97776794 -2.4336548 1.9130402c-1.2349854 2.380661 -1.634552 4.8038483 -2.0340881 7.6521606c-0.43588257 2.3806763 -0.43588257 5.2714844 0 8.119797c0.39953613 0.46762085 0.7991028 1.445404 1.1986694 1.9130402l0.43585205 0c0.39956665 0.46762085 0.39956665 0.97776794 0.7991333 0.97776794c0.7264404 0.5526581 1.5618896 0.765213 2.3973083 0.765213c0.6175232 0 1.1986694 -0.08502197 1.6708679 -0.2975769c2.4700012 -0.9777832 4.1045227 -3.8260803 4.1045227 -7.1845245c0 -0.4676361 0 -0.9352722 0 -1.4029083c0 -1.445404 0 -3.3584442 0 -4.8038483c0.39956665 -1.9130402 -0.39953613 -3.8260803 -1.6345215 -4.2937164l-1.2349854 0l-0.39956665 -0.4676361l-0.8354492 -0.5101471c0 -0.46762085 0 -0.46762085 0 -0.46762085c-0.39953613 -0.9352722 -1.1986389 -1.4454193 -2.0340881 -1.9130402z" fill-rule="evenodd"/>
    <path stroke="#5b98a0" stroke-width="1.0" stroke-linejoin="round" stroke-linecap="butt" d="m434.25012 218.94577c-1.1986694 0 -2.0340881 0.97776794 -2.4336548 1.9130402c-1.2349854 2.380661 -1.634552 4.8038483 -2.0340881 7.6521606c-0.43588257 2.3806763 -0.43588257 5.2714844 0 8.119797c0.39953613 0.46762085 0.7991028 1.445404 1.1986694 1.9130402l0.43585205 0c0.39956665 0.46762085 0.39956665 0.97776794 0.7991333 0.97776794c0.7264404 0.5526581 1.5618896 0.765213 2.3973083 0.765213c0.6175232 0 1.1986694 -0.08502197 1.6708679 -0.2975769c2.4700012 -0.9777832 4.1045227 -3.8260803 4.1045227 -7.1845245c0 -0.4676361 0 -0.9352722 0 -1.4029083c0 -1.445404 0 -3.3584442 0 -4.8038483c0.39956665 -1.9130402 -0.39953613 -3.8260803 -1.6345215 -4.2937164l-1.2349854 0l-0.39956665 -0.4676361l-0.8354492 -0.5101471c0 -0.46762085 0 -0.46762085 0 -0.46762085c-0.39953613 -0.9352722 -1.1986389 -1.4454193 -2.0340881 -1.9130402z" fill-rule="evenodd"/>
    <path fill="#5b98a0" d="m423.906 264.69916c-2.4307556 0 -4.9587708 0.90982056 -7.0006104 2.7295227c-0.68063354 -0.22744751 -1.4584656 -0.34118652 -2.1390991 -0.34118652c-3.2086182 0 -5.639374 2.5020752 -6.5144653 6.710144l-2.2362976 12.737854c-1.0695496 2.6158142 -1.0695496 6.482666 -1.0695496 10.235779c0 3.8668518 1.0695496 7.7337036 3.3058472 11.486847c2.1390686 1.9334106 4.8615417 2.9570007 7.584015 2.9570007c2.7224731 0 5.444916 -1.0235901 7.681244 -2.9570007c2.1390686 -3.7531433 4.3753967 -7.619995 5.444916 -11.486847c2.2363281 -3.7531128 4.3753967 -7.6199646 5.4449463 -11.486816c2.2362976 -6.368927 0 -12.7378845 -3.2086182 -16.604736c-1.7501526 -2.7295227 -4.4726257 -3.9805603 -7.292328 -3.9805603z" fill-rule="evenodd"/>
    <path stroke="#5b98a0" stroke-width="1.0" stroke-linejoin="round" stroke-linecap="butt" d="m423.906 264.69916c-2.4307556 0 -4.9587708 0.90982056 -7.0006104 2.7295227c-0.68063354 -0.22744751 -1.4584656 -0.34118652 -2.1390991 -0.34118652c-3.2086182 0 -5.639374 2.5020752 -6.5144653 6.710144l-2.2362976 12.737854c-1.0695496 2.6158142 -1.0695496 6.482666 -1.0695496 10.235779c0 3.8668518 1.0695496 7.7337036 3.3058472 11.486847c2.1390686 1.9334106 4.8615417 2.9570007 7.584015 2.9570007c2.7224731 0 5.444916 -1.0235901 7.681244 -2.9570007c2.1390686 -3.7531433 4.3753967 -7.619995 5.444916 -11.486847c2.2363281 -3.7531128 4.3753967 -7.6199646 5.4449463 -11.486816c2.2362976 -6.368927 0 -12.7378845 -3.2086182 -16.604736c-1.7501526 -2.7295227 -4.4726257 -3.9805603 -7.292328 -3.9805603z" fill-rule="evenodd"/>
    <path fill="none" d="m789.7756 299.6109c-7.0444336 -2.3247375 -14.447693 -3.3860474 -21.849854 -2.7167664c-9.1203 0.775177 -17.736328 4.9248962 -23.859863 11.6875305c-6.871704 7.9095154 -9.404419 18.84903 -6.5542603 28.981537c2.9176636 11.140076 10.450012 20.210358 20.616089 25.367584c1.0195923 0.48065186 2.081604 0.90319824 3.175232 1.2641296c8.095276 2.6714783 17.865173 1.9785156 24.30072 -3.9842224c3.580017 -3.2042542 5.271057 -7.836975 4.76947 -12.400238c0.01953125 -0.798584 -0.44744873 -1.3011475 -1.0050049 -1.4851379c-0.82562256 -0.27246094 -1.8747559 0.15032959 -1.8988037 1.3319092c0.90063477 11.88028 -12.502808 16.829254 -22.238892 14.613586c-0.5465698 -0.14431763 -1.0861816 -0.3103943 -1.6223145 -0.4873047c-10.807922 -3.566681 -19.31012 -12.091919 -22.76416 -22.928375c-3.5720215 -10.358704 -0.86468506 -21.84137 6.78479 -29.698486c6.7717896 -6.3444214 15.689941 -9.5894165 24.877686 -9.357056c5.730591 -0.0073242188 11.421692 0.99365234 16.911438 2.8052979c13.027466 4.2991333 24.884033 13.162323 33.21588 23.914276c13.750793 17.911255 16.655396 45.02777 2.8058472 63.61145c-12.215942 16.527374 -33.928284 20.94522 -53.011047 20.835815c-14.868774 -0.2687378 -29.353394 -3.318512 -43.356567 -7.939636c-8.87793 -2.929779 -17.564087 -6.493164 -26.020447 -10.365234c-24.137207 -11.353821 -47.211304 -24.759949 -69.11017 -39.97711c-21.901917 -14.617401 -43.227173 -30.438263 -65.776306 -44.25992c-15.642578 -9.740112 -32.3313 -18.623901 -49.947876 -24.437439c-6.229553 -2.0558167 -12.570648 -3.7278748 -19.033234 -4.9113464c-20.287476 -3.7030945 -43.268097 -3.3084717 -62.70816 3.8538513c-4.6710205 1.6546631 -9.345123 3.9091187 -13.401886 6.7518005c-1.2962952 0.7857971 -0.86413574 2.4664001 0.16519165 2.8060913c0.33239746 0.10971069 0.7316284 0.085235596 1.1470947 -0.17416382c18.930359 -12.917786 44.761566 -14.174042 66.75729 -11.505249c9.032806 1.0463562 17.851532 3.1275024 26.450714 5.9653015c17.98108 5.9338684 34.97174 15.169617 50.840454 25.12851c47.89209 29.983124 91.86755 66.65213 144.44183 88.195404c4.953064 2.079132 10.015625 4.002136 15.173035 5.7041016c17.75586 5.859558 36.51758 9.107208 55.064392 7.489746c20.429565 -1.6450195 40.813904 -10.490295 49.74121 -30.289825c9.808411 -21.32306 2.9887085 -47.32849 -12.757202 -63.903534c-8.249084 -8.537811 -18.828125 -15.693756 -30.322327 -19.486877z" fill-rule="evenodd"/>
    <path stroke="#ffffff" stroke-width="2.0" stroke-linejoin="round" stroke-linecap="butt" d="m789.7756 299.6109c-7.0444336 -2.3247375 -14.447693 -3.3860474 -21.849854 -2.7167664c-9.1203 0.775177 -17.736328 4.9248962 -23.859863 11.6875305c-6.871704 7.9095154 -9.404419 18.84903 -6.5542603 28.981537c2.9176636 11.140076 10.450012 20.210358 20.616089 25.367584c1.0195923 0.48065186 2.081604 0.90319824 3.175232 1.2641296c8.095276 2.6714783 17.865173 1.9785156 24.30072 -3.9842224c3.580017 -3.2042542 5.271057 -7.836975 4.76947 -12.400238c0.01953125 -0.798584 -0.44744873 -1.3011475 -1.0050049 -1.4851379c-0.82562256 -0.27246094 -1.8747559 0.15032959 -1.8988037 1.3319092c0.90063477 11.88028 -12.502808 16.829254 -22.238892 14.613586c-0.5465698 -0.14431763 -1.0861816 -0.3103943 -1.6223145 -0.4873047c-10.807922 -3.566681 -19.31012 -12.091919 -22.76416 -22.928375c-3.5720215 -10.358704 -0.86468506 -21.84137 6.78479 -29.698486c6.7717896 -6.3444214 15.689941 -9.5894165 24.877686 -9.357056c5.730591 -0.0073242188 11.421692 0.99365234 16.911438 2.8052979c13.027466 4.2991333 24.884033 13.162323 33.21588 23.914276c13.750793 17.911255 16.655396 45.02777 2.8058472 63.61145c-12.215942 16.527374 -33.928284 20.94522 -53.011047 20.835815c-14.868774 -0.2687378 -29.353394 -3.318512 -43.356567 -7.939636c-8.87793 -2.929779 -17.564087 -6.493164 -26.020447 -10.365234c-24.137207 -11.353821 -47.211304 -24.759949 -69.11017 -39.97711c-21.901917 -14.617401 -43.227173 -30.438263 -65.776306 -44.25992c-15.642578 -9.740112 -32.3313 -18.623901 -49.947876 -24.437439c-6.229553 -2.0558167 -12.570648 -3.7278748 -19.033234 -4.9113464c-20.287476 -3.7030945 -43.268097 -3.3084717 -62.70816 3.8538513c-4.6710205 1.6546631 -9.345123 3.9091187 -13.401886 6.7518005c-1.2962952 0.7857971 -0.86413574 2.4664001 0.16519165 2.8060913c0.33239746 0.10971069 0.7316284 0.085235596 1.1470947 -0.17416382c18.930359 -12.917786 44.761566 -14.174042 66.75729 -11.505249c9.032806 1.0463562 17.851532 3.1275024 26.450714 5.9653015c17.98108 5.9338684 34.97174 15.169617 50.840454 25.12851c47.89209 29.983124 91.86755 66.65213 144.44183 88.195404c4.953064 2.079132 10.015625 4.002136 15.173035 5.7041016c17.75586 5.859558 36.51758 9.107208 55.064392 7.489746c20.429565 -1.6450195 40.813904 -10.490295 49.74121 -30.289825c9.808411 -21.32306 2.9887085 -47.32849 -12.757202 -63.903534c-8.249084 -8.537811 -18.828125 -15.693756 -30.322327 -19.486877z" fill-rule="evenodd"/>
    <path fill="none" d="m510.92004 295.20755c-21.959015 -7.2466125 -44.990814 -10.197205 -68.085785 -8.782959c-6.458557 0.46398926 -13.025177 1.3009033 -19.360413 2.5986328c-1.560791 0.1697998 -1.3533325 2.3650208 -0.07739258 2.7861023c0.2144165 0.07077026 0.47128296 0.08343506 0.7490845 0.030914307c28.67218 -5.1129456 57.86139 -2.869934 85.43878 6.2308044c0.37527466 0.12384033 0.73983765 0.24414062 1.1044006 0.36444092c28.510254 9.408569 53.26123 25.566925 76.08911 45.272125c11.434814 9.769348 22.22937 20.312683 33.262146 30.742401c11.506348 11.391052 23.55542 22.348389 35.303528 33.61493l35.77301 33.962128c10.909851 10.1848755 21.588745 20.497803 33.082886 30.082489c18.448181 15.400116 39.63855 27.10321 62.305237 34.583344c4.0636597 1.3410339 8.169312 2.5517273 12.30957 3.6176758c13.057739 3.5040588 26.52362 5.148285 40.086 5.2382507c11.916504 0.33984375 23.563843 -2.2088013 34.077698 -7.3182983c19.60199 -10.100739 34.570435 -30.910522 30.149475 -53.93753c-3.378662 -17.08374 -16.871033 -32.110046 -32.13867 -39.143036c-1.585083 -0.78744507 -3.2086182 -1.4553833 -4.8598022 -2.0003052c-6.025879 -1.9885559 -12.479858 -2.4242249 -18.744263 -1.1992188c-8.695251 1.9247131 -16.122986 7.2476196 -20.756897 14.910339c-5.4487915 8.979889 -5.4908447 20.140533 0.1428833 28.992798c2.642273 3.659607 6.2542114 6.221344 10.242859 7.537628c4.8464355 1.5993347 10.258118 1.3666077 15.210022 -0.94033813c4.201538 -2.001892 7.4871216 -5.507599 9.234436 -9.725189c0.40734863 -0.93496704 -0.08929443 -1.6035156 -0.7755127 -1.8299866c-0.729126 -0.24060059 -1.6832275 -0.002746582 -2.065857 0.89230347c-3.3001099 8.199005 -13.409729 11.387268 -21.48352 8.72287c-1.6405029 -0.54138184 -3.2041626 -1.3217468 -4.6019287 -2.3597717c-8.640564 -6.840637 -8.972229 -20.52771 -3.5234375 -29.507599c4.392273 -7.538208 11.94635 -12.627167 20.526428 -14.19342c5.505493 -0.5982666 11.004639 -0.03314209 16.194153 1.6794128c2.498291 0.8244629 4.923462 1.913147 7.239868 3.2663574c14.873169 8.296661 27.36145 24.601685 27.948914 42.362396c0.6342163 22.55835 -18.140259 41.114838 -38.18341 47.68158c-11.467712 3.7974243 -24.028381 3.6535645 -35.759583 2.7740479c-13.227295 -1.1689148 -26.161682 -3.839264 -38.63159 -7.9544067c-0.77545166 -0.24389648 -1.5474854 -0.49865723 -2.319458 -0.75341797c-11.494141 -3.7931519 -22.436584 -8.786011 -32.914307 -14.670898c-12.553711 -7.5432434 -24.341248 -16.215393 -35.194824 -25.985199c-22.232422 -19.712921 -43.576416 -40.935028 -65.04224 -61.18799c-20.814087 -19.845642 -41.211853 -40.358948 -62.970642 -59.110535c-20.742432 -18.223907 -43.53125 -33.73477 -69.250244 -43.820282c-3.2216187 -1.2674255 -6.460449 -2.444397 -9.730713 -3.52359z" fill-rule="evenodd"/>
    <path stroke="#ffffff" stroke-width="2.0" stroke-linejoin="round" stroke-linecap="butt" d="m510.92004 295.20755c-21.959015 -7.2466125 -44.990814 -10.197205 -68.085785 -8.782959c-6.458557 0.46398926 -13.025177 1.3009033 -19.360413 2.5986328c-1.560791 0.1697998 -1.3533325 2.3650208 -0.07739258 2.7861023c0.2144165 0.07077026 0.47128296 0.08343506 0.7490845 0.030914307c28.67218 -5.1129456 57.86139 -2.869934 85.43878 6.2308044c0.37527466 0.12384033 0.73983765 0.24414062 1.1044006 0.36444092c28.510254 9.408569 53.26123 25.566925 76.08911 45.272125c11.434814 9.769348 22.22937 20.312683 33.262146 30.742401c11.506348 11.391052 23.55542 22.348389 35.303528 33.61493l35.77301 33.962128c10.909851 10.1848755 21.588745 20.497803 33.082886 30.082489c18.448181 15.400116 39.63855 27.10321 62.305237 34.583344c4.0636597 1.3410339 8.169312 2.5517273 12.30957 3.6176758c13.057739 3.5040588 26.52362 5.148285 40.086 5.2382507c11.916504 0.33984375 23.563843 -2.2088013 34.077698 -7.3182983c19.60199 -10.100739 34.570435 -30.910522 30.149475 -53.93753c-3.378662 -17.08374 -16.871033 -32.110046 -32.13867 -39.143036c-1.585083 -0.78744507 -3.2086182 -1.4553833 -4.8598022 -2.0003052c-6.025879 -1.9885559 -12.479858 -2.4242249 -18.744263 -1.1992188c-8.695251 1.9247131 -16.122986 7.2476196 -20.756897 14.910339c-5.4487915 8.979889 -5.4908447 20.140533 0.1428833 28.992798c2.642273 3.659607 6.2542114 6.221344 10.242859 7.537628c4.8464355 1.5993347 10.258118 1.3666077 15.210022 -0.94033813c4.201538 -2.001892 7.4871216 -5.507599 9.234436 -9.725189c0.40734863 -0.93496704 -0.08929443 -1.6035156 -0.7755127 -1.8299866c-0.729126 -0.24060059 -1.6832275 -0.002746582 -2.065857 0.89230347c-3.3001099 8.199005 -13.409729 11.387268 -21.48352 8.72287c-1.6405029 -0.54138184 -3.2041626 -1.3217468 -4.6019287 -2.3597717c-8.640564 -6.840637 -8.972229 -20.52771 -3.5234375 -29.507599c4.392273 -7.538208 11.94635 -12.627167 20.526428 -14.19342c5.505493 -0.5982666 11.004639 -0.03314209 16.194153 1.6794128c2.498291 0.8244629 4.923462 1.913147 7.239868 3.2663574c14.873169 8.296661 27.36145 24.601685 27.948914 42.362396c0.6342163 22.55835 -18.140259 41.114838 -38.18341 47.68158c-11.467712 3.7974243 -24.028381 3.6535645 -35.759583 2.7740479c-13.227295 -1.1689148 -26.161682 -3.839264 -38.63159 -7.9544067c-0.77545166 -0.24389648 -1.5474854 -0.49865723 -2.319458 -0.75341797c-11.494141 -3.7931519 -22.436584 -8.786011 -32.914307 -14.670898c-12.553711 -7.5432434 -24.341248 -16.215393 -35.194824 -25.985199c-22.232422 -19.712921 -43.576416 -40.935028 -65.04224 -61.18799c-20.814087 -19.845642 -41.211853 -40.358948 -62.970642 -59.110535c-20.742432 -18.223907 -43.53125 -33.73477 -69.250244 -43.820282c-3.2216187 -1.2674255 -6.460449 -2.444397 -9.730713 -3.52359z" fill-rule="evenodd"/>
  </g>
</svg>
