<?xml version="1.0"?>
<svg xmlns:xlink="http://www.w3.org/1999/xlink" xmlns="http://www.w3.org/2000/svg" version="1.1" viewBox="0.0 0.0 960.0 540.0" fill="none" stroke="none" stroke-linecap="square" stroke-miterlimit="10" style="background-color:transparent;">
  <clipPath id="p.0">
    <path d="m0 0l960.0 0l0 540.0l-960.0 0l0 -540.0z" clip-rule="nonzero"/>
  </clipPath>
  <g clip-path="url(#p.0)">
    <path fill="none" d="m0 0l960.0 0l0 540.0l-960.0 0z" fill-rule="evenodd"/>
    <path fill="#ffd600" d="m539.11975 231.5203c-48.892365 0 -94.91638 29.614166 -112.90878 77.388245c-23.07721 61.313812 8.800629 129.49374 71.08951 152.20969c13.755066 5.0372925 27.83606 7.41156 41.688904 7.41156c48.82721 0 94.68823 -29.614166 112.94141 -77.388245c23.109802 -61.313812 -8.768066 -129.49374 -71.08954 -152.20969c-13.755066 -5.0052185 -27.83606 -7.41156 -41.721497 -7.41156z" fill-rule="evenodd"/>
    <path fill="#ffd600" d="m711.3211 376.7345c-1.1082764 0 -2.5750122 0.7058716 -2.9335327 1.7967529c-1.8253174 1.4438171 -2.2164917 4.331421 0.717041 5.775238l0.7496948 0.3529358l0.3585205 0c2.183899 0.73794556 4.041809 1.4438171 6.225647 1.7967224c0.35858154 0.7379761 1.1082153 1.4438171 2.2164917 1.4438171c32.95343 7.571991 66.68921 14.085175 100.750854 19.122467l1.1082153 0.3529358c0.35858154 0.19250488 0.6519165 0.28875732 0.9126587 0.28875732c0.26080322 0 0.5541382 -0.09625244 0.9126587 -0.28875732l10.984497 1.8288269c3.6832275 0 5.1500244 -5.4223022 1.4667969 -7.219055c-39.57025 -14.791016 -81.32434 -23.453888 -123.46954 -25.25064z" fill-rule="evenodd"/>
    <path fill="#ffd600" d="m673.9018 417.193c-2.9335327 0 -5.8344727 3.2405396 -3.617981 5.7110596c7.692383 9.368744 17.210083 16.940735 28.19458 22.715973c5.1500244 2.8876038 10.267395 5.775238 15.77594 7.9248962c3.0964966 1.8288269 6.649353 2.7592773 10.202209 2.7592773c2.7705688 0 5.5411377 -0.57751465 8.11615 -1.668396c1.8253174 -1.4438171 2.183838 -3.5934753 1.0756226 -5.4223022c-2.90094 -3.9464111 -6.942749 -6.8340454 -11.343018 -9.015808c-4.75885 -2.8876038 -9.15918 -5.775238 -13.559509 -8.277832c-8.800598 -5.775238 -18.31836 -10.459595 -28.227173 -14.085175c-0.293396 -0.09625244 -0.61932373 -0.12832642 -0.94525146 -0.12832642c-0.8800659 0 -1.7927246 0.3208313 -2.3468628 0.866272l-1.8253174 -1.0908813c-0.4888916 -0.19250488 -0.97784424 -0.28875732 -1.4993896 -0.28875732z" fill-rule="evenodd"/>
    <path fill="#ffd600" d="m734.2026 322.22302c-12.255676 0 -24.348389 2.598877 -35.724 7.604065l-2.183838 0c-5.1500244 0 -5.1500244 7.9570007 0 7.9570007l29.661377 -1.0908813c7.3338013 0 15.77594 -1.4437866 19.785095 -8.309937c1.4667358 -2.8876038 -0.3585205 -5.775238 -3.2921143 -5.775238c-2.737976 -0.25665283 -5.508545 -0.38500977 -8.246521 -0.38500977z" fill-rule="evenodd"/>
    <path fill="#ffd600" d="m784.30084 238.32219c-1.3364258 0 -2.737976 0.19252014 -4.1069946 0.60961914c-5.1173706 0.73794556 -10.267395 1.7967377 -15.026245 3.2405548c-1.8253174 0.35292053 -3.2920532 1.0908661 -5.1173706 1.4438019c-10.625977 2.1817627 -21.610474 5.4223175 -31.877869 8.309937c-18.709473 5.037277 -37.027832 11.165451 -54.596497 19.122452c-3.8135986 1.8609314 -1.303772 7.2511597 2.31427 7.2511597c0.55407715 0 1.1082153 -0.12835693 1.6949463 -0.41711426l0.7496338 -0.3529358l1.4667969 0l104.43414 -21.272125c4.75885 -1.0908813 12.809814 -3.2405548 9.908813 -10.106689c-0.39111328 -0.73794556 -0.7496338 -1.0908661 -1.1082153 -1.4438019c0 -1.7967377 -1.1082153 -3.5934906 -2.2164307 -4.6843567c-2.0534668 -1.1229706 -4.2699585 -1.7005005 -6.518982 -1.7005005z" fill-rule="evenodd"/>
    <path fill="#ffd600" d="m669.4361 213.90593c-0.6845093 0 -1.4016113 0.16043091 -2.0860596 0.51335144c-10.625977 5.3902283 -19.785156 13.700165 -26.760437 23.806839c-2.2164917 1.4438019 -1.8253174 5.0372925 0.717041 6.128174c0.39117432 0 0.7496948 0.35292053 1.1082764 0.35292053l0.7496338 -0.35292053l1.0756836 0c0.39111328 0 0.39111328 -0.38502502 0.7496338 -0.38502502c0.35858154 0 0.35858154 -0.3529358 0.71710205 -0.3529358c2.2164917 -1.4438019 4.041809 -2.887619 6.225647 -4.6843567c7.3338623 -4.331436 14.309143 -9.368729 20.89331 -14.438095l0.35858154 0l0.7496948 -0.7058716c1.4667358 -1.4438019 1.4667358 -3.6255646 0 -5.0693817c0 0 -0.35858154 -0.35292053 -0.35858154 -0.35292053l0 -0.7058716c-0.29333496 -2.1817627 -2.0534668 -3.7539062 -4.1395264 -3.7539062z" fill-rule="evenodd"/>
    <path fill="#ffd600" d="m672.467 65.419106c-13.559448 0.3850174 -20.143616 15.881912 -26.369263 25.25064l-25.652222 39.335808c-14.309143 22.010086 -28.976868 44.726044 -33.735718 71.067566c-0.5215454 2.5346832 1.7275391 5.1014557 3.9765625 5.1014557c0.94525146 0 1.8905029 -0.44918823 2.6401978 -1.5079803l0.71710205 -1.0908813c0.5866699 0.3529358 1.2059937 0.51335144 1.8253174 0.51335144c1.303772 0 2.5750122 -0.7058563 3.324646 -1.9571533c12.451294 -24.512695 27.47754 -47.9666 45.046204 -69.59166c15.026245 -18.769539 36.278137 -37.892006 31.877808 -64.23353c-0.3585205 -1.7967377 -1.8253174 -2.887619 -3.6506348 -2.887619z" fill-rule="evenodd"/>
    <path fill="#ffd600" d="m557.1133 114.25163c-2.1513062 0 -4.335144 0.8021164 -5.932312 2.4063568c-3.2920532 3.2405472 -2.9335327 8.662857 -2.9335327 12.994293l0 6.83403c-0.7496948 6.128174 -0.7496948 12.256348 -1.1082153 18.41661l-0.71710205 21.27214c0 3.9785004 -0.7496948 10.106674 3.2921143 11.903412c0.32592773 1.9892426 1.9882812 2.9197083 3.6506348 2.9197083c1.9882812 0 4.041748 -1.3154755 4.041748 -3.6576538c0 -10.45961 1.1082153 -20.91922 3.2921143 -30.993805c1.8253174 -9.753738 5.8670654 -19.122467 5.1173706 -28.876205c0.39117432 -4.3314285 -1.0756226 -8.277847 -3.6506348 -11.550484c-1.4993286 -1.122963 -3.2594604 -1.6684036 -5.052185 -1.6684036z" fill-rule="evenodd"/>
    <path fill="#ffd600" d="m486.3162 148.03761l5.867096 14.438095c2.9335327 6.8340454 5.4759216 13.700165 7.692383 20.91922c-4.400299 -10.106674 -8.442078 -20.566284 -12.092712 -31.025894c-0.35855103 -1.4438019 -1.1082153 -3.2405396 -1.4667664 -4.331421zm-48.924988 -148.0066c-2.0534668 0 -4.3351135 1.9571651 -4.595886 4.0747538c-4.3677063 36.063175 16.884186 67.47407 30.05252 99.55875c7.3338623 17.325722 12.092712 35.357315 17.959808 52.68303c6.2256165 17.646576 13.559479 34.972305 21.251892 51.91301c0.8800659 1.3154755 2.151245 1.9571686 3.4224548 1.9571686c0.8800659 0 1.7275391 -0.28875732 2.444641 -0.86628723c0.8474426 1.219223 2.0860596 1.7325745 3.2920837 1.7325745c2.4120178 0 4.7588196 -2.0855103 4.0417786 -4.9731293c-19.785126 -69.62375 -44.720245 -138.15662 -75.13132 -204.15479c-0.6192932 -1.379641 -1.662323 -1.9250804 -2.737976 -1.9250804z" fill-rule="evenodd"/>
    <path fill="#ffd600" d="m448.79953 187.24376c-1.3038025 0 -2.6401672 0.28875732 -3.911377 0.834198c-2.9335632 2.5346832 -3.6506348 6.4811096 -1.8253174 9.721649c2.5749817 6.513199 6.2256165 12.994293 10.267395 19.122467c3.2920837 6.513199 8.800629 11.550491 15.384796 14.43811c0.35855103 0.09625244 0.71710205 0.12834167 1.0756531 0.12834167c1.2059937 0 2.4120178 -0.48127747 2.9661255 -1.5721588c0.35855103 -0.35292053 0.35855103 -0.7058563 0.35855103 -1.0908661c1.8253174 -0.3529358 2.9335327 -1.7967529 2.9335327 -3.5934906c-0.71710205 -7.219055 -3.6506348 -14.085175 -8.050934 -19.828323c-1.8579102 -2.887619 -4.0417786 -5.7752533 -6.225647 -8.309937c-2.2164612 -2.887619 -4.791443 -5.4223175 -7.3338623 -7.571991c-1.5971375 -1.5721436 -3.5854187 -2.2779999 -5.638916 -2.2779999z" fill-rule="evenodd"/>
    <path fill="#ffd600" d="m289.1484 168.60269c-2.5424194 0 -4.009186 2.887619 -3.6506348 5.0372925c1.4667664 5.0693817 5.117401 9.015793 9.5177 11.197556c5.508545 3.5934753 11.01709 7.219055 16.851593 10.8125305c11.01709 6.8661194 22.718658 13.700165 34.45282 20.213348c23.468353 12.609283 47.262634 24.15976 71.8392 34.266434l0.71710205 0c0 0 0.3585205 0.7058563 0.3585205 0.7058563c0.9126587 1.3475647 2.2164612 1.8930054 3.4550781 1.8930054c2.8357544 0 5.5411377 -2.7592926 3.5202637 -5.4864807c-16.134491 -22.010086 -42.145233 -31.763824 -65.22244 -44.373108c-23.07721 -12.641357 -44.3291 -31.025879 -71.8392 -34.266434z" fill-rule="evenodd"/>
    <path fill="none" d="m542.99927 243.80864c-15.971497 0 -31.78006 3.5293121 -46.41516 10.26709c-2.1838684 1.219223 -0.94525146 4.299362 1.0756226 4.299362c0.35855103 0 0.71710205 -0.09625244 1.1082458 -0.32086182c13.8854065 -6.4811096 28.879059 -9.753738 44.035736 -9.753738c7.65979 0 15.384766 0.834198 23.012024 2.5346832c0.22814941 0.06417847 0.45629883 0.09625244 0.65185547 0.09625244c2.444641 0 3.1617432 -3.7539062 0.45635986 -4.4276733c-7.9205933 -1.7967529 -15.971497 -2.6951141 -23.924683 -2.6951141z" fill-rule="evenodd"/>
    <path stroke="#ffffff" stroke-width="1.0" stroke-linejoin="round" stroke-linecap="butt" d="m542.99927 243.80864c-15.971497 0 -31.78006 3.5293121 -46.41516 10.26709c-2.1838684 1.219223 -0.94525146 4.299362 1.0756226 4.299362c0.35855103 0 0.71710205 -0.09625244 1.1082458 -0.32086182c13.8854065 -6.4811096 28.879059 -9.753738 44.035736 -9.753738c7.65979 0 15.384766 0.834198 23.012024 2.5346832c0.22814941 0.06417847 0.45629883 0.09625244 0.65185547 0.09625244c2.444641 0 3.1617432 -3.7539062 0.45635986 -4.4276733c-7.9205933 -1.7967529 -15.971497 -2.6951141 -23.924683 -2.6951141z" fill-rule="evenodd"/>
    <path fill="none" d="m605.1912 271.20874c-2.0860596 0 -3.487671 2.8876343 -1.2386475 4.1710205c14.276611 6.8340454 24.544006 19.475403 28.944336 34.26645c0.29333496 1.1550293 1.2059937 1.70047 2.1186523 1.70047c1.3363647 0 2.7053833 -1.0908813 2.2816162 -2.7913513c-4.4002686 -16.234863 -15.77594 -29.582092 -31.160706 -37.154053c-0.32592773 -0.12835693 -0.6519165 -0.1925354 -0.94525146 -0.1925354z" fill-rule="evenodd"/>
    <path stroke="#ffffff" stroke-width="1.0" stroke-linejoin="round" stroke-linecap="butt" d="m605.1912 271.20874c-2.0860596 0 -3.487671 2.8876343 -1.2386475 4.1710205c14.276611 6.8340454 24.544006 19.475403 28.944336 34.26645c0.29333496 1.1550293 1.2059937 1.70047 2.1186523 1.70047c1.3363647 0 2.7053833 -1.0908813 2.2816162 -2.7913513c-4.4002686 -16.234863 -15.77594 -29.582092 -31.160706 -37.154053c-0.32592773 -0.12835693 -0.6519165 -0.1925354 -0.94525146 -0.1925354z" fill-rule="evenodd"/>
    <path fill="none" d="m640.75256 340.6395c-0.45635986 0 -0.8800659 0.12835693 -1.2712402 0.38500977c-1.1082153 0.3529358 -1.4667358 1.7967529 -0.717041 2.8876343c0.717041 0.7058716 1.0756226 1.7967529 1.8253174 2.8876038l0 0.7058716c0.3585205 0.3529358 0.3585205 1.0908813 0.717041 1.4438171l0 0.73794556l0 1.0588074l0 1.4437866c-0.3585205 0.3529358 -0.3585205 0.73794556 0 1.0908813l0 0.3529358l0 0.3529358c0 0 0 0.38500977 0 0.38500977c0 0.3529358 0 0.7058716 0 0.7058716c-0.65185547 1.9571533 0.8148804 3.1122131 2.2164917 3.1122131c0.97784424 0 1.8905029 -0.5133667 2.183838 -1.668396l0 -0.3529358c1.1082153 -5.069397 0 -10.459595 -2.9335327 -14.43811c-0.45629883 -0.7058716 -1.2385864 -1.0908813 -2.020874 -1.0908813z" fill-rule="evenodd"/>
    <path stroke="#ffffff" stroke-width="1.0" stroke-linejoin="round" stroke-linecap="butt" d="m640.75256 340.6395c-0.45635986 0 -0.8800659 0.12835693 -1.2712402 0.38500977c-1.1082153 0.3529358 -1.4667358 1.7967529 -0.717041 2.8876343c0.717041 0.7058716 1.0756226 1.7967529 1.8253174 2.8876038l0 0.7058716c0.3585205 0.3529358 0.3585205 1.0908813 0.717041 1.4438171l0 0.73794556l0 1.0588074l0 1.4437866c-0.3585205 0.3529358 -0.3585205 0.73794556 0 1.0908813l0 0.3529358l0 0.3529358c0 0 0 0.38500977 0 0.38500977c0 0.3529358 0 0.7058716 0 0.7058716c-0.65185547 1.9571533 0.8148804 3.1122131 2.2164917 3.1122131c0.97784424 0 1.8905029 -0.5133667 2.183838 -1.668396l0 -0.3529358c1.1082153 -5.069397 0 -10.459595 -2.9335327 -14.43811c-0.45629883 -0.7058716 -1.2385864 -1.0908813 -2.020874 -1.0908813z" fill-rule="evenodd"/>
    <path fill="none" d="m468.7476 272.52423c-0.35855103 0 -0.7496948 0.09625244 -1.1408386 0.3208313c-14.276581 7.571991 -25.261047 19.122467 -31.877838 33.528473c-0.7496643 1.7325745 0.9126587 3.465149 2.3794556 3.465149c0.68447876 0 1.303772 -0.38500977 1.662323 -1.2833862c2.1838684 -4.331421 4.75885 -8.662842 7.6924133 -12.256348c0.35855103 -0.38500977 0.7496643 -0.73794556 1.1082153 -1.0908813c4.4003296 -5.775238 9.876251 -10.459595 16.493042 -13.700134c0.71707153 -0.73794556 1.0756226 -1.4438171 1.0756226 -2.5346985c1.1082153 -0.73794556 2.2164612 -1.4438171 3.6832275 -2.1496582c2.1838684 -1.2513123 0.9126587 -4.299347 -1.0756226 -4.299347z" fill-rule="evenodd"/>
    <path stroke="#ffffff" stroke-width="1.0" stroke-linejoin="round" stroke-linecap="butt" d="m468.7476 272.52423c-0.35855103 0 -0.7496948 0.09625244 -1.1408386 0.3208313c-14.276581 7.571991 -25.261047 19.122467 -31.877838 33.528473c-0.7496643 1.7325745 0.9126587 3.465149 2.3794556 3.465149c0.68447876 0 1.303772 -0.38500977 1.662323 -1.2833862c2.1838684 -4.331421 4.75885 -8.662842 7.6924133 -12.256348c0.35855103 -0.38500977 0.7496643 -0.73794556 1.1082153 -1.0908813c4.4003296 -5.775238 9.876251 -10.459595 16.493042 -13.700134c0.71707153 -0.73794556 1.0756226 -1.4438171 1.0756226 -2.5346985c1.1082153 -0.73794556 2.2164612 -1.4438171 3.6832275 -2.1496582c2.1838684 -1.2513123 0.9126587 -4.299347 -1.0756226 -4.299347z" fill-rule="evenodd"/>
    <path fill="#3d6d70" d="m531.6891 297.22925c-2.5750122 0 -5.052246 1.1871338 -6.518982 3.4009705c-1.010437 1.7005005 0.39111328 3.272644 1.9556885 3.272644c0.717041 0 1.4667358 -0.32086182 2.0534668 -1.1229858l0.3585205 -0.35290527l4.041809 0l0.7496338 0.70584106l0.35858154 0.3529358l0.71710205 0.73794556l0.39111328 0.3529358l0.3585205 0.3529358c1.1082764 1.4438171 1.8253174 2.8876343 2.5424194 4.331421c0.48895264 0.7058716 1.1082153 1.1229858 1.7927246 1.1229858c0.39117432 0 0.7496948 -0.12835693 1.1408081 -0.38504028c1.4667969 -0.3529358 2.2164917 -1.7967224 1.8579102 -2.8876038c-1.4667358 -3.9785156 -4.4002686 -7.219055 -8.083496 -9.015808c-1.1734619 -0.57751465 -2.444641 -0.866272 -3.7158203 -0.866272z" fill-rule="evenodd"/>
    <path stroke="#5b98a0" stroke-width="1.0" stroke-linejoin="round" stroke-linecap="butt" d="m531.6891 297.22925c-2.5750122 0 -5.052246 1.1871338 -6.518982 3.4009705c-1.010437 1.7005005 0.39111328 3.272644 1.9556885 3.272644c0.717041 0 1.4667358 -0.32086182 2.0534668 -1.1229858l0.3585205 -0.35290527l4.041809 0l0.7496338 0.70584106l0.35858154 0.3529358l0.71710205 0.73794556l0.39111328 0.3529358l0.3585205 0.3529358c1.1082764 1.4438171 1.8253174 2.8876343 2.5424194 4.331421c0.48895264 0.7058716 1.1082153 1.1229858 1.7927246 1.1229858c0.39117432 0 0.7496948 -0.12835693 1.1408081 -0.38504028c1.4667969 -0.3529358 2.2164917 -1.7967224 1.8579102 -2.8876038c-1.4667358 -3.9785156 -4.4002686 -7.219055 -8.083496 -9.015808c-1.1734619 -0.57751465 -2.444641 -0.866272 -3.7158203 -0.866272z" fill-rule="evenodd"/>
    <path fill="#3d6d70" d="m576.377 308.908c-2.737976 0 -5.4107056 0.9625244 -7.6271973 2.8876038c-0.71710205 0.73794556 -0.71710205 2.1817627 0 2.8876343c0.5541382 0.5454407 1.1082153 0.802124 1.6623535 0.802124c0.5541382 0 1.1082153 -0.25668335 1.6623535 -0.802124l0.3585205 0l0.71710205 -0.7058716l4.041748 0c0.71710205 0 1.1082764 0 1.8253174 0.3529358l0.35858154 0l0.7496338 0.3529358l0.35858154 0.3529358l0.3585205 0.3529358c-0.3585205 0.38500977 -0.3585205 1.0908508 0 1.8288269c0.5541382 0.8020935 1.303833 1.2192078 2.1187134 1.2192078c0.2607422 0 0.55407715 -0.06417847 0.81481934 -0.16043091c0.7496948 0 1.1082764 -0.7058716 1.4667969 -1.0587769c1.1082153 -1.4438171 0.7496948 -2.8876343 0 -4.3314514c-1.4667969 -1.4438171 -2.9335327 -2.5346985 -4.75885 -3.2405396c-1.3364258 -0.4812622 -2.737976 -0.73794556 -4.1069946 -0.73794556z" fill-rule="evenodd"/>
    <path stroke="#5b98a0" stroke-width="1.0" stroke-linejoin="round" stroke-linecap="butt" d="m576.377 308.908c-2.737976 0 -5.4107056 0.9625244 -7.6271973 2.8876038c-0.71710205 0.73794556 -0.71710205 2.1817627 0 2.8876343c0.5541382 0.5454407 1.1082153 0.802124 1.6623535 0.802124c0.5541382 0 1.1082153 -0.25668335 1.6623535 -0.802124l0.3585205 0l0.71710205 -0.7058716l4.041748 0c0.71710205 0 1.1082764 0 1.8253174 0.3529358l0.35858154 0l0.7496338 0.3529358l0.35858154 0.3529358l0.3585205 0.3529358c-0.3585205 0.38500977 -0.3585205 1.0908508 0 1.8288269c0.5541382 0.8020935 1.303833 1.2192078 2.1187134 1.2192078c0.2607422 0 0.55407715 -0.06417847 0.81481934 -0.16043091c0.7496948 0 1.1082764 -0.7058716 1.4667969 -1.0587769c1.1082153 -1.4438171 0.7496948 -2.8876343 0 -4.3314514c-1.4667969 -1.4438171 -2.9335327 -2.5346985 -4.75885 -3.2405396c-1.3364258 -0.4812622 -2.737976 -0.73794556 -4.1069946 -0.73794556z" fill-rule="evenodd"/>
    <path fill="#3d6d70" d="m518.06433 326.93945c-1.1408081 0 -2.2490845 0.73794556 -2.0860596 2.1817322c1.4667358 13.347229 12.842346 21.978027 25.29364 25.25064c7.3338623 1.7967529 14.667725 2.5026245 22.001587 2.5026245c0.4888916 0.032073975 0.97784424 0.06414795 1.4993286 0.06414795c6.4537964 0 12.809814 -2.1817322 17.927246 -6.192322c2.020874 -1.4117432 0.3585205 -3.7539062 -1.4993896 -3.7539062c-0.48895264 0 -0.97784424 0.12832642 -1.4342041 0.5133362c-4.7262573 3.304718 -10.332581 5.101471 -16.036682 5.101471c-0.5214844 0 -1.0430298 -0.032073975 -1.5645752 -0.06417847c-6.225586 -0.35290527 -12.451233 -1.0587769 -18.67688 -2.502594c-10.625916 -2.5346985 -21.643005 -9.400818 -23.109802 -20.91922c0 -1.4437866 -1.1734009 -2.1817322 -2.314209 -2.1817322z" fill-rule="evenodd"/>
    <path stroke="#5b98a0" stroke-width="1.0" stroke-linejoin="round" stroke-linecap="butt" d="m518.06433 326.93945c-1.1408081 0 -2.2490845 0.73794556 -2.0860596 2.1817322c1.4667358 13.347229 12.842346 21.978027 25.29364 25.25064c7.3338623 1.7967529 14.667725 2.5026245 22.001587 2.5026245c0.4888916 0.032073975 0.97784424 0.06414795 1.4993286 0.06414795c6.4537964 0 12.809814 -2.1817322 17.927246 -6.192322c2.020874 -1.4117432 0.3585205 -3.7539062 -1.4993896 -3.7539062c-0.48895264 0 -0.97784424 0.12832642 -1.4342041 0.5133362c-4.7262573 3.304718 -10.332581 5.101471 -16.036682 5.101471c-0.5214844 0 -1.0430298 -0.032073975 -1.5645752 -0.06417847c-6.225586 -0.35290527 -12.451233 -1.0587769 -18.67688 -2.502594c-10.625916 -2.5346985 -21.643005 -9.400818 -23.109802 -20.91922c0 -1.4437866 -1.1734009 -2.1817322 -2.314209 -2.1817322z" fill-rule="evenodd"/>
    <path fill="#caebed" d="m371.2844 228.70676c-55.866516 0 -84.84277 39.30481 -84.84277 39.30481c0 0 -18.741669 -9.529419 -44.262955 -9.529419c-18.057205 0 -39.536804 4.7807617 -60.168945 21.08023c-50.227707 38.951874 -35.201767 99.20856 -35.201767 99.20856c-33.343887 7.1871643 -45.794884 112.17114 61.21196 135.27277c21.968506 4.652405 42.24211 6.5133667 60.592667 6.5133667c71.08801 0 113.46051 -27.818207 113.46051 -27.818207c0 0 11.375366 41.83957 108.83212 46.90909c5.0846863 0.22460938 9.973816 0.3529663 14.699982 0.3529663c86.53769 0 116.85031 -38.598938 116.85031 -38.598938c12.288025 4.748657 34.223938 9.048126 55.051636 9.048126c31.355652 0 60.23413 -9.721924 50.129944 -42.22461c-11.636169 -37.572205 -57.5614 -43.3797 -84.973145 -43.3797c-12.35321 0 -20.925537 1.1550903 -20.925537 1.1550903c0 0 0.35858154 -40.39572 -47.65271 -72.12836c-16.753479 -11.197845 -34.81067 -14.855591 -51.205566 -14.855591c-30.573364 0 -55.410187 12.673798 -55.410187 12.673798c0 0 6.5840454 -102.802155 -67.79599 -119.74333c-10.13678 -2.2460022 -19.589111 -3.2406464 -28.389557 -3.2406464z" fill-rule="evenodd"/>
    <path fill="#3d6d70" d="m364.60638 408.9602c-0.9778137 0 -2.0208435 0.6416931 -2.3141785 1.5401001c-1.1082153 9.016052 -0.35855103 19.475952 7.69223 25.251343c2.7053223 1.7647095 5.932129 3.0802002 9.224152 3.0802002c0.71707153 0 1.4341431 -0.06414795 2.1512146 -0.19250488c4.400238 -0.3529358 8.409332 -3.240631 10.625732 -6.8663025c2.9334717 -5.037445 4.7587585 -10.812836 5.47583 -16.588226c0.39111328 -1.0909119 -0.35855103 -2.1497498 -1.4667358 -2.5347595c-0.19558716 -0.06417847 -0.3911438 -0.09628296 -0.58670044 -0.09628296c-0.97784424 0 -2.0208435 0.6737976 -2.3468018 1.5401306c-0.71707153 5.7753906 -2.542328 10.84491 -5.117279 15.882355c-1.7601013 2.9197693 -4.726166 4.652405 -7.92041 4.652405c-0.7822571 0 -1.5645142 -0.09625244 -2.3467712 -0.32086182c-10.267181 -2.1497498 -12.092468 -13.347595 -10.984253 -22.363647c0.35855103 -1.4438477 -0.35855103 -2.5347595 -1.4667358 -2.8876953c-0.19555664 -0.06417847 -0.3911438 -0.09625244 -0.6192932 -0.09625244z" fill-rule="evenodd"/>
    <path stroke="#5b98a0" stroke-width="1.0" stroke-linejoin="round" stroke-linecap="butt" d="m364.60638 408.9602c-0.9778137 0 -2.0208435 0.6416931 -2.3141785 1.5401001c-1.1082153 9.016052 -0.35855103 19.475952 7.69223 25.251343c2.7053223 1.7647095 5.932129 3.0802002 9.224152 3.0802002c0.71707153 0 1.4341431 -0.06414795 2.1512146 -0.19250488c4.400238 -0.3529358 8.409332 -3.240631 10.625732 -6.8663025c2.9334717 -5.037445 4.7587585 -10.812836 5.47583 -16.588226c0.39111328 -1.0909119 -0.35855103 -2.1497498 -1.4667358 -2.5347595c-0.19558716 -0.06417847 -0.3911438 -0.09628296 -0.58670044 -0.09628296c-0.97784424 0 -2.0208435 0.6737976 -2.3468018 1.5401306c-0.71707153 5.7753906 -2.542328 10.84491 -5.117279 15.882355c-1.7601013 2.9197693 -4.726166 4.652405 -7.92041 4.652405c-0.7822571 0 -1.5645142 -0.09625244 -2.3467712 -0.32086182c-10.267181 -2.1497498 -12.092468 -13.347595 -10.984253 -22.363647c0.35855103 -1.4438477 -0.35855103 -2.5347595 -1.4667358 -2.8876953c-0.19555664 -0.06417847 -0.3911438 -0.09625244 -0.6192932 -0.09625244z" fill-rule="evenodd"/>
    <path fill="#3f9cac" d="m377.9376 377.5811c-0.22817993 0 -0.42373657 0.032073975 -0.6192932 0.09625244c-0.35855103 0.3529358 -0.7496643 0.3529358 -1.4667358 0.7059021c-0.19558716 -0.06417847 -0.3911438 -0.06417847 -0.55410767 -0.06417847c-0.9126587 0 -1.6949158 0.6737976 -2.0208435 1.8930359c-0.35855103 1.4438477 -0.71707153 2.8876953 -0.71707153 4.331543c-0.35855103 1.796814 0 3.5935974 1.075592 5.037445c0.68447876 0.5133667 1.5319519 0.77005005 2.3468018 0.77005005c0.94522095 0 1.8578796 -0.3529358 2.4445496 -1.1229858c1.0756226 -1.4438477 1.8252869 -2.8876953 1.8252869 -4.331543c0.35855103 -1.796814 0.35855103 -3.6256714 0 -5.775421c-0.29333496 -0.89837646 -1.3363647 -1.5401001 -2.3141785 -1.5401001z" fill-rule="evenodd"/>
    <path stroke="#5b98a0" stroke-width="1.0" stroke-linejoin="round" stroke-linecap="butt" d="m377.9376 377.5811c-0.22817993 0 -0.42373657 0.032073975 -0.6192932 0.09625244c-0.35855103 0.3529358 -0.7496643 0.3529358 -1.4667358 0.7059021c-0.19558716 -0.06417847 -0.3911438 -0.06417847 -0.55410767 -0.06417847c-0.9126587 0 -1.6949158 0.6737976 -2.0208435 1.8930359c-0.35855103 1.4438477 -0.71707153 2.8876953 -0.71707153 4.331543c-0.35855103 1.796814 0 3.5935974 1.075592 5.037445c0.68447876 0.5133667 1.5319519 0.77005005 2.3468018 0.77005005c0.94522095 0 1.8578796 -0.3529358 2.4445496 -1.1229858c1.0756226 -1.4438477 1.8252869 -2.8876953 1.8252869 -4.331543c0.35855103 -1.796814 0.35855103 -3.6256714 0 -5.775421c-0.29333496 -0.89837646 -1.3363647 -1.5401001 -2.3141785 -1.5401001z" fill-rule="evenodd"/>
    <path fill="#3d6d70" d="m391.79034 380.2762c-0.2607422 0 -0.55410767 0.09625244 -0.9126282 0.28878784c-0.7496643 0 -1.1082153 0.3529358 -1.4667358 0.7058716c-1.8252869 2.8876953 -2.2164307 6.5133667 -0.35855103 9.754028c0.22814941 0.7058716 0.9126282 1.0908813 1.6949158 1.0908813c0.39111328 0 0.8474426 -0.12832642 1.2385559 -0.38500977c3.2920227 -1.7967834 4.7587585 -5.7753906 3.6505737 -9.368988c-0.35855103 -0.7058716 -1.1082153 -1.4438477 -1.8252869 -1.7967834l-1.1082153 0c-0.3585205 -0.1925354 -0.65185547 -0.28878784 -0.9126282 -0.28878784z" fill-rule="evenodd"/>
    <path stroke="#5b98a0" stroke-width="1.0" stroke-linejoin="round" stroke-linecap="butt" d="m391.79034 380.2762c-0.2607422 0 -0.55410767 0.09625244 -0.9126282 0.28878784c-0.7496643 0 -1.1082153 0.3529358 -1.4667358 0.7058716c-1.8252869 2.8876953 -2.2164307 6.5133667 -0.35855103 9.754028c0.22814941 0.7058716 0.9126282 1.0908813 1.6949158 1.0908813c0.39111328 0 0.8474426 -0.12832642 1.2385559 -0.38500977c3.2920227 -1.7967834 4.7587585 -5.7753906 3.6505737 -9.368988c-0.35855103 -0.7058716 -1.1082153 -1.4438477 -1.8252869 -1.7967834l-1.1082153 0c-0.3585205 -0.1925354 -0.65185547 -0.28878784 -0.9126282 -0.28878784z" fill-rule="evenodd"/>
  </g>
</svg>
