<svg version="1.1" viewBox="0.0 0.0 960.0 540.0" fill="none" stroke="none" stroke-linecap="square" stroke-miterlimit="10" xmlns:xlink="http://www.w3.org/1999/xlink" xmlns="http://www.w3.org/2000/svg"><clipPath id="p.0"><path d="m0 0l960.0 0l0 540.0l-960.0 0l0 -540.0z" clip-rule="nonzero"/></clipPath><g clip-path="url(#p.0)"><path fill="#ffffff" d="m0 0l960.0 0l0 540.0l-960.0 0z" fill-rule="evenodd"/><path fill="#ffffff" d="m689.2381 372.8803c-0.91674805 0.12826538 -1.7662354 0.6661072 -2.2214355 1.7633362c-6.965271 15.807129 -10.673279 33.03 -10.845276 50.233032c0.62194824 16.142212 8.641174 31.277374 22.700867 40.455597c8.288879 5.3487244 18.061707 7.389221 27.494873 6.069397c4.672241 -0.65371704 9.24408 -2.1034546 13.495117 -4.4021606c29.783447 -16.485687 9.831787 -55.1192 -18.526855 -51.15143c-3.666809 0.513031 -7.487732 1.7459717 -11.351685 3.8229065c-2.9580078 1.698822 -1.1729736 6.3094482 1.6953735 5.9081116c0.26617432 -0.037231445 0.49822998 -0.09762573 0.75097656 -0.21679688c3.500122 -2.0819092 6.961731 -3.292511 10.24408 -3.7517395c23.331604 -3.2644348 38.838562 30.404297 12.038269 41.472565c-3.0870361 1.4654541 -6.322815 2.3930664 -9.575623 2.848175c-8.664368 1.2122498 -17.618103 -0.99871826 -24.706238 -6.403717c-11.453003 -8.593201 -18.094849 -21.6026 -18.29834 -35.01004c-1.2052612 -16.563385 4.7545776 -32.229828 10.739563 -47.927704c0.6514282 -2.297882 -1.6524048 -3.9867249 -3.633667 -3.7095337z" fill-rule="evenodd"/><path stroke="#ffffff" stroke-width="1.0" stroke-linejoin="round" stroke-linecap="butt" d="m689.2381 372.8803c-0.91674805 0.12826538 -1.7662354 0.6661072 -2.2214355 1.7633362c-6.965271 15.807129 -10.673279 33.03 -10.845276 50.233032c0.62194824 16.142212 8.641174 31.277374 22.700867 40.455597c8.288879 5.3487244 18.061707 7.389221 27.494873 6.069397c4.672241 -0.65371704 9.24408 -2.1034546 13.495117 -4.4021606c29.783447 -16.485687 9.831787 -55.1192 -18.526855 -51.15143c-3.666809 0.513031 -7.487732 1.7459717 -11.351685 3.8229065c-2.9580078 1.698822 -1.1729736 6.3094482 1.6953735 5.9081116c0.26617432 -0.037231445 0.49822998 -0.09762573 0.75097656 -0.21679688c3.500122 -2.0819092 6.961731 -3.292511 10.24408 -3.7517395c23.331604 -3.2644348 38.838562 30.404297 12.038269 41.472565c-3.0870361 1.4654541 -6.322815 2.3930664 -9.575623 2.848175c-8.664368 1.2122498 -17.618103 -0.99871826 -24.706238 -6.403717c-11.453003 -8.593201 -18.094849 -21.6026 -18.29834 -35.01004c-1.2052612 -16.563385 4.7545776 -32.229828 10.739563 -47.927704c0.6514282 -2.297882 -1.6524048 -3.9867249 -3.633667 -3.7095337z" fill-rule="evenodd"/><path fill="#ffffff" d="m82.88233 229.27379c-13.010338 0 -24.405602 7.567398 -29.101288 18.863281c-4.964863 11.4891815 -1.4954414 25.243088 8.942738 33.50096c6.849125 5.578888 14.924503 7.5121765 23.298977 7.5121765c6.789299 0 13.758057 -1.2704468 20.427727 -2.9275513c18.872467 -4.1151123 37.266388 -10.992065 54.673325 -19.249939c3.0207977 -1.6018372 0.74772644 -5.302704 -2.1833496 -5.302704c-0.41871643 0 -0.86735535 0.055236816 -1.315979 0.24856567l0.50845337 0c-11.933624 5.9655457 -24.345795 10.550171 -37.266403 14.665314c-10.88681 3.2313232 -22.910156 7.153137 -34.39514 7.153137c-1.644989 0 -3.2600632 -0.082855225 -4.8751373 -0.24856567c-11.425171 -1.3809204 -20.84645 -9.196899 -23.328884 -19.277557c-2.4824333 -10.550186 2.4824333 -21.100372 12.412159 -26.624023c3.050705 -1.7951813 6.5500336 -2.7065887 10.109184 -2.7065887c2.811432 0 5.622856 0.5799866 8.284744 1.7951813c4.9648666 2.7618408 5.9518585 9.169266 1.4655304 13.312012c-2.3029785 1.7675629 -0.119636536 4.3913116 2.3628006 4.3913116c0.7178116 0 1.4655304 -0.22094727 2.1235275 -0.7180786c4.4863205 -3.673233 5.951851 -9.196884 3.4694214 -14.223404c-1.9739838 -5.5236664 -7.447296 -9.196884 -13.399155 -10.108292c-0.7477188 -0.055236816 -1.4954376 -0.055236816 -2.2132492 -0.055236816z" fill-rule="evenodd"/><path stroke="#ffffff" stroke-width="1.0" stroke-linejoin="round" stroke-linecap="butt" d="m82.88233 229.27379c-13.010338 0 -24.405602 7.567398 -29.101288 18.863281c-4.964863 11.4891815 -1.4954414 25.243088 8.942738 33.50096c6.849125 5.578888 14.924503 7.5121765 23.298977 7.5121765c6.789299 0 13.758057 -1.2704468 20.427727 -2.9275513c18.872467 -4.1151123 37.266388 -10.992065 54.673325 -19.249939c3.0207977 -1.6018372 0.74772644 -5.302704 -2.1833496 -5.302704c-0.41871643 0 -0.86735535 0.055236816 -1.315979 0.24856567l0.50845337 0c-11.933624 5.9655457 -24.345795 10.550171 -37.266403 14.665314c-10.88681 3.2313232 -22.910156 7.153137 -34.39514 7.153137c-1.644989 0 -3.2600632 -0.082855225 -4.8751373 -0.24856567c-11.425171 -1.3809204 -20.84645 -9.196899 -23.328884 -19.277557c-2.4824333 -10.550186 2.4824333 -21.100372 12.412159 -26.624023c3.050705 -1.7951813 6.5500336 -2.7065887 10.109184 -2.7065887c2.811432 0 5.622856 0.5799866 8.284744 1.7951813c4.9648666 2.7618408 5.9518585 9.169266 1.4655304 13.312012c-2.3029785 1.7675629 -0.119636536 4.3913116 2.3628006 4.3913116c0.7178116 0 1.4655304 -0.22094727 2.1235275 -0.7180786c4.4863205 -3.673233 5.951851 -9.196884 3.4694214 -14.223404c-1.9739838 -5.5236664 -7.447296 -9.196884 -13.399155 -10.108292c-0.7477188 -0.055236816 -1.4954376 -0.055236816 -2.2132492 -0.055236816z" fill-rule="evenodd"/><path fill="#ffffff" d="m125.05372 293.12735c-0.7477188 0 -1.4954376 0.27615356 -2.2132492 0.91137695l0.50844574 0c-13.9076 12.842499 -30.806084 22.481293 -49.67855 27.977325c-7.836113 2.817047 -16.419945 4.225586 -25.093502 4.225586c-1.2561722 0 -2.4824333 -0.027618408 -3.7386055 -0.082855225c-8.942738 -0.9390259 -19.380917 -7.815979 -15.911493 -16.98523c0.59817696 -2.1542358 -1.2561703 -3.5351562 -3.1404266 -3.5351562c-1.3458958 0 -2.6917934 0.6628418 -3.3198776 2.1542358c-2.4824333 8.727386 2.4824314 17.896637 11.933619 22.039398c4.426506 1.933258 9.182011 2.6513367 13.99733 2.6513367c6.579941 0 13.279518 -1.3256836 19.291191 -2.6513367c22.850342 -5.5236816 43.248154 -16.515747 59.63819 -31.678162c2.273079 -2.098999 0.17945099 -5.02652 -2.2730713 -5.02652z" fill-rule="evenodd"/><path stroke="#ffffff" stroke-width="1.0" stroke-linejoin="round" stroke-linecap="butt" d="m125.05372 293.12735c-0.7477188 0 -1.4954376 0.27615356 -2.2132492 0.91137695l0.50844574 0c-13.9076 12.842499 -30.806084 22.481293 -49.67855 27.977325c-7.836113 2.817047 -16.419945 4.225586 -25.093502 4.225586c-1.2561722 0 -2.4824333 -0.027618408 -3.7386055 -0.082855225c-8.942738 -0.9390259 -19.380917 -7.815979 -15.911493 -16.98523c0.59817696 -2.1542358 -1.2561703 -3.5351562 -3.1404266 -3.5351562c-1.3458958 0 -2.6917934 0.6628418 -3.3198776 2.1542358c-2.4824333 8.727386 2.4824314 17.896637 11.933619 22.039398c4.426506 1.933258 9.182011 2.6513367 13.99733 2.6513367c6.579941 0 13.279518 -1.3256836 19.291191 -2.6513367c22.850342 -5.5236816 43.248154 -16.515747 59.63819 -31.678162c2.273079 -2.098999 0.17945099 -5.02652 -2.2730713 -5.02652z" fill-rule="evenodd"/><path fill="#ffffff" d="m660.80835 432.6416c-1.2716064 0.17788696 -2.5422363 0.91433716 -3.109436 2.250702l0.57440186 0.36657715c-6.807556 32.07013 3.1347046 65.00906 27.237 89.4863c0.7213745 0.70910645 1.6326904 0.9168091 2.5198364 0.7926636c2.1290894 -0.29785156 4.003723 -2.515503 1.940918 -4.210144c-22.39972 -23.318756 -32.11798 -54.892365 -25.589111 -85.526855c0.553772 -2.3400574 -1.5332031 -3.4447327 -3.5736084 -3.1592407z" fill-rule="evenodd"/><path stroke="#ffffff" stroke-width="1.0" stroke-linejoin="round" stroke-linecap="butt" d="m660.80835 432.6416c-1.2716064 0.17788696 -2.5422363 0.91433716 -3.109436 2.250702l0.57440186 0.36657715c-6.807556 32.07013 3.1347046 65.00906 27.237 89.4863c0.7213745 0.70910645 1.6326904 0.9168091 2.5198364 0.7926636c2.1290894 -0.29785156 4.003723 -2.515503 1.940918 -4.210144c-22.39972 -23.318756 -32.11798 -54.892365 -25.589111 -85.526855c0.553772 -2.3400574 -1.5332031 -3.4447327 -3.5736084 -3.1592407z" fill-rule="evenodd"/><path fill="#ffffff" d="m816.30005 136.10304c-1.1027832 0.61112976 -1.897644 1.6958618 -1.6871948 3.0931091l0.68218994 0.13728333c2.7254639 14.015015 10.067139 27.08223 21.142578 36.985077c9.957275 10.007156 23.863647 16.21524 38.410522 17.23677c5.724365 0.11306763 10.9817505 -1.351059 15.546509 -3.8808289c19.336243 -10.716019 26.375061 -40.67511 4.2507324 -53.087128c-7.5201416 -4.27153 -16.296326 -3.820633 -23.015259 -0.09703064c-4.821289 2.6719055 -8.5651245 7.0014496 -10.062195 12.533844c-0.80493164 2.8940887 2.6472778 4.3951874 4.750122 3.229782c0.6154785 -0.3410797 1.1283569 -0.9474182 1.3641968 -1.8189545c0.93304443 -3.9313965 3.5845337 -7.0435486 7.04657 -8.962204c5.180298 -2.8708649 12.166382 -3.0705414 17.665466 0.61387634c9.479797 6.5353546 12.892273 18.011536 7.9385986 28.26184c-2.3587646 5.977707 -6.7180786 10.809402 -12.206055 13.850815c-5.154663 2.856659 -11.325073 4.1503754 -17.782959 3.2842865c-12.008057 -2.4285583 -22.75476 -8.2296295 -30.342041 -16.36139c-10.131531 -9.362976 -16.442078 -20.843582 -19.09552 -33.83551c-0.5644531 -1.9419098 -2.9137573 -2.121643 -4.606262 -1.1836395z" fill-rule="evenodd"/><path stroke="#ffffff" stroke-width="1.0" stroke-linejoin="round" stroke-linecap="butt" d="m816.30005 136.10304c-1.1027832 0.61112976 -1.897644 1.6958618 -1.6871948 3.0931091l0.68218994 0.13728333c2.7254639 14.015015 10.067139 27.08223 21.142578 36.985077c9.957275 10.007156 23.863647 16.21524 38.410522 17.23677c5.724365 0.11306763 10.9817505 -1.351059 15.546509 -3.8808289c19.336243 -10.716019 26.375061 -40.67511 4.2507324 -53.087128c-7.5201416 -4.27153 -16.296326 -3.820633 -23.015259 -0.09703064c-4.821289 2.6719055 -8.5651245 7.0014496 -10.062195 12.533844c-0.80493164 2.8940887 2.6472778 4.3951874 4.750122 3.229782c0.6154785 -0.3410797 1.1283569 -0.9474182 1.3641968 -1.8189545c0.93304443 -3.9313965 3.5845337 -7.0435486 7.04657 -8.962204c5.180298 -2.8708649 12.166382 -3.0705414 17.665466 0.61387634c9.479797 6.5353546 12.892273 18.011536 7.9385986 28.26184c-2.3587646 5.977707 -6.7180786 10.809402 -12.206055 13.850815c-5.154663 2.856659 -11.325073 4.1503754 -17.782959 3.2842865c-12.008057 -2.4285583 -22.75476 -8.2296295 -30.342041 -16.36139c-10.131531 -9.362976 -16.442078 -20.843582 -19.09552 -33.83551c-0.5644531 -1.9419098 -2.9137573 -2.121643 -4.606262 -1.1836395z" fill-rule="evenodd"/><path fill="#caebed" d="m407.18317 8.483405c-11.076599 0 -23.324738 2.8521194 -36.63794 9.507066c-35.537384 17.342197 -57.087036 51.600418 -55.879944 88.448494c0 0 -20.804108 -10.457771 -45.797424 -10.457771c-25.525864 0 -55.41844 10.916733 -71.962326 55.075417c-32.732727 87.33386 47.892044 102.807434 47.892044 102.807434c0 0 -43.489807 121.62488 63.477356 154.44064c17.573425 5.441986 33.868805 7.736786 48.886078 7.736786c76.36456 0 118.753784 -58.976593 118.753784 -58.976593c0 0 23.253723 43.27353 81.47681 43.27353c6.9228516 0 14.342773 -0.62286377 22.295166 -1.9997559c74.234436 -12.8836975 67.84412 -85.49802 67.84412 -85.49802l0 0c0 0 37.80951 20.194305 75.19299 20.194305c26.874878 0 53.501343 -10.424988 65.71399 -46.355133c29.537537 -85.89142 -44.73242 -115.72394 -44.73242 -115.72394c0 0 63.477356 -74.45015 -23.147217 -133.06613c-19.064514 -12.850931 -36.63794 -17.866728 -52.43628 -17.866728c-56.234924 0 -90.032715 63.566208 -90.032715 63.566208c-1.9881592 -24.685589 -22.756714 -44.945477 -49.880188 -47.174717c-3.2306519 -0.36061478 -6.2838135 -0.5245285 -9.159485 -0.5245285c-39.726593 0 -46.329926 33.340298 -46.329926 33.340298c-2.485138 -25.570732 -26.55542 -60.746872 -65.53647 -60.746872z" fill-rule="evenodd"/><path fill="#ffffff" d="m275.36407 110.699615c-23.644241 0 -45.264893 12.228058 -55.70244 31.865067c-0.8165436 2.032547 1.0295563 3.737259 2.7691498 3.737259c0.7810364 0 1.5265808 -0.36061096 2.0236053 -1.1473999c9.159485 -17.96508 28.82753 -29.373558 50.235153 -29.373558c1.8815918 0 3.763214 0.06555939 5.644806 0.26226044c0.10650635 0 0.2130127 0 0.31951904 0c2.8756409 0 2.7691345 -4.8190994 -0.31951904 -5.1797104c-1.6685791 -0.098350525 -3.3016663 -0.16391754 -4.970276 -0.16391754z" fill-rule="evenodd"/><path stroke="#ffffff" stroke-width="1.0" stroke-linejoin="round" stroke-linecap="butt" d="m275.36407 110.699615c-23.644241 0 -45.264893 12.228058 -55.70244 31.865067c-0.8165436 2.032547 1.0295563 3.737259 2.7691498 3.737259c0.7810364 0 1.5265808 -0.36061096 2.0236053 -1.1473999c9.159485 -17.96508 28.82753 -29.373558 50.235153 -29.373558c1.8815918 0 3.763214 0.06555939 5.644806 0.26226044c0.10650635 0 0.2130127 0 0.31951904 0c2.8756409 0 2.7691345 -4.8190994 -0.31951904 -5.1797104c-1.6685791 -0.098350525 -3.3016663 -0.16391754 -4.970276 -0.16391754z" fill-rule="evenodd"/><path fill="#ffffff" d="m299.89502 113.453354c-1.5975952 0 -2.804657 1.114624 -2.804657 2.589859c0 1.475235 1.2070618 2.5570755 2.804657 2.5570755l3.19516 0c1.2070618 0 2.3786316 0.39339447 3.9762268 0.75400543l0.8165283 0.36061096l0.39053345 0.3606186c0.39050293 0 1.2070618 0.39339447 1.5975647 0.75400543c0.7810364 0 1.2070618 0.36061096 1.5975952 0.7212219l0.7810364 0.75401306c0 0 0.53253174 0.16391754 0.7810364 0.16391754c0.071014404 0 0.10650635 -0.03278351 0.10650635 -0.06556702l0 0c0.39053345 0.491745 0.9585571 0.7212219 1.5621033 0.7212219c0.63900757 0 1.34906 -0.26226044 1.9525757 -0.81957245c0.81655884 -0.75401306 0.81655884 -2.2292404 0 -2.95047c-4.792755 -3.7044754 -10.792572 -5.5403214 -16.756866 -5.90094z" fill-rule="evenodd"/><path stroke="#ffffff" stroke-width="1.0" stroke-linejoin="round" stroke-linecap="butt" d="m299.89502 113.453354c-1.5975952 0 -2.804657 1.114624 -2.804657 2.589859c0 1.475235 1.2070618 2.5570755 2.804657 2.5570755l3.19516 0c1.2070618 0 2.3786316 0.39339447 3.9762268 0.75400543l0.8165283 0.36061096l0.39053345 0.3606186c0.39050293 0 1.2070618 0.39339447 1.5975647 0.75400543c0.7810364 0 1.2070618 0.36061096 1.5975952 0.7212219l0.7810364 0.75401306c0 0 0.53253174 0.16391754 0.7810364 0.16391754c0.071014404 0 0.10650635 -0.03278351 0.10650635 -0.06556702l0 0c0.39053345 0.491745 0.9585571 0.7212219 1.5621033 0.7212219c0.63900757 0 1.34906 -0.26226044 1.9525757 -0.81957245c0.81655884 -0.75401306 0.81655884 -2.2292404 0 -2.95047c-4.792755 -3.7044754 -10.792572 -5.5403214 -16.756866 -5.90094z" fill-rule="evenodd"/><path fill="#ffffff" d="m210.57338 164.52869c-0.6745453 0 -1.4200745 0.2622528 -2.0946198 0.88513184c-9.585495 8.130188 -8.378433 21.0139 -7.1713715 32.061768c-0.2130127 1.475235 1.2070618 2.2292328 2.591629 2.2292328c1.3845825 0 2.804657 -0.7539978 2.5916443 -2.2292328c-1.2070618 -9.572632 -2.3786316 -21.374512 5.999817 -28.750687c1.8105927 -1.671936 0.1775055 -4.196213 -1.917099 -4.196213z" fill-rule="evenodd"/><path stroke="#ffffff" stroke-width="1.0" stroke-linejoin="round" stroke-linecap="butt" d="m210.57338 164.52869c-0.6745453 0 -1.4200745 0.2622528 -2.0946198 0.88513184c-9.585495 8.130188 -8.378433 21.0139 -7.1713715 32.061768c-0.2130127 1.475235 1.2070618 2.2292328 2.591629 2.2292328c1.3845825 0 2.804657 -0.7539978 2.5916443 -2.2292328c-1.2070618 -9.572632 -2.3786316 -21.374512 5.999817 -28.750687c1.8105927 -1.671936 0.1775055 -4.196213 -1.917099 -4.196213z" fill-rule="evenodd"/><path fill="#ffffff" d="m382.3655 37.46324c-0.2130127 0 -0.4260254 0 -0.6390381 0.06556702c-26.768433 9.212017 -46.329956 30.947136 -49.91565 57.14074c-0.17752075 1.6391525 0.9940491 2.4915085 2.3076172 2.4915085c1.2780762 0 2.6981506 -0.85235596 2.8756409 -2.4915085c3.6212158 -23.964363 21.549652 -43.863632 45.90393 -52.354424c3.3371887 -0.68844223 2.2011414 -4.851883 -0.5325012 -4.851883z" fill-rule="evenodd"/><path stroke="#ffffff" stroke-width="1.0" stroke-linejoin="round" stroke-linecap="butt" d="m382.3655 37.46324c-0.2130127 0 -0.4260254 0 -0.6390381 0.06556702c-26.768433 9.212017 -46.329956 30.947136 -49.91565 57.14074c-0.17752075 1.6391525 0.9940491 2.4915085 2.3076172 2.4915085c1.2780762 0 2.6981506 -0.85235596 2.8756409 -2.4915085c3.6212158 -23.964363 21.549652 -43.863632 45.90393 -52.354424c3.3371887 -0.68844223 2.2011414 -4.851883 -0.5325012 -4.851883z" fill-rule="evenodd"/><path fill="#ffffff" d="m415.77188 30.054369c-0.8520508 0 -1.6685791 0.03278351 -2.52063 0.09834862c-0.2130127 -0.0327816 -0.39050293 -0.06556511 -0.53253174 -0.06556511c-2.5916138 0 -2.4851074 4.8846645 0.24853516 4.8846645c0.07098389 0 0.17749023 0 0.28399658 -0.03278351c0.9940491 -0.06556702 1.9526062 -0.13113022 2.9111633 -0.13113022c2.8756409 0 5.5737915 0.42617798 8.23642 1.2457504c1.5975952 0.36061478 3.6212158 0.75400925 5.2187805 1.114624c0.39053345 0.36061096 0.7810364 0.36061096 1.1715698 0.72122574c-0.071014404 -0.06556702 -0.071014404 -0.098350525 -0.071014404 -0.098350525c0.071014404 0 0.4260254 0.22948074 0.3550415 0.22948074c-0.03552246 0 -0.10650635 -0.03278351 -0.2840271 -0.13113022l0 0c0 1.6719322 1.3135681 2.4915047 2.5916443 2.4915047c1.3135681 0 2.6271362 -0.81957245 2.6271362 -2.4915047c0.39050293 -4.0323067 -4.792755 -5.1469307 -8.41394 -6.261551c-3.9407043 -0.917923 -7.881439 -1.5735836 -11.822144 -1.5735836z" fill-rule="evenodd"/><path stroke="#ffffff" stroke-width="1.0" stroke-linejoin="round" stroke-linecap="butt" d="m415.77188 30.054369c-0.8520508 0 -1.6685791 0.03278351 -2.52063 0.09834862c-0.2130127 -0.0327816 -0.39050293 -0.06556511 -0.53253174 -0.06556511c-2.5916138 0 -2.4851074 4.8846645 0.24853516 4.8846645c0.07098389 0 0.17749023 0 0.28399658 -0.03278351c0.9940491 -0.06556702 1.9526062 -0.13113022 2.9111633 -0.13113022c2.8756409 0 5.5737915 0.42617798 8.23642 1.2457504c1.5975952 0.36061478 3.6212158 0.75400925 5.2187805 1.114624c0.39053345 0.36061096 0.7810364 0.36061096 1.1715698 0.72122574c-0.071014404 -0.06556702 -0.071014404 -0.098350525 -0.071014404 -0.098350525c0.071014404 0 0.4260254 0.22948074 0.3550415 0.22948074c-0.03552246 0 -0.10650635 -0.03278351 -0.2840271 -0.13113022l0 0c0 1.6719322 1.3135681 2.4915047 2.5916443 2.4915047c1.3135681 0 2.6271362 -0.81957245 2.6271362 -2.4915047c0.39050293 -4.0323067 -4.792755 -5.1469307 -8.41394 -6.261551c-3.9407043 -0.917923 -7.881439 -1.5735836 -11.822144 -1.5735836z" fill-rule="evenodd"/><path fill="#ffffff" d="m518.7975 50.084553c-5.5737915 0 -10.970062 1.5735817 -15.336792 4.7535324c-5.999817 3.7044754 -11.183105 8.851406 -15.585327 14.391727c-2.0946045 1.671936 -0.14199829 4.360138 1.9526062 4.360138c0.710022 0 1.4555664 -0.29504395 2.02359 -1.049057c6.4968567 -7.6384354 15.265808 -17.702808 26.590942 -17.702808c1.2070312 0 2.4851074 0.13113022 3.7631836 0.39339447c0.2130127 0.03278351 0.4260254 0.06556702 0.6390381 0.06556702c2.7336426 0 3.9052124 -4.196224 0.56799316 -4.851883c-1.5620728 -0.26226425 -3.088623 -0.36061096 -4.6152344 -0.36061096z" fill-rule="evenodd"/><path stroke="#ffffff" stroke-width="1.0" stroke-linejoin="round" stroke-linecap="butt" d="m518.7975 50.084553c-5.5737915 0 -10.970062 1.5735817 -15.336792 4.7535324c-5.999817 3.7044754 -11.183105 8.851406 -15.585327 14.391727c-2.0946045 1.671936 -0.14199829 4.360138 1.9526062 4.360138c0.710022 0 1.4555664 -0.29504395 2.02359 -1.049057c6.4968567 -7.6384354 15.265808 -17.702808 26.590942 -17.702808c1.2070312 0 2.4851074 0.13113022 3.7631836 0.39339447c0.2130127 0.03278351 0.4260254 0.06556702 0.6390381 0.06556702c2.7336426 0 3.9052124 -4.196224 0.56799316 -4.851883c-1.5620728 -0.26226425 -3.088623 -0.36061096 -4.6152344 -0.36061096z" fill-rule="evenodd"/><path fill="#ffffff" d="m546.8433 55.42812c-0.2130127 0 -0.46148682 0.0655632 -0.710022 0.16391373c-0.39050293 0 -1.1715698 0.72122574 -1.5975952 1.1146202c-0.39050293 1.0818405 0 2.5570755 1.2070923 3.311081c0.8165283 0.36061478 1.9880981 0.72122574 2.8046265 1.475235l1.5975952 0.72122574l0.78100586 0.39339828c0.81658936 0.72122574 1.5975952 1.4752312 2.4141846 2.1964607l0.39050293 0.7212219c0.39050293 0.39339447 0.8165283 1.114624 0.8165283 1.475235c0.49700928 0.72122955 1.34906 1.1474075 2.3076172 1.1474075c0.53253174 0 1.1005859 -0.13113403 1.6685791 -0.39339447c1.2070923 -0.3606186 1.5975952 -1.8358536 1.2070923 -2.95047c-2.8046875 -4.065094 -6.780884 -7.01556 -11.183105 -8.85141c-0.5680542 -0.26226044 -1.1360474 -0.5245247 -1.7041016 -0.5245247z" fill-rule="evenodd"/><path stroke="#ffffff" stroke-width="1.0" stroke-linejoin="round" stroke-linecap="butt" d="m546.8433 55.42812c-0.2130127 0 -0.46148682 0.0655632 -0.710022 0.16391373c-0.39050293 0 -1.1715698 0.72122574 -1.5975952 1.1146202c-0.39050293 1.0818405 0 2.5570755 1.2070923 3.311081c0.8165283 0.36061478 1.9880981 0.72122574 2.8046265 1.475235l1.5975952 0.72122574l0.78100586 0.39339828c0.81658936 0.72122574 1.5975952 1.4752312 2.4141846 2.1964607l0.39050293 0.7212219c0.39050293 0.39339447 0.8165283 1.114624 0.8165283 1.475235c0.49700928 0.72122955 1.34906 1.1474075 2.3076172 1.1474075c0.53253174 0 1.1005859 -0.13113403 1.6685791 -0.39339447c1.2070923 -0.3606186 1.5975952 -1.8358536 1.2070923 -2.95047c-2.8046875 -4.065094 -6.780884 -7.01556 -11.183105 -8.85141c-0.5680542 -0.26226044 -1.1360474 -0.5245247 -1.7041016 -0.5245247z" fill-rule="evenodd"/><path fill="#ffffff" d="m616.5685 55.19864c-0.46154785 0 -0.9585571 0.13113403 -1.3845825 0.39339828c-10.366516 6.622162 -17.963928 16.227573 -21.549622 27.27544c-0.710022 1.737503 0.8165283 2.8521194 2.3431396 2.8521194c1.0650635 0 2.130066 -0.557312 2.449585 -1.7374954c3.5856934 -9.605415 10.4021 -18.063423 19.17102 -23.964363c1.5975952 -0.75400925 1.9880981 -2.2292442 1.2070923 -3.7044754c-0.53253174 -0.68844223 -1.3845825 -1.114624 -2.2366333 -1.114624z" fill-rule="evenodd"/><path stroke="#ffffff" stroke-width="1.0" stroke-linejoin="round" stroke-linecap="butt" d="m616.5685 55.19864c-0.46154785 0 -0.9585571 0.13113403 -1.3845825 0.39339828c-10.366516 6.622162 -17.963928 16.227573 -21.549622 27.27544c-0.710022 1.737503 0.8165283 2.8521194 2.3431396 2.8521194c1.0650635 0 2.130066 -0.557312 2.449585 -1.7374954c3.5856934 -9.605415 10.4021 -18.063423 19.17102 -23.964363c1.5975952 -0.75400925 1.9880981 -2.2292442 1.2070923 -3.7044754c-0.53253174 -0.68844223 -1.3845825 -1.114624 -2.2366333 -1.114624z" fill-rule="evenodd"/><path fill="#ffffff" d="m674.86206 35.529068c-10.792603 0 -21.478638 2.6554222 -30.92218 7.9006996c-2.378601 1.5735817 -0.710022 4.7535324 1.5620728 4.7535324c0.39056396 0 0.81658936 -0.098350525 1.2426147 -0.32783127c8.378418 -4.8846626 17.928406 -7.3433876 27.58496 -7.3433876c6.4258423 0 12.887146 1.0818367 19.099976 3.2782974c7.597412 2.2292442 14.378296 5.540325 20.768616 10.326641c3.159668 2.1964607 5.9642944 4.786316 8.768982 7.376171c2.378601 2.1964607 6.7808228 5.5075417 7.1713257 9.212017c0.2130127 1.6391525 1.5975952 2.4915085 2.9466553 2.4915085c1.3491211 0 2.6626587 -0.85235596 2.6626587 -2.4915085c-0.8165283 -3.7044754 -2.8046265 -7.376171 -5.999817 -9.966026c-3.1951294 -2.9504662 -6.39032 -6.261551 -9.976013 -8.818623c-6.780884 -5.1797104 -14.378235 -9.605415 -22.756714 -12.5558815c-7.1713867 -2.5570755 -14.697754 -3.8356094 -22.153137 -3.8356094z" fill-rule="evenodd"/><path stroke="#ffffff" stroke-width="1.0" stroke-linejoin="round" stroke-linecap="butt" d="m674.86206 35.529068c-10.792603 0 -21.478638 2.6554222 -30.92218 7.9006996c-2.378601 1.5735817 -0.710022 4.7535324 1.5620728 4.7535324c0.39056396 0 0.81658936 -0.098350525 1.2426147 -0.32783127c8.378418 -4.8846626 17.928406 -7.3433876 27.58496 -7.3433876c6.4258423 0 12.887146 1.0818367 19.099976 3.2782974c7.597412 2.2292442 14.378296 5.540325 20.768616 10.326641c3.159668 2.1964607 5.9642944 4.786316 8.768982 7.376171c2.378601 2.1964607 6.7808228 5.5075417 7.1713257 9.212017c0.2130127 1.6391525 1.5975952 2.4915085 2.9466553 2.4915085c1.3491211 0 2.6626587 -0.85235596 2.6626587 -2.4915085c-0.8165283 -3.7044754 -2.8046265 -7.376171 -5.999817 -9.966026c-3.1951294 -2.9504662 -6.39032 -6.261551 -9.976013 -8.818623c-6.780884 -5.1797104 -14.378235 -9.605415 -22.756714 -12.5558815c-7.1713867 -2.5570755 -14.697754 -3.8356094 -22.153137 -3.8356094z" fill-rule="evenodd"/><path fill="#ffffff" d="m632.47314 308.93613c-1.6330566 0 -3.2306519 1.1801758 -2.52063 3.1799622c2.8046875 10.293854 1.2070923 21.374481 -3.9761963 30.947113c-2.4141235 4.786316 -4.4022217 9.212036 -7.1713867 13.998352c-2.0235596 4.065094 -5.21875 7.3761597 -9.194946 9.966034c-2.7336426 1.5735779 -1.1005859 4.7207336 1.420044 4.7207336c0.4260254 0 0.88757324 -0.098358154 1.3845825 -0.29504395c4.3667603 -2.5898438 7.987915 -6.2615356 10.366577 -10.687256c3.1951294 -5.179718 5.5737915 -10.32663 8.378418 -15.866974c5.5737915 -10.687256 7.1713867 -22.849731 4.0117188 -34.25821c-0.49700928 -1.1801758 -1.5975952 -1.7047119 -2.6981812 -1.7047119z" fill-rule="evenodd"/><path stroke="#ffffff" stroke-width="1.0" stroke-linejoin="round" stroke-linecap="butt" d="m632.47314 308.93613c-1.6330566 0 -3.2306519 1.1801758 -2.52063 3.1799622c2.8046875 10.293854 1.2070923 21.374481 -3.9761963 30.947113c-2.4141235 4.786316 -4.4022217 9.212036 -7.1713867 13.998352c-2.0235596 4.065094 -5.21875 7.3761597 -9.194946 9.966034c-2.7336426 1.5735779 -1.1005859 4.7207336 1.420044 4.7207336c0.4260254 0 0.88757324 -0.098358154 1.3845825 -0.29504395c4.3667603 -2.5898438 7.987915 -6.2615356 10.366577 -10.687256c3.1951294 -5.179718 5.5737915 -10.32663 8.378418 -15.866974c5.5737915 -10.687256 7.1713867 -22.849731 4.0117188 -34.25821c-0.49700928 -1.1801758 -1.5975952 -1.7047119 -2.6981812 -1.7047119z" fill-rule="evenodd"/><path fill="#ffffff" d="m538.18097 383.22156c-2.8046265 0 -4.0117188 3.7044678 -1.5975342 4.819092c7.206848 1.540802 14.62677 2.393158 22.04663 2.393158c6.5323486 0 13.10022 -0.65567017 19.455017 -2.0325623c3.3372192 -0.3605957 2.2011108 -4.491272 -0.53253174 -4.491272c-0.2130127 0 -0.4260254 0 -0.6744995 0.065582275c-5.751343 1.1473999 -11.573608 1.7374878 -17.431458 1.7374878c-7.100342 0 -14.2717285 -0.85235596 -21.265625 -2.4914856z" fill-rule="evenodd"/><path stroke="#ffffff" stroke-width="1.0" stroke-linejoin="round" stroke-linecap="butt" d="m538.18097 383.22156c-2.8046265 0 -4.0117188 3.7044678 -1.5975342 4.819092c7.206848 1.540802 14.62677 2.393158 22.04663 2.393158c6.5323486 0 13.10022 -0.65567017 19.455017 -2.0325623c3.3372192 -0.3605957 2.2011108 -4.491272 -0.53253174 -4.491272c-0.2130127 0 -0.4260254 0 -0.6744995 0.065582275c-5.751343 1.1473999 -11.573608 1.7374878 -17.431458 1.7374878c-7.100342 0 -14.2717285 -0.85235596 -21.265625 -2.4914856z" fill-rule="evenodd"/><path fill="#ffffff" d="m262.37006 265.30246c-0.6390381 0 -1.34906 0.22949219 -1.9880981 0.7212219c-4.792755 4.4256897 -7.597412 9.966034 -8.3784485 16.22757c-1.59758 7.736786 -2.4141235 15.473572 -2.4141235 23.60376c-0.3905182 13.637726 5.1832733 27.275452 15.159302 37.569305c0.5680237 0.5245056 1.2070618 0.7212219 1.8106079 0.7212219c2.0946045 0 4.0472107 -2.4259338 2.2011108 -4.392914c-9.195007 -9.212036 -13.987747 -21.374512 -13.987747 -33.897614c0 -7.015564 0.8165436 -14.031128 2.0236053 -20.65329c0.39053345 -5.90094 3.19516 -11.441254 7.5618896 -15.8341675c1.8460999 -1.7047119 0.14202881 -4.065094 -1.9880981 -4.065094z" fill-rule="evenodd"/><path stroke="#ffffff" stroke-width="1.0" stroke-linejoin="round" stroke-linecap="butt" d="m262.37006 265.30246c-0.6390381 0 -1.34906 0.22949219 -1.9880981 0.7212219c-4.792755 4.4256897 -7.597412 9.966034 -8.3784485 16.22757c-1.59758 7.736786 -2.4141235 15.473572 -2.4141235 23.60376c-0.3905182 13.637726 5.1832733 27.275452 15.159302 37.569305c0.5680237 0.5245056 1.2070618 0.7212219 1.8106079 0.7212219c2.0946045 0 4.0472107 -2.4259338 2.2011108 -4.392914c-9.195007 -9.212036 -13.987747 -21.374512 -13.987747 -33.897614c0 -7.015564 0.8165436 -14.031128 2.0236053 -20.65329c0.39053345 -5.90094 3.19516 -11.441254 7.5618896 -15.8341675c1.8460999 -1.7047119 0.14202881 -4.065094 -1.9880981 -4.065094z" fill-rule="evenodd"/><path fill="#ffffff" d="m294.6763 375.02588c-0.24850464 0 -0.4970398 0.032806396 -0.7810364 0.098358154c-1.2070618 0.36062622 -1.9881287 1.835846 -1.5975952 3.3110962c4.0827026 9.408691 14.165253 15.342438 25.20633 15.342438c1.9526062 0 3.9407043 -0.19671631 5.928833 -0.5901184c2.6626282 -1.0490417 1.704071 -4.819092 -1.1715698 -4.819092c-0.14202881 0 -0.2840271 0 -0.4260254 0.03277588c-1.6330872 0.36062622 -3.2661743 0.52453613 -4.8992615 0.52453613c-8.307434 0 -16.15335 -4.5568237 -19.84555 -11.96579c-0.31951904 -1.2129822 -1.2070618 -1.9342041 -2.4141235 -1.9342041z" fill-rule="evenodd"/><path stroke="#ffffff" stroke-width="1.0" stroke-linejoin="round" stroke-linecap="butt" d="m294.6763 375.02588c-0.24850464 0 -0.4970398 0.032806396 -0.7810364 0.098358154c-1.2070618 0.36062622 -1.9881287 1.835846 -1.5975952 3.3110962c4.0827026 9.408691 14.165253 15.342438 25.20633 15.342438c1.9526062 0 3.9407043 -0.19671631 5.928833 -0.5901184c2.6626282 -1.0490417 1.704071 -4.819092 -1.1715698 -4.819092c-0.14202881 0 -0.2840271 0 -0.4260254 0.03277588c-1.6330872 0.36062622 -3.2661743 0.52453613 -4.8992615 0.52453613c-8.307434 0 -16.15335 -4.5568237 -19.84555 -11.96579c-0.31951904 -1.2129822 -1.2070618 -1.9342041 -2.4141235 -1.9342041z" fill-rule="evenodd"/><path fill="#ffffff" d="m390.35303 393.8431c-0.24850464 0 -0.46151733 0.03277588 -0.67453 0.098358154c-6.3548584 1.835846 -13.171204 2.917694 -19.526031 3.671692c-0.10650635 0 -0.2130127 -0.03277588 -0.2840271 -0.03277588c-2.840149 0 -2.840149 5.212494 0 5.212494c0.071014404 0 0.17752075 0 0.2840271 -0.032806396c7.171356 -0.7212219 13.95224 -2.1964417 20.733093 -4.0322876c1.5975647 -0.3934021 2.4141235 -1.8686218 1.9880981 -2.95047c-0.31951904 -1.245758 -1.4555664 -1.9342041 -2.52063 -1.9342041z" fill-rule="evenodd"/><path stroke="#ffffff" stroke-width="1.0" stroke-linejoin="round" stroke-linecap="butt" d="m390.35303 393.8431c-0.24850464 0 -0.46151733 0.03277588 -0.67453 0.098358154c-6.3548584 1.835846 -13.171204 2.917694 -19.526031 3.671692c-0.10650635 0 -0.2130127 -0.03277588 -0.2840271 -0.03277588c-2.840149 0 -2.840149 5.212494 0 5.212494c0.071014404 0 0.17752075 0 0.2840271 -0.032806396c7.171356 -0.7212219 13.95224 -2.1964417 20.733093 -4.0322876c1.5975647 -0.3934021 2.4141235 -1.8686218 1.9880981 -2.95047c-0.31951904 -1.245758 -1.4555664 -1.9342041 -2.52063 -1.9342041z" fill-rule="evenodd"/><path fill="#5b98a0" d="m494.40768 176.06816c-0.8875427 0 -1.8105774 0.26226807 -2.5561218 0.78678894c-0.24850464 -0.06556702 -0.53253174 -0.098342896 -0.7810364 -0.098342896c-1.1715698 0 -2.0591125 0.7212219 -2.3786316 1.9341888l-0.81655884 3.6717072c-0.39050293 0.7539978 -0.39050293 1.8686218 -0.39050293 2.9504547c0 1.114624 0.39050293 2.229248 1.2070618 3.311081c0.7810364 0.557312 1.7750854 0.8523712 2.7691345 0.8523712c0.9940491 0 1.9881287 -0.2950592 2.804657 -0.8523712c0.7810364 -1.0818329 1.5975952 -2.196457 1.9880981 -3.311081c0.81655884 -1.0818329 1.5975952 -2.196457 1.9880981 -3.311081c0.81655884 -1.835846 0 -3.671692 -1.1715393 -4.786316c-0.6390381 -0.78678894 -1.6330872 -1.1473999 -2.6626587 -1.1473999z" fill-rule="evenodd"/><path stroke="#5b98a0" stroke-width="1.0" stroke-linejoin="round" stroke-linecap="butt" d="m494.40768 176.06816c-0.8875427 0 -1.8105774 0.26226807 -2.5561218 0.78678894c-0.24850464 -0.06556702 -0.53253174 -0.098342896 -0.7810364 -0.098342896c-1.1715698 0 -2.0591125 0.7212219 -2.3786316 1.9341888l-0.81655884 3.6717072c-0.39050293 0.7539978 -0.39050293 1.8686218 -0.39050293 2.9504547c0 1.114624 0.39050293 2.229248 1.2070618 3.311081c0.7810364 0.557312 1.7750854 0.8523712 2.7691345 0.8523712c0.9940491 0 1.9881287 -0.2950592 2.804657 -0.8523712c0.7810364 -1.0818329 1.5975952 -2.196457 1.9880981 -3.311081c0.81655884 -1.0818329 1.5975952 -2.196457 1.9880981 -3.311081c0.81655884 -1.835846 0 -3.671692 -1.1715393 -4.786316c-0.6390381 -0.78678894 -1.6330872 -1.1473999 -2.6626587 -1.1473999z" fill-rule="evenodd"/><path fill="#5b98a0" d="m515.4245 178.33017c-1.5975342 0 -2.8046265 1.0818329 -2.8046265 2.5570679l0 5.90094c0 1.835846 0 3.7044678 0.8165283 5.540329c0.74554443 1.409668 2.2011108 2.2292328 3.6567383 2.2292328c0.8165283 0 1.5975342 -0.22947693 2.3076172 -0.75401306c1.5975342 -1.4752197 2.4141235 -3.7044678 1.9880981 -5.9009247c0 -2.1964722 -0.39056396 -4.786316 -0.7810669 -7.015564c-0.31951904 -0.8851471 -1.2070312 -1.5735779 -2.378601 -1.5735779c-0.24853516 0 -0.53253174 0.03277588 -0.8165283 0.098342896c-0.39056396 -0.7212219 -1.2070923 -1.0818329 -1.9881592 -1.0818329z" fill-rule="evenodd"/><path stroke="#5b98a0" stroke-width="1.0" stroke-linejoin="round" stroke-linecap="butt" d="m515.4245 178.33017c-1.5975342 0 -2.8046265 1.0818329 -2.8046265 2.5570679l0 5.90094c0 1.835846 0 3.7044678 0.8165283 5.540329c0.74554443 1.409668 2.2011108 2.2292328 3.6567383 2.2292328c0.8165283 0 1.5975342 -0.22947693 2.3076172 -0.75401306c1.5975342 -1.4752197 2.4141235 -3.7044678 1.9880981 -5.9009247c0 -2.1964722 -0.39056396 -4.786316 -0.7810669 -7.015564c-0.31951904 -0.8851471 -1.2070312 -1.5735779 -2.378601 -1.5735779c-0.24853516 0 -0.53253174 0.03277588 -0.8165283 0.098342896c-0.39056396 -0.7212219 -1.2070923 -1.0818329 -1.9881592 -1.0818329z" fill-rule="evenodd"/><path fill="#5b98a0" d="m503.32196 202.81683c-2.3757935 0 -4.846649 0.70162964 -6.8423157 2.1048737c-0.66522217 -0.17539978 -1.4254761 -0.2631073 -2.0906982 -0.2631073c-3.136078 0 -5.511902 1.9294739 -6.3671875 5.1744843l-2.18573 9.822769c-1.0453491 2.0171661 -1.0453491 4.9990845 -1.0453491 7.8932953c0 2.981903 1.0453491 5.9638214 3.231079 8.858017c2.0907288 1.4909515 4.7516174 2.2802887 7.4125366 2.2802887c2.6608887 0 5.321808 -0.78933716 7.507538 -2.2802887c2.0907288 -2.8941956 4.2764587 -5.876114 5.321808 -8.858017c2.1857605 -2.8942108 4.2764587 -5.876129 5.321808 -8.858032c2.18573 -4.911377 0 -9.822754 -3.1360474 -12.804672c-1.7106018 -2.1048737 -4.3714905 -3.0696106 -7.1274414 -3.0696106z" fill-rule="evenodd"/><path stroke="#5b98a0" stroke-width="1.0" stroke-linejoin="round" stroke-linecap="butt" d="m503.32196 202.81683c-2.3757935 0 -4.846649 0.70162964 -6.8423157 2.1048737c-0.66522217 -0.17539978 -1.4254761 -0.2631073 -2.0906982 -0.2631073c-3.136078 0 -5.511902 1.9294739 -6.3671875 5.1744843l-2.18573 9.822769c-1.0453491 2.0171661 -1.0453491 4.9990845 -1.0453491 7.8932953c0 2.981903 1.0453491 5.9638214 3.231079 8.858017c2.0907288 1.4909515 4.7516174 2.2802887 7.4125366 2.2802887c2.6608887 0 5.321808 -0.78933716 7.507538 -2.2802887c2.0907288 -2.8941956 4.2764587 -5.876114 5.321808 -8.858017c2.1857605 -2.8942108 4.2764587 -5.876129 5.321808 -8.858032c2.18573 -4.911377 0 -9.822754 -3.1360474 -12.804672c-1.7106018 -2.1048737 -4.3714905 -3.0696106 -7.1274414 -3.0696106z" fill-rule="evenodd"/></g></svg>