<svg version="1.1" viewBox="0.0 0.0 960.0 540.0" fill="none" stroke="none" stroke-linecap="square" stroke-miterlimit="10" xmlns:xlink="http://www.w3.org/1999/xlink" xmlns="http://www.w3.org/2000/svg"><clipPath id="p.0"><path d="m0 0l960.0 0l0 540.0l-960.0 0l0 -540.0z" clip-rule="nonzero"/></clipPath><g clip-path="url(#p.0)"><path fill="#ffffff" d="m0 0l960.0 0l0 540.0l-960.0 0z" fill-rule="evenodd"/><path fill="#ffffff" d="m386.79984 201.93105c-5.6205444 0 -11.0772705 2.7232513 -14.476227 7.591324c-1.4998474 -3.9517975 -5.835541 -6.4293365 -10.079102 -6.4293365c-1.0545044 0 -2.1038818 0.15356445 -3.1071777 0.47605896c-5.098419 1.5305481 -8.589508 6.884918 -8.671417 12.157379c0 2.6362305 0.76272583 5.190567 2.04245 7.4838257c1.6994629 3.0611115 3.9927368 5.6154327 7.4838257 6.5522003c-0.47607422 -0.12797546 -0.9367676 -0.1842804 -1.3821106 -0.1842804c-3.818695 0 -6.5982666 4.2742767 -6.444702 8.005951c-0.08187866 -1.6994781 -2.3802795 -3.654892 -3.6548767 -4.4227295c-1.7045898 -0.9367523 -3.572998 -1.6124573 -5.528412 -1.786499c-0.9162903 -0.10749817 -1.837677 -0.1638031 -2.7590942 -0.1638031c-4.013214 0 -7.9803467 1.0493774 -11.445862 3.0559845c-8.164642 4.847595 -12.6692505 14.030899 -11.481689 23.47525c-1.7250671 -1.187561 -3.6343994 -1.7250671 -5.4976807 -1.7250671c-4.837372 0 -9.403412 3.6139526 -9.894836 8.952972c-1.3053284 -0.70129395 -2.7437134 -1.0186768 -4.1974792 -1.0186768c-2.7898254 0 -5.6359253 1.1824646 -7.709076 3.1430054c-1.3565063 1.1927185 -2.4621887 2.7232666 -2.9740906 4.4227295c-1.9554138 5.9532776 1.3616333 12.843323 6.890045 15.648468c2.2011414 1.1159363 4.632599 1.643158 7.084564 1.643158c3.7009583 0 7.447998 -1.197815 10.519318 -3.3426208l0 0c-0.087005615 5.103546 5.4414062 8.415466 10.457916 9.096283c0.99819946 0.12283325 1.9912415 0.18426514 2.979187 0.18426514c7.26886 0 14.164001 -3.2504883 18.87851 -8.9427185c6.8234863 5.748535 15.325989 8.686768 23.874542 8.686768c6.2604065 0 12.546417 -1.5765991 18.223267 -4.7759094c4.4227295 -2.6362305 8.420593 -6.3781433 10.120056 -11.225739c1.6175842 -4.9295044 0.51190186 -10.969818 -3.6600037 -13.943878c3.1481323 -0.68081665 5.103546 -3.9978638 3.9978638 -7.05896l0 0c2.1089783 0.8548584 4.32547 1.2694702 6.5368347 1.2694702c4.3971252 0 8.748199 -1.643158 12.09082 -4.7554474c4.847595 -4.934616 6.3781433 -12.162506 3.9978638 -18.54065c-0.8548584 -2.1294556 -2.0424194 -4.0848846 -3.6600037 -5.6973267c-3.0610962 -3.1481323 -7.314911 -5.103546 -11.73764 -5.272476c2.4673157 -8.338684 -1.5305481 -17.097107 -9.265198 -20.839035c-2.4365845 -1.1619873 -5.0114136 -1.7199402 -7.5503845 -1.7199402z" fill-rule="evenodd"/><path fill="#f7941d" d="m344.7171 7.735209c-6.193268 22.701708 -29.532654 39.51604 -58.11911 42.27133c-1.2042542 0.07064819 -2.4371643 0.09419632 -3.6414185 0.09419632c-25.661865 0 -48.255783 -15.542664 -57.803726 -36.101364c-17.490204 32.804436 -56.54213 53.457336 -99.23546 53.457336c-2.6378632 0 -5.275734 -0.07064819 -7.942276 -0.23549652l0 0c6.19326 14.859734 4.300873 30.896935 -6.1932526 44.202393c-10.465454 12.528328 -27.640274 20.346764 -46.678802 20.747093c8.573074 8.595566 11.899078 19.946426 8.08564 30.520142c-3.326004 10.550171 -13.332703 19.169281 -25.719215 22.678162c17.146141 13.705795 26.694084 32.87509 25.719215 52.821503c-0.9461899 19.569626 -12.386513 37.961777 -30.966278 50.089767c20.01339 3.1085205 38.1344 12.504761 49.546043 26.587372c11.440323 14.082581 15.741196 31.697601 11.927757 48.912292c9.748642 -3.9092407 20.242767 -5.8638306 30.70823 -5.8638306c10.494125 0 20.95958 1.9545898 30.736893 5.8638306c19.038528 7.8184204 33.3461 22.301361 38.5645 39.51602c7.856247 -9.090088 20.615509 -14.88327 34.83705 -14.88327c0.45877075 0 0.91752625 0 1.3762817 0.02355957c14.307571 0.37677002 27.640274 7.0412903 35.725906 17.21466c12.300507 -15.472015 35.12381 -22.772339 57.717712 -22.772339c5.4477844 0 10.866882 0.42388916 16.113922 1.2481079c27.152863 4.3095703 50.979675 17.61502 73.831665 31.297272c-2.3798218 -14.859711 3.8134155 -29.743011 17.174805 -40.293182c11.2109375 -8.571991 25.891235 -13.281891 40.944305 -13.281891c3.4980469 0 6.9960938 0.23547363 10.494141 0.75357056c-10.006714 -4.30954 -14.766357 -13.30545 -11.440338 -21.901031c3.3260193 -7.512268 11.727051 -12.033783 20.75888 -12.033783c1.3189392 0 2.6665344 0.09420776 4.01416 0.28259277c-7.1394653 -18.76892 -4.300873 -39.115692 7.1394043 -56.330383c11.927795 -16.814316 31.453735 -28.565521 54.79315 -32.875076c-40.485535 -15.236511 -51.438416 -58.284973 -22.393188 -85.673035l0 0c-4.1575317 2.0723572 -8.745117 3.0849762 -13.246704 3.0849762c-7.3688354 0 -14.594299 -2.6846313 -19.612 -7.771332c-7.1681213 -8.218765 -6.1932373 -19.969955 2.3798218 -27.388046l0 0c-2.695221 0.3061447 -5.3904114 0.4709854 -8.085632 0.4709854c-20.500824 0 -39.96945 -9.066551 -50.520905 -23.94983c-11.899078 -17.615013 -9.519287 -39.139248 5.24704 -54.776108l0 0c-12.73056 7.064846 -27.525574 10.620819 -42.349243 10.620819c-9.03183 0 -18.092346 -1.3187714 -26.722748 -3.979866c-22.880646 -7.418087 -40.485535 -23.078497 -47.16623 -42.64812z" fill-rule="evenodd"/><path fill="#ffd600" d="m289.32053 68.491425c-58.63524 0 -117.18445 21.406487 -151.8208 60.92253c-21.418343 23.478836 -34.29229 51.644028 -37.15954 80.98668c-0.4587555 4.7099 -0.4587555 9.3962555 -0.4587555 14.482941c0.4587555 58.685333 40.944298 104.865875 108.61135 124.03516c28.672485 8.030365 59.954178 12.646088 91.0638 12.646088c37.016174 0 73.80298 -6.546753 105.65811 -21.641998c51.438416 -24.25595 86.70557 -67.30444 86.21814 -116.99385c-0.9461975 -30.896927 -12.845276 -61.040268 -35.238464 -86.07338c-17.146149 -19.946419 -40.026794 -35.98362 -66.23343 -47.334473c-5.2184143 -2.35495 -10.465454 -4.7099 -15.712524 -6.264168c-20.013397 -7.041298 -40.972992 -11.727646 -62.391327 -13.705803c-7.4835205 -0.70648193 -15.024384 -1.0597229 -22.53656 -1.0597229z" fill-rule="evenodd"/><path fill="#ffffff" d="m683.0507 105.46323c-31.48236 0 -62.04724 12.528328 -81.085754 34.92389c-8.401062 -18.180199 -32.686646 -29.578156 -56.456116 -29.578156c-5.906555 0 -11.784424 0.70648956 -17.404236 2.1901093c-28.55777 7.0412903 -48.112427 31.674057 -48.571167 55.93004c0 12.127975 4.2721863 23.87918 11.440308 34.42935c9.519287 14.082596 22.364563 25.833786 41.91919 30.143341c-2.666565 -0.5887451 -5.2470703 -0.8477783 -7.741577 -0.8477783c-21.389679 0 -36.95883 19.663818 -36.098663 36.83139c-0.45877075 -7.8184204 -13.332703 -16.814331 -20.472137 -20.346756c-9.547943 -4.309555 -20.013397 -7.418091 -30.966278 -8.218765c-5.1323853 -0.49453735 -10.2934265 -0.7535858 -15.454468 -0.7535858c-22.479248 0 -44.70041 4.8276367 -64.111694 14.059036c-45.732605 22.301361 -70.964386 64.549164 -64.31235 107.997955c-9.662628 -5.4634705 -20.357483 -7.936157 -30.79425 -7.936157c-27.095505 0 -52.671356 16.625916 -55.42392 41.18805c-7.3114777 -3.2262878 -15.368439 -4.686371 -23.511429 -4.686371c-15.626511 0 -31.568405 5.4399414 -43.180756 14.459412c-7.5982056 5.48703 -13.791466 12.52832 -16.658714 20.34674c-10.9528885 27.388062 7.6268845 59.085663 38.593163 71.99078c12.329163 5.133789 25.948593 7.559387 39.68271 7.559387c20.73021 0 41.71846 -5.510559 58.92195 -15.377808l0 0c-0.48742676 23.47882 30.478851 38.715332 58.57788 41.847412c5.5911255 0.5652466 11.153595 0.84783936 16.687378 0.84783936c40.714935 0 79.33676 -14.9539795 105.74411 -41.14099c38.22043 26.446106 85.8454 39.9635 133.72845 39.9635c35.066467 0 70.276245 -7.253235 102.074036 -21.97168c24.77301 -12.127991 47.16626 -29.342682 56.685486 -51.644043c9.060486 -22.678162 2.8672485 -50.466553 -20.500793 -64.1488c17.633545 -3.13208 28.586426 -18.39215 22.393188 -32.47473l0 0c11.813049 3.9327698 24.228271 5.840271 36.614746 5.840271c24.6297 0 49.00128 -7.559387 67.72443 -21.877472c27.152832 -22.701721 35.72589 -55.953583 22.393188 -85.296265c-4.788269 -9.796585 -11.440308 -18.79248 -20.500793 -26.210571c-17.14618 -14.482941 -40.973022 -23.478836 -65.74603 -24.255981c13.820129 -38.362106 -8.573059 -78.65529 -51.897156 -95.869965c-13.648132 -5.3457336 -28.070374 -7.912628 -42.29193 -7.912628z" fill-rule="evenodd"/><path fill="#5b98a0" d="m488.58627 277.70004c14.2789 29.743011 -2.8672485 63.772003 -38.59314 76.677124c3.3259888 3.9092102 4.2721863 8.995911 2.838562 14.082611c-1.892395 4.7099 -6.1645813 9.01944 -11.899078 10.97406c1.5196533 0.35324097 3.0966187 0.5180664 4.6736145 0.5180664c5.333069 0 10.694824 -1.9781494 14.393585 -5.604767c4.7596436 -4.3095703 6.193268 -10.97406 3.3260193 -16.43753c7.139435 -1.1774902 13.332703 -4.3095703 18.092316 -8.61911c10.494141 -9.372711 17.146149 -21.500702 18.121002 -34.42935c1.4049683 -13.305481 -2.3797913 -26.210602 -10.952881 -37.161102z" fill-rule="evenodd"/><path fill="#5b98a0" d="m597.16565 155.62244l0 0c-13.791504 25.433441 7.168091 54.399307 40.97296 55.953583c-2.838562 7.84198 0.48742676 16.0372 7.626892 21.123886c4.673584 2.9436798 10.121399 4.4508514 15.540466 4.4508514c3.9854736 0 7.9709473 -0.824234 11.612366 -2.4962463l0 0c-1.2042236 0.16485596 -2.3798218 0.25904846 -3.5840454 0.25904846c-7.4262085 0 -14.766357 -3.0849762 -19.267944 -8.454269c-4.788269 -6.26416 -5.2470703 -14.10614 -0.48742676 -20.7471c-15.253723 -0.4003296 -29.532654 -5.8638153 -40.026794 -15.260071c-9.519226 -9.7730255 -14.27887 -22.301361 -12.386475 -34.82968z" fill-rule="evenodd"/><path fill="#3f9cac" d="m251.86157 209.95718c-1.8618164 0.20802307 -3.5969849 1.1806183 -4.190033 2.9155884c-4.3568115 19.899353 7.3437653 39.84015 29.384918 48.613373c7.5638733 2.325409 15.3974 3.0075989 22.911133 2.1680908c14.562012 -1.6270447 27.775269 -8.943832 34.939575 -20.479614c5.1871033 -9.979919 6.3520813 -21.346008 3.1615295 -31.613586c-0.8060303 -2.4129944 -3.6072998 -3.3793335 -6.001068 -3.1118774c-2.3272705 0.26002502 -4.1805115 1.7464294 -2.975525 4.114853c5.2846985 18.822083 -6.12088 40.73271 -30.922852 43.50389c-0.7314148 0.081726074 -1.4628601 0.16345215 -2.2033386 0.19055176c-26.397308 1.725708 -42.64467 -22.768814 -38.910736 -41.93109c0.83236694 -3.1522827 -2.2678986 -4.6970825 -5.1936035 -4.370178z" fill-rule="evenodd"/><path fill="#3f9cac" d="m267.6005 151.23972c-1.5293274 0.17086792 -2.8836365 0.9896698 -3.1500854 2.243164c-1.5461731 4.5670013 -2.3034668 8.990234 -0.8574524 13.222916c-0.22485352 3.14003 1.64505 5.4341583 4.2133484 7.038391c1.6288452 0.42985535 3.145996 0.5940857 4.542328 0.43806458c1.3963623 -0.15600586 2.6719666 -0.63227844 3.7028503 -1.359314c3.9484863 -3.556076 6.325592 -7.604065 5.5114746 -12.519211c-0.016174316 -5.0042877 -5.243286 -8.758881 -11.336212 -8.74559c-0.8703003 -0.3477478 -1.7618408 -0.41500854 -2.6262512 -0.3184204z" fill-rule="evenodd"/><path fill="#3d6d70" d="m312.70654 164.33334l0 0l0 0c0 0 0 0 0 0z" fill-rule="evenodd"/><path stroke="#3d6d70" stroke-width="1.0" stroke-linejoin="round" stroke-linecap="butt" d="m312.70654 164.33334l0 0l0 0c0 0 0 0 0 0z" fill-rule="evenodd"/><path fill="#3f9cac" d="m306.4904 150.70882c-1.5293579 0.17086792 -2.883667 0.9896698 -3.150116 2.2431488c-1.5461731 4.5670013 -2.3034668 8.99025 -0.8574219 13.222916c-0.22488403 3.1400452 1.6450195 5.4341583 4.2133484 7.038391c1.6288452 0.4298706 3.1459656 0.59410095 4.542328 0.43807983c1.3963623 -0.15602112 2.671936 -0.63227844 3.7028198 -1.359314c3.9485168 -3.5560913 6.325592 -7.604065 5.511505 -12.519211c-0.016204834 -5.004303 -5.243286 -8.758896 -11.336243 -8.74559c-0.8702698 -0.3477478 -1.7618103 -0.41500854 -2.6262207 -0.3184204z" fill-rule="evenodd"/></g></svg>