<svg version="1.1" viewBox="0.0 0.0 960.0 540.0" fill="none" stroke="none" stroke-linecap="square" stroke-miterlimit="10" xmlns:xlink="http://www.w3.org/1999/xlink" xmlns="http://www.w3.org/2000/svg"><clipPath id="p.0"><path d="m0 0l960.0 0l0 540.0l-960.0 0l0 -540.0z" clip-rule="nonzero"/></clipPath><g clip-path="url(#p.0)"><path fill="#ffffff" d="m0 0l960.0 0l0 540.0l-960.0 0z" fill-rule="evenodd"/><path fill="#ffffff" d="m386.79984 201.93105c-5.6205444 0 -11.0772705 2.7232513 -14.476227 7.591324c-1.4998474 -3.9517975 -5.835541 -6.4293365 -10.079102 -6.4293365c-1.0545044 0 -2.1038818 0.15356445 -3.1071777 0.47605896c-5.098419 1.5305481 -8.589508 6.884918 -8.671417 12.157379c0 2.6362305 0.76272583 5.190567 2.04245 7.4838257c1.6994629 3.0611115 3.9927368 5.6154327 7.4838257 6.5522003c-0.47607422 -0.12797546 -0.9367676 -0.1842804 -1.3821106 -0.1842804c-3.818695 0 -6.5982666 4.2742767 -6.444702 8.005951c-0.08187866 -1.6994781 -2.3802795 -3.654892 -3.6548767 -4.4227295c-1.7045898 -0.9367523 -3.572998 -1.6124573 -5.528412 -1.786499c-0.9162903 -0.10749817 -1.837677 -0.1638031 -2.7590942 -0.1638031c-4.013214 0 -7.9803467 1.0493774 -11.445862 3.0559845c-8.164642 4.847595 -12.6692505 14.030899 -11.481689 23.47525c-1.7250671 -1.187561 -3.6343994 -1.7250671 -5.4976807 -1.7250671c-4.837372 0 -9.403412 3.6139526 -9.894836 8.952972c-1.3053284 -0.70129395 -2.7437134 -1.0186768 -4.1974792 -1.0186768c-2.7898254 0 -5.6359253 1.1824646 -7.709076 3.1430054c-1.3565063 1.1927185 -2.4621887 2.7232666 -2.9740906 4.4227295c-1.9554138 5.9532776 1.3616333 12.843323 6.890045 15.648468c2.2011414 1.1159363 4.632599 1.643158 7.084564 1.643158c3.7009583 0 7.447998 -1.197815 10.519318 -3.3426208l0 0c-0.087005615 5.103546 5.4414062 8.415466 10.457916 9.096283c0.99819946 0.12283325 1.9912415 0.18426514 2.979187 0.18426514c7.26886 0 14.164001 -3.2504883 18.87851 -8.9427185c6.8234863 5.748535 15.325989 8.686768 23.874542 8.686768c6.2604065 0 12.546417 -1.5765991 18.223267 -4.7759094c4.4227295 -2.6362305 8.420593 -6.3781433 10.120056 -11.225739c1.6175842 -4.9295044 0.51190186 -10.969818 -3.6600037 -13.943878c3.1481323 -0.68081665 5.103546 -3.9978638 3.9978638 -7.05896l0 0c2.1089783 0.8548584 4.32547 1.2694702 6.5368347 1.2694702c4.3971252 0 8.748199 -1.643158 12.09082 -4.7554474c4.847595 -4.934616 6.3781433 -12.162506 3.9978638 -18.54065c-0.8548584 -2.1294556 -2.0424194 -4.0848846 -3.6600037 -5.6973267c-3.0610962 -3.1481323 -7.314911 -5.103546 -11.73764 -5.272476c2.4673157 -8.338684 -1.5305481 -17.097107 -9.265198 -20.839035c-2.4365845 -1.1619873 -5.0114136 -1.7199402 -7.5503845 -1.7199402z" fill-rule="evenodd"/><path fill="#ffd600" d="m451.87018 280.5749l-13.718231 98.74881l43.350494 3.151764l-29.980103 81.053375l29.980103 5.6959534l-16.261871 64.345276l0 0l67.17807 -79.819275l-39.37201 -9.132507l60.677673 -82.34448l-32.132446 -7.252838l23.479736 -59.29483l-93.201416 -15.151245z" fill-rule="evenodd"/><path fill="#ffd600" d="m365.56052 282.79633l-34.676056 84.85068l29.610535 14.182922l-42.980896 94.00217l91.74478 -96.50839l-30.3497 -23.353394l43.720093 -52.042023l-57.068756 -21.131958z" fill-rule="evenodd"/><path fill="#ffd600" d="m599.96625 320.33264l-41.176453 11.031158l24.914612 58.668274l23.131836 -4.101074l25.28418 66.889435l-0.7391968 -87.07208l-28.175598 -0.6265564l-3.23938 -44.789154z" fill-rule="evenodd"/><path fill="#9ad7df" d="m506.91705 4.928838c-3.782837 0 -7.565674 0.18986511 -11.326782 0.58858156c-50.22049 5.373181 -91.74478 46.687813 -91.74478 90.85042c-4.195923 -6.056694 -10.478912 -8.619873 -16.718414 -8.619873c-12.631226 0 -25.088501 10.461563 -19.762085 23.752121c-15.761841 -10.955215 -35.28479 -16.765083 -55.351257 -16.765083c-4.782898 0 -9.565796 0.3417511 -14.370422 1.006279c-24.197144 4.1010895 -46.22026 20.182655 -52.00322 41.31463c-6.1525574 20.828201 5.782959 45.434708 28.523483 54.263428c-10.218018 -3.9302063 -21.001282 -5.8478394 -31.697586 -5.8478394c-16.848877 0 -33.48033 4.7845917 -47.394226 14.050018c-7.587433 5.354187 -14.08783 11.980484 -18.783768 19.233322c-24.914581 37.53633 -3.261078 85.47725 44.41577 97.7805c7.326538 1.9555969 14.913971 2.8669434 22.544876 2.8669434c19.43599 0 39.13286 -5.8668213 55.481674 -15.170197c6.78302 7.423706 16.935822 11.353912 27.240814 11.353912c7.239563 0 14.544373 -1.9555969 20.805634 -5.9807434l0 0c-2.5436401 25.85962 16.95755 49.83957 46.220245 56.143097c4.782898 0.9873047 9.609283 1.4619446 14.348694 1.4619446c24.240631 0 46.850708 -12.379181 56.80786 -32.694763c5.782959 9.778076 17.696747 15.7778015 30.3497 15.7778015c12.631195 0 23.827545 -5.9997253 29.980072 -15.7778015l0 0c-2.5436401 4.4238586 11.19635 16.100555 14.08783 18.303009c21.240479 16.461304 49.959595 22.138245 77.52655 22.138245c1.4783325 0 2.9784546 -0.018981934 4.456787 -0.0569458c27.45819 -0.6265564 57.416565 -5.354187 79.83099 -20.182648c27.088623 -18.303009 39.00244 -48.586456 38.632812 -77.92062c0 -11.031158 -4.326355 -30.283463 -15.892273 -37.21353l0 0c3.8045654 1.9555969 7.9570312 2.8669586 12.0442505 2.8669586c9.109253 0 17.914124 -4.594742 21.914368 -12.64502c3.2393188 -10.100815 -2.5219116 -21.131973 -14.08783 -25.233063l0 0c5.7612305 0.9873047 11.631165 1.499939 17.501099 1.499939c25.414612 0 50.807434 -9.322372 66.65625 -26.751984c16.97931 -19.556091 19.50122 -46.365036 6.5004272 -68.44634c-2.1740723 -3.7783127 -5.413391 -7.575615 -9.022339 -10.727379c-14.326965 -13.461426 -35.58911 -19.783936 -56.894775 -19.783936c-6.6308594 0 -13.261719 0.60756683 -19.67511 1.8037186c-27.088623 4.746628 -51.307556 17.980217 -72.96106 33.131447c-0.73913574 -13.252579 -8.674438 -25.555832 -21.327393 -32.808678c-9.370117 -5.392166 -21.5448 -10.062843 -32.784607 -10.062843c-3.9350586 0 -7.739624 0.5506058 -11.283325 1.8606796c-11.0224 -39.681793 -56.32953 -69.3577 -102.78894 -69.3577z" fill-rule="evenodd"/><path fill="#ffffff" d="m405.64996 103.29791c0 27.359543 25.523285 48.548492 55.15555 48.548492c4.543762 0 9.1744995 -0.49365234 13.826965 -1.5379181c4.8916016 7.2528534 13.56604 11.107117 22.370941 11.107117c6.1307983 0 12.326843 -1.8606873 17.348877 -5.7529144l0 0c-1.3696289 0.18986511 -2.7392883 0.28479004 -4.0871887 0.28479004c-5.8264465 0 -11.522461 -1.6328278 -16.501038 -4.6896667c-6.1307983 -3.4745178 -10.109314 -8.82872 -11.913757 -14.828461c-5.478607 1.4429779 -11.174622 2.1454773 -16.848877 2.1454773c-9.283173 0 -18.566376 -1.8986511 -26.849487 -5.619995c-13.370392 -5.980751 -27.458221 -17.0309 -32.501984 -29.656921z" fill-rule="evenodd"/><path fill="#ffffff" d="m674.3622 121.6009l0 0c-3.6089478 4.1010895 -5.413391 9.151497 -4.326355 14.505684c0.36956787 2.5252075 1.4348755 5.050415 3.6088867 7.2528534c2.1740723 1.8986511 5.0655518 3.1707458 7.9570312 3.7973022c2.2392578 0.64553833 4.5654907 0.9872894 6.8482666 0.9872894c3.1958008 0 6.3046875 -0.64553833 9.044006 -1.936615c-14.08783 -1.575882 -24.218872 -12.626022 -23.131836 -24.606514z" fill-rule="evenodd"/><path fill="#ffffff" d="m400.954 131.07516c-4.087219 10.974197 -15.848816 18.13211 -28.84961 18.13211c-1.913147 0 -3.869812 -0.15188599 -5.8264465 -0.47465515l0 0c0.71743774 3.1517487 0 6.6262817 -2.1740417 9.151489c-2.521881 2.8289948 -6.1307983 4.4048615 -10.109314 5.050415c1.3479004 0.3417511 2.8045044 0.5316162 4.304596 0.5316162c2.5001526 0 5.130768 -0.49365234 7.609192 -1.4809418c3.6089172 -1.2720947 6.5003967 -4.1010895 8.30484 -7.2528534c1.2609558 0.17088318 2.5001526 0.24682617 3.7176208 0.24682617c14.240021 0 25.675507 -11.410889 23.023163 -23.904007z" fill-rule="evenodd"/><path fill="#ffffff" d="m563.3511 249.04048c-1.4116821 0.16770935 -2.727356 0.9518585 -3.177002 2.3506622c-3.3035278 16.04361 5.5682983 32.120667 22.28064 39.19397c5.7351685 1.8748474 11.674805 2.4248657 17.37201 1.7479858c11.041443 -1.3117676 21.06018 -7.210846 26.49237 -16.511444c3.9330444 -8.046204 4.8164062 -17.20996 2.3972168 -25.488083c-0.611145 -1.9454498 -2.7351685 -2.7245636 -4.550232 -2.5089264c-1.7645874 0.20965576 -3.1697998 1.4080505 -2.2561646 3.3175507c4.00708 15.175095 -4.6410522 32.840286 -23.446777 35.07451c-0.5545654 0.06588745 -1.1091309 0.1317749 -1.6705933 0.15362549c-20.01538 1.3913574 -32.334717 -18.357086 -29.503479 -33.806442c0.6311035 -2.5414886 -1.7196045 -3.7869568 -3.9379883 -3.523407z" fill-rule="evenodd"/><path fill="#ffffff" d="m575.28485 201.7002c-1.1596069 0.1377716 -2.1864624 0.7979126 -2.3884888 1.8085327c-1.1723633 3.6820831 -1.746582 7.2482758 -0.6501465 10.660812c-0.17047119 2.5316162 1.2473145 4.381241 3.1947021 5.6746216c1.2350464 0.34657288 2.385376 0.47898865 3.4441528 0.3531952c1.0587769 -0.1257782 2.026001 -0.5097656 2.8076172 -1.095932c2.9938965 -2.8670502 4.7962646 -6.1306915 4.179016 -10.093475c-0.012268066 -4.0346527 -3.975647 -7.061737 -8.59552 -7.0510254c-0.6598511 -0.280365 -1.3358765 -0.33459473 -1.991333 -0.25672913z" fill-rule="evenodd"/><path fill="#ffffff" d="m609.48584 212.25679l0 0l0 0c0 0 0 0 0 0z" fill-rule="evenodd"/><path stroke="#3d6d70" stroke-width="1.0" stroke-linejoin="round" stroke-linecap="butt" d="m609.48584 212.25679l0 0l0 0c0 0 0 0 0 0z" fill-rule="evenodd"/><path fill="#ffffff" d="m604.7725 201.27217c-1.1596069 0.13775635 -2.1864624 0.7979126 -2.3884888 1.8085175c-1.1723633 3.6820831 -1.746582 7.2482758 -0.6501465 10.660828c-0.17053223 2.5316162 1.2473145 4.3812256 3.1947021 5.6746216c1.2350464 0.34657288 2.385376 0.4789734 3.4441528 0.3531952c1.0587769 -0.12579346 2.02594 -0.5097809 2.8076172 -1.0959473c2.9938965 -2.8670502 4.7962646 -6.1306915 4.179016 -10.09346c-0.012268066 -4.0346527 -3.975647 -7.0617523 -8.59552 -7.0510406c-0.6599121 -0.280365 -1.3358765 -0.33459473 -1.991333 -0.25671387z" fill-rule="evenodd"/></g></svg>