<svg version="1.1" viewBox="0.0 0.0 960.0 540.0" fill="none" stroke="none" stroke-linecap="square" stroke-miterlimit="10" xmlns:xlink="http://www.w3.org/1999/xlink" xmlns="http://www.w3.org/2000/svg"><clipPath id="p.0"><path d="m0 0l960.0 0l0 540.0l-960.0 0l0 -540.0z" clip-rule="nonzero"/></clipPath><g clip-path="url(#p.0)"><path fill="#ffffff" d="m0 0l960.0 0l0 540.0l-960.0 0z" fill-rule="evenodd"/><path fill="#caebed" d="m370.7095 16.636269c-13.143372 0 -27.67694 3.5461178 -43.474274 11.820393c-42.168396 21.562023 -67.73901 64.15619 -66.30673 109.9704c0 0 -24.68599 -13.002434 -54.342865 -13.002434c-30.288773 0 -65.75908 13.573067 -85.389915 68.47675c-38.8404 108.58455 56.828316 127.82326 56.828316 127.82326c0 0 -51.60466 151.21948 75.32173 192.02023c20.852509 6.7661133 40.188446 9.619324 58.007843 9.619324c90.61359 0 140.91232 -73.32718 140.91232 -73.32718c0 0 27.592712 53.80316 96.67975 53.80316c8.2146 0 17.018982 -0.7744446 26.455322 -2.4863586c88.08594 -16.018677 80.503235 -106.302 80.503235 -106.302l0 0c0 0 44.86444 25.108154 89.22339 25.108154c31.889587 0 63.484253 -12.96167 77.97571 -57.634613c35.049072 -106.79111 -53.0791 -143.88269 -53.0791 -143.88269c0 0 75.32178 -92.56588 -27.466309 -165.4447c-22.621765 -15.977905 -43.474304 -22.214182 -62.22046 -22.214182c-66.72797 0 -106.83215 79.03358 -106.83215 79.03358c-2.3590698 -30.692253 -27.00293 -55.881916 -59.187378 -58.653595c-3.8335266 -0.44835663 -7.45636 -0.65215683 -10.868591 -0.65215683c-47.139282 0 -54.974762 41.452885 -54.974762 41.452885c-2.9488525 -31.792774 -31.510437 -75.52822 -77.765076 -75.52822z" fill-rule="evenodd"/><path fill="#ffffff" d="m214.29402 143.72444c-28.056091 0 -53.710983 15.203476 -66.0961 39.6187c-0.9689026 2.5271149 1.2216644 4.646637 3.2858582 4.646637c0.9267731 0 1.8114166 -0.44836426 2.401184 -1.4266052c10.868576 -22.336456 34.206528 -36.520935 59.608658 -36.520935c2.2326813 0 4.465378 0.08152771 6.6980743 0.32608032c0.12637329 0 0.25274658 0 0.37913513 0c3.4122162 0 3.285843 -5.9917145 -0.37913513 -6.4400787c-1.9799347 -0.12226868 -3.9177399 -0.20379639 -5.8976746 -0.20379639z" fill-rule="evenodd"/><path stroke="#ffffff" stroke-width="1.0" stroke-linejoin="round" stroke-linecap="butt" d="m214.29402 143.72444c-28.056091 0 -53.710983 15.203476 -66.0961 39.6187c-0.9689026 2.5271149 1.2216644 4.646637 3.2858582 4.646637c0.9267731 0 1.8114166 -0.44836426 2.401184 -1.4266052c10.868576 -22.336456 34.206528 -36.520935 59.608658 -36.520935c2.2326813 0 4.465378 0.08152771 6.6980743 0.32608032c0.12637329 0 0.25274658 0 0.37913513 0c3.4122162 0 3.285843 -5.9917145 -0.37913513 -6.4400787c-1.9799347 -0.12226868 -3.9177399 -0.20379639 -5.8976746 -0.20379639z" fill-rule="evenodd"/><path fill="#ffffff" d="m243.40222 147.14824c-1.8956757 0 -3.3279724 1.385849 -3.3279724 3.220047c0 1.834198 1.4322968 3.1792755 3.3279724 3.1792755l3.7913666 0c1.4322968 0 2.822464 0.48912048 4.7181396 0.9374695l0.9689026 0.44836426l0.46339417 0.44836426c0.4633789 0 1.4322815 0.48912048 1.8956757 0.9374695c0.9267731 0 1.4322968 0.44836426 1.8956757 0.8967285l0.92678833 0.9374695c0 0 0.631897 0.20381165 0.92678833 0.20381165c0.084228516 0 0.12637329 -0.040771484 0.12637329 -0.08152771l0 0c0.4633789 0.6114044 1.1373901 0.8967285 1.8535461 0.8967285c0.75827026 0 1.6007996 -0.32608032 2.3169556 -1.0190125c0.9689026 -0.9374695 0.9689026 -2.7716675 0 -3.668396c-5.687042 -4.6058655 -12.8063965 -6.8884277 -19.883606 -7.336792z" fill-rule="evenodd"/><path stroke="#ffffff" stroke-width="1.0" stroke-linejoin="round" stroke-linecap="butt" d="m243.40222 147.14824c-1.8956757 0 -3.3279724 1.385849 -3.3279724 3.220047c0 1.834198 1.4322968 3.1792755 3.3279724 3.1792755l3.7913666 0c1.4322968 0 2.822464 0.48912048 4.7181396 0.9374695l0.9689026 0.44836426l0.46339417 0.44836426c0.4633789 0 1.4322815 0.48912048 1.8956757 0.9374695c0.9267731 0 1.4322968 0.44836426 1.8956757 0.8967285l0.92678833 0.9374695c0 0 0.631897 0.20381165 0.92678833 0.20381165c0.084228516 0 0.12637329 -0.040771484 0.12637329 -0.08152771l0 0c0.4633789 0.6114044 1.1373901 0.8967285 1.8535461 0.8967285c0.75827026 0 1.6007996 -0.32608032 2.3169556 -1.0190125c0.9689026 -0.9374695 0.9689026 -2.7716675 0 -3.668396c-5.687042 -4.6058655 -12.8063965 -6.8884277 -19.883606 -7.336792z" fill-rule="evenodd"/><path fill="#ffffff" d="m137.41386 210.65157c-0.8003998 0 -1.6850433 0.32608032 -2.485443 1.1005249c-11.374092 10.108475 -9.941795 26.127136 -8.509506 39.86325c-0.2527542 1.834198 1.4322968 2.7716827 3.0752106 2.7716827c1.6429291 0 3.3279877 -0.93748474 3.0752258 -2.7716827c-1.4322968 -11.9019165 -2.822464 -26.5755 7.119339 -35.74649c2.1484375 -2.0787659 0.21063232 -5.217285 -2.274826 -5.217285z" fill-rule="evenodd"/><path stroke="#ffffff" stroke-width="1.0" stroke-linejoin="round" stroke-linecap="butt" d="m137.41386 210.65157c-0.8003998 0 -1.6850433 0.32608032 -2.485443 1.1005249c-11.374092 10.108475 -9.941795 26.127136 -8.509506 39.86325c-0.2527542 1.834198 1.4322968 2.7716827 3.0752106 2.7716827c1.6429291 0 3.3279877 -0.93748474 3.0752258 -2.7716827c-1.4322968 -11.9019165 -2.822464 -26.5755 7.119339 -35.74649c2.1484375 -2.0787659 0.21063232 -5.217285 -2.274826 -5.217285z" fill-rule="evenodd"/><path fill="#ffffff" d="m341.26105 52.667683c-0.25274658 0 -0.50549316 0 -0.75827026 0.08152008c-31.763184 11.453548 -54.974762 38.477413 -59.229492 71.04463c-0.21063232 2.0379944 1.1795349 3.0977554 2.7381897 3.0977554c1.5165405 0 3.2015991 -1.059761 3.4122314 -3.0977554c4.296875 -29.79554 25.570648 -54.536842 54.46924 -65.09367c3.9598694 -0.85595703 2.611847 -6.0324745 -0.631897 -6.0324745z" fill-rule="evenodd"/><path stroke="#ffffff" stroke-width="1.0" stroke-linejoin="round" stroke-linecap="butt" d="m341.26105 52.667683c-0.25274658 0 -0.50549316 0 -0.75827026 0.08152008c-31.763184 11.453548 -54.974762 38.477413 -59.229492 71.04463c-0.21063232 2.0379944 1.1795349 3.0977554 2.7381897 3.0977554c1.5165405 0 3.2015991 -1.059761 3.4122314 -3.0977554c4.296875 -29.79554 25.570648 -54.536842 54.46924 -65.09367c3.9598694 -0.85595703 2.611847 -6.0324745 -0.631897 -6.0324745z" fill-rule="evenodd"/><path fill="#ffffff" d="m380.90082 43.45603c-1.0110168 0 -1.9799194 0.04076004 -2.9909668 0.12228012c-0.25274658 -0.04076004 -0.4633789 -0.08152008 -0.631897 -0.08152008c-3.0751953 0 -2.948822 6.0732346 0.29489136 6.0732346c0.08425903 0 0.21063232 0 0.33700562 -0.04076004c1.1795349 -0.08152008 2.3169556 -0.16304016 3.4543762 -0.16304016c3.412201 0 6.6138 0.5298805 9.773285 1.5488777c1.8956604 0.44836044 4.296875 0.9374809 6.192566 1.3858414c0.4633789 0.44836044 0.9267578 0.44836044 1.3901672 0.8967171c-0.08425903 -0.08152008 -0.08425903 -0.12228012 -0.08425903 -0.12228012c0.08425903 0 0.50549316 0.28532028 0.42126465 0.28532028c-0.042144775 0 -0.12640381 -0.04076004 -0.33700562 -0.16304016l0 0c0 2.0787582 1.5586548 3.0977592 3.0751953 3.0977592c1.5586853 0 3.11734 -1.019001 3.11734 -3.0977592c0.46340942 -5.0134735 -5.687042 -6.399315 -9.983917 -7.7851524c-4.675995 -1.1412811 -9.35202 -1.9564781 -14.028046 -1.9564781z" fill-rule="evenodd"/><path stroke="#ffffff" stroke-width="1.0" stroke-linejoin="round" stroke-linecap="butt" d="m380.90082 43.45603c-1.0110168 0 -1.9799194 0.04076004 -2.9909668 0.12228012c-0.25274658 -0.04076004 -0.4633789 -0.08152008 -0.631897 -0.08152008c-3.0751953 0 -2.948822 6.0732346 0.29489136 6.0732346c0.08425903 0 0.21063232 0 0.33700562 -0.04076004c1.1795349 -0.08152008 2.3169556 -0.16304016 3.4543762 -0.16304016c3.412201 0 6.6138 0.5298805 9.773285 1.5488777c1.8956604 0.44836044 4.296875 0.9374809 6.192566 1.3858414c0.4633789 0.44836044 0.9267578 0.44836044 1.3901672 0.8967171c-0.08425903 -0.08152008 -0.08425903 -0.12228012 -0.08425903 -0.12228012c0.08425903 0 0.50549316 0.28532028 0.42126465 0.28532028c-0.042144775 0 -0.12640381 -0.04076004 -0.33700562 -0.16304016l0 0c0 2.0787582 1.5586548 3.0977592 3.0751953 3.0977592c1.5586853 0 3.11734 -1.019001 3.11734 -3.0977592c0.46340942 -5.0134735 -5.687042 -6.399315 -9.983917 -7.7851524c-4.675995 -1.1412811 -9.35202 -1.9564781 -14.028046 -1.9564781z" fill-rule="evenodd"/><path fill="#ffffff" d="m503.1502 68.3601c-6.6138306 0 -13.016998 1.9564743 -18.198547 5.9101944c-7.1193237 4.605873 -13.269745 11.005188 -18.493408 17.893623c-2.485443 2.0787582 -0.16851807 5.421074 2.316925 5.421074c0.8425293 0 1.7272034 -0.36683655 2.4012146 -1.3043137c7.7091064 -9.497078 18.114288 -22.010384 31.552551 -22.010384c1.432312 0 2.9488525 0.16304016 4.465393 0.48912048c0.25274658 0.040756226 0.5055237 0.08152008 0.75827026 0.08152008c3.2437134 0 4.6338806 -5.2172775 0.67401123 -6.0324783c-1.8535461 -0.32608032 -3.664978 -0.44835663 -5.47641 -0.44835663z" fill-rule="evenodd"/><path stroke="#ffffff" stroke-width="1.0" stroke-linejoin="round" stroke-linecap="butt" d="m503.1502 68.3601c-6.6138306 0 -13.016998 1.9564743 -18.198547 5.9101944c-7.1193237 4.605873 -13.269745 11.005188 -18.493408 17.893623c-2.485443 2.0787582 -0.16851807 5.421074 2.316925 5.421074c0.8425293 0 1.7272034 -0.36683655 2.4012146 -1.3043137c7.7091064 -9.497078 18.114288 -22.010384 31.552551 -22.010384c1.432312 0 2.9488525 0.16304016 4.465393 0.48912048c0.25274658 0.040756226 0.5055237 0.08152008 0.75827026 0.08152008c3.2437134 0 4.6338806 -5.2172775 0.67401123 -6.0324783c-1.8535461 -0.32608032 -3.664978 -0.44835663 -5.47641 -0.44835663z" fill-rule="evenodd"/><path fill="#ffffff" d="m536.4292 75.0039c-0.25274658 0 -0.54766846 0.08152008 -0.8425293 0.20379639c-0.4633789 0 -1.3901978 0.8967209 -1.8956909 1.3858414c-0.4633789 1.3450775 0 3.1792755 1.432312 4.1167603c0.9688721 0.44835663 2.3590698 0.89671326 3.327942 1.834198l1.8956909 0.89671326l0.9267578 0.48912048c0.9689331 0.8967209 1.8956909 1.834198 2.864624 2.730919l0.4633789 0.8967209c0.4633789 0.48912048 0.9688721 1.3858414 0.9688721 1.834198c0.5897827 0.8967209 1.6008301 1.4265976 2.7382202 1.4265976c0.631897 0 1.3059082 -0.16304016 1.9799194 -0.48912048c1.432312 -0.44835663 1.8956909 -2.2825546 1.432312 -3.668396c-3.327942 -5.0542374 -8.046082 -8.722633 -13.269775 -11.005188c-0.67401123 -0.32608032 -1.3480225 -0.65216064 -2.0220337 -0.65216064z" fill-rule="evenodd"/><path stroke="#ffffff" stroke-width="1.0" stroke-linejoin="round" stroke-linecap="butt" d="m536.4292 75.0039c-0.25274658 0 -0.54766846 0.08152008 -0.8425293 0.20379639c-0.4633789 0 -1.3901978 0.8967209 -1.8956909 1.3858414c-0.4633789 1.3450775 0 3.1792755 1.432312 4.1167603c0.9688721 0.44835663 2.3590698 0.89671326 3.327942 1.834198l1.8956909 0.89671326l0.9267578 0.48912048c0.9689331 0.8967209 1.8956909 1.834198 2.864624 2.730919l0.4633789 0.8967209c0.4633789 0.48912048 0.9688721 1.3858414 0.9688721 1.834198c0.5897827 0.8967209 1.6008301 1.4265976 2.7382202 1.4265976c0.631897 0 1.3059082 -0.16304016 1.9799194 -0.48912048c1.432312 -0.44835663 1.8956909 -2.2825546 1.432312 -3.668396c-3.327942 -5.0542374 -8.046082 -8.722633 -13.269775 -11.005188c-0.67401123 -0.32608032 -1.3480225 -0.65216064 -2.0220337 -0.65216064z" fill-rule="evenodd"/><path fill="#ffffff" d="m619.1645 74.71858c-0.5476074 0 -1.1373901 0.16304016 -1.6428833 0.48912048c-12.300903 8.233513 -21.315918 20.176186 -25.570679 33.912292c-0.8425293 2.1602783 0.9689331 3.5461197 2.7803345 3.5461197c1.263794 0 2.527588 -0.6929245 2.9067383 -2.1602783c4.2547607 -11.942673 12.342957 -22.458748 22.748169 -29.79554c1.8956909 -0.9374771 2.3590698 -2.771675 1.432312 -4.605873c-0.631897 -0.85596466 -1.6429443 -1.3858414 -2.6539917 -1.3858414z" fill-rule="evenodd"/><path stroke="#ffffff" stroke-width="1.0" stroke-linejoin="round" stroke-linecap="butt" d="m619.1645 74.71858c-0.5476074 0 -1.1373901 0.16304016 -1.6428833 0.48912048c-12.300903 8.233513 -21.315918 20.176186 -25.570679 33.912292c-0.8425293 2.1602783 0.9689331 3.5461197 2.7803345 3.5461197c1.263794 0 2.527588 -0.6929245 2.9067383 -2.1602783c4.2547607 -11.942673 12.342957 -22.458748 22.748169 -29.79554c1.8956909 -0.9374771 2.3590698 -2.771675 1.432312 -4.605873c-0.631897 -0.85596466 -1.6429443 -1.3858414 -2.6539917 -1.3858414z" fill-rule="evenodd"/><path fill="#ffffff" d="m688.33514 50.26287c-12.806335 0 -25.486328 3.3015556 -36.691956 9.823151c-2.8224487 1.9564781 -0.8425293 5.9101944 1.8535767 5.9101944c0.4633789 0 0.9688721 -0.122276306 1.4744263 -0.4076004c9.941772 -6.0732307 21.273743 -9.13023 32.732056 -9.13023c7.624878 0 15.29187 1.3450775 22.66394 4.0759964c9.015015 2.771679 17.061157 6.888439 24.64386 12.83939c3.7492676 2.730919 7.0772095 5.9509583 10.405212 9.170998c2.8224487 2.7309113 8.046082 6.8476715 8.50946 11.453545c0.25280762 2.038002 1.8956909 3.097763 3.496521 3.097763c1.600769 0 3.1594238 -1.059761 3.1594238 -3.097763c-0.9688721 -4.605873 -3.327942 -9.17099 -7.1193237 -12.391029c-3.7913208 -3.668396 -7.5827026 -7.7851486 -11.837463 -10.964432c-8.046143 -6.440071 -17.061157 -11.942669 -27.00293 -15.611065c-8.5095215 -3.1792793 -17.440247 -4.768917 -26.286804 -4.768917z" fill-rule="evenodd"/><path stroke="#ffffff" stroke-width="1.0" stroke-linejoin="round" stroke-linecap="butt" d="m688.33514 50.26287c-12.806335 0 -25.486328 3.3015556 -36.691956 9.823151c-2.8224487 1.9564781 -0.8425293 5.9101944 1.8535767 5.9101944c0.4633789 0 0.9688721 -0.122276306 1.4744263 -0.4076004c9.941772 -6.0732307 21.273743 -9.13023 32.732056 -9.13023c7.624878 0 15.29187 1.3450775 22.66394 4.0759964c9.015015 2.771679 17.061157 6.888439 24.64386 12.83939c3.7492676 2.730919 7.0772095 5.9509583 10.405212 9.170998c2.8224487 2.7309113 8.046082 6.8476715 8.50946 11.453545c0.25280762 2.038002 1.8956909 3.097763 3.496521 3.097763c1.600769 0 3.1594238 -1.059761 3.1594238 -3.097763c-0.9688721 -4.605873 -3.327942 -9.17099 -7.1193237 -12.391029c-3.7913208 -3.668396 -7.5827026 -7.7851486 -11.837463 -10.964432c-8.046143 -6.440071 -17.061157 -11.942669 -27.00293 -15.611065c-8.5095215 -3.1792793 -17.440247 -4.768917 -26.286804 -4.768917z" fill-rule="evenodd"/><path fill="#ffffff" d="m638.03687 390.19724c-1.9378052 0 -3.833496 1.4673767 -2.9909668 3.9537354c3.328003 12.7986145 1.432312 26.5755 -4.7181396 38.477386c-2.864563 5.9509583 -5.223633 11.453552 -8.50946 17.40451c-2.401245 5.0542603 -6.192566 9.17099 -10.910706 12.391052c-3.2437134 1.9564514 -1.3059082 5.8694153 1.6850586 5.8694153c0.50549316 0 1.0531006 -0.122283936 1.6428833 -0.3668213c5.1815186 -3.2200623 9.478394 -7.7851562 12.300903 -13.28775c3.7913208 -6.440094 6.6137695 -12.839386 9.941772 -19.727844c6.6138306 -13.28775 8.5095215 -28.409698 4.760254 -42.594147c-0.5897827 -1.4673767 -1.8956909 -2.1195374 -3.2015991 -2.1195374z" fill-rule="evenodd"/><path stroke="#ffffff" stroke-width="1.0" stroke-linejoin="round" stroke-linecap="butt" d="m638.03687 390.19724c-1.9378052 0 -3.833496 1.4673767 -2.9909668 3.9537354c3.328003 12.7986145 1.432312 26.5755 -4.7181396 38.477386c-2.864563 5.9509583 -5.223633 11.453552 -8.50946 17.40451c-2.401245 5.0542603 -6.192566 9.17099 -10.910706 12.391052c-3.2437134 1.9564514 -1.3059082 5.8694153 1.6850586 5.8694153c0.50549316 0 1.0531006 -0.122283936 1.6428833 -0.3668213c5.1815186 -3.2200623 9.478394 -7.7851562 12.300903 -13.28775c3.7913208 -6.440094 6.6137695 -12.839386 9.941772 -19.727844c6.6138306 -13.28775 8.5095215 -28.409698 4.760254 -42.594147c-0.5897827 -1.4673767 -1.8956909 -2.1195374 -3.2015991 -2.1195374z" fill-rule="evenodd"/><path fill="#ffffff" d="m526.1505 482.55832c-3.328003 0 -4.760254 4.6058655 -1.8956909 5.991699c8.551636 1.9157104 17.356018 2.9754944 26.1604 2.9754944c7.7512207 0 15.544617 -0.81521606 23.085205 -2.5271301c3.9598389 -0.44836426 2.6118164 -5.5841064 -0.631897 -5.5841064c-0.25274658 0 -0.50549316 0 -0.80041504 0.08151245c-6.824463 1.4266052 -13.733154 2.1602783 -20.68396 2.1602783c-8.425293 0 -16.934753 -1.0597534 -25.233643 -3.0977478z" fill-rule="evenodd"/><path stroke="#ffffff" stroke-width="1.0" stroke-linejoin="round" stroke-linecap="butt" d="m526.1505 482.55832c-3.328003 0 -4.760254 4.6058655 -1.8956909 5.991699c8.551636 1.9157104 17.356018 2.9754944 26.1604 2.9754944c7.7512207 0 15.544617 -0.81521606 23.085205 -2.5271301c3.9598389 -0.44836426 2.6118164 -5.5841064 -0.631897 -5.5841064c-0.25274658 0 -0.50549316 0 -0.80041504 0.08151245c-6.824463 1.4266052 -13.733154 2.1602783 -20.68396 2.1602783c-8.425293 0 -16.934753 -1.0597534 -25.233643 -3.0977478z" fill-rule="evenodd"/><path fill="#ffffff" d="m198.87541 335.94632c-0.75827026 0 -1.6007996 0.28533936 -2.3590698 0.8967285c-5.687042 5.502594 -9.01503 12.391022 -9.941803 20.176178c-1.8956757 9.619354 -2.8645782 19.238708 -2.8645782 29.347168c-0.46339417 16.956146 6.150421 33.912292 17.9879 46.710938c0.6740265 0.65216064 1.4322968 0.8967285 2.1484375 0.8967285c2.4854584 0 4.8023987 -3.0162354 2.6118317 -5.461853c-10.91069 -11.453552 -16.597748 -26.5755 -16.597748 -42.145813c0 -8.722626 0.96891785 -17.445251 2.4011993 -25.678772c0.46339417 -7.336792 3.7913666 -14.22522 8.9729 -19.687073c2.190567 -2.1195068 0.16850281 -5.0542297 -2.3590698 -5.0542297z" fill-rule="evenodd"/><path stroke="#ffffff" stroke-width="1.0" stroke-linejoin="round" stroke-linecap="butt" d="m198.87541 335.94632c-0.75827026 0 -1.6007996 0.28533936 -2.3590698 0.8967285c-5.687042 5.502594 -9.01503 12.391022 -9.941803 20.176178c-1.8956757 9.619354 -2.8645782 19.238708 -2.8645782 29.347168c-0.46339417 16.956146 6.150421 33.912292 17.9879 46.710938c0.6740265 0.65216064 1.4322968 0.8967285 2.1484375 0.8967285c2.4854584 0 4.8023987 -3.0162354 2.6118317 -5.461853c-10.91069 -11.453552 -16.597748 -26.5755 -16.597748 -42.145813c0 -8.722626 0.96891785 -17.445251 2.4011993 -25.678772c0.46339417 -7.336792 3.7913666 -14.22522 8.9729 -19.687073c2.190567 -2.1195068 0.16850281 -5.0542297 -2.3590698 -5.0542297z" fill-rule="evenodd"/><path fill="#ffffff" d="m237.20973 472.36844c-0.2948761 0 -0.58976746 0.040740967 -0.9267731 0.122283936c-1.4322968 0.44833374 -2.3590698 2.2825317 -1.8956757 4.1167297c4.844513 11.69812 16.808365 19.075684 29.909622 19.075684c2.3169556 0 4.6760254 -0.24456787 7.035095 -0.7336731c3.1594543 -1.3043213 2.0220642 -5.9917297 -1.3901672 -5.9917297c-0.16851807 0 -0.33700562 0 -0.5055237 0.040771484c-1.9378052 0.44836426 -3.8756104 0.65216064 -5.8134155 0.65216064c-9.857544 0 -19.16745 -5.6656494 -23.548569 -14.877411c-0.37913513 -1.5081177 -1.4322968 -2.4048157 -2.8645935 -2.4048157z" fill-rule="evenodd"/><path stroke="#ffffff" stroke-width="1.0" stroke-linejoin="round" stroke-linecap="butt" d="m237.20973 472.36844c-0.2948761 0 -0.58976746 0.040740967 -0.9267731 0.122283936c-1.4322968 0.44833374 -2.3590698 2.2825317 -1.8956757 4.1167297c4.844513 11.69812 16.808365 19.075684 29.909622 19.075684c2.3169556 0 4.6760254 -0.24456787 7.035095 -0.7336731c3.1594543 -1.3043213 2.0220642 -5.9917297 -1.3901672 -5.9917297c-0.16851807 0 -0.33700562 0 -0.5055237 0.040771484c-1.9378052 0.44836426 -3.8756104 0.65216064 -5.8134155 0.65216064c-9.857544 0 -19.16745 -5.6656494 -23.548569 -14.877411c-0.37913513 -1.5081177 -1.4322968 -2.4048157 -2.8645935 -2.4048157z" fill-rule="evenodd"/><path fill="#ffffff" d="m350.73898 495.7644c-0.29486084 0 -0.54763794 0.040740967 -0.8003845 0.12225342c-7.5405884 2.2825623 -15.628845 3.627655 -23.169434 4.5651245c-0.12637329 0 -0.2527771 -0.040740967 -0.33700562 -0.040740967c-3.3701172 0 -3.3701172 6.480835 0 6.480835c0.084228516 0 0.21063232 0 0.33700562 -0.040771484c8.509491 -0.8967285 16.555603 -2.7309265 24.601715 -5.013489c1.8956909 -0.48910522 2.8645935 -2.3233032 2.3590698 -3.668396c-0.37911987 -1.5488586 -1.7271729 -2.4048157 -2.9909668 -2.4048157z" fill-rule="evenodd"/><path stroke="#ffffff" stroke-width="1.0" stroke-linejoin="round" stroke-linecap="butt" d="m350.73898 495.7644c-0.29486084 0 -0.54763794 0.040740967 -0.8003845 0.12225342c-7.5405884 2.2825623 -15.628845 3.627655 -23.169434 4.5651245c-0.12637329 0 -0.2527771 -0.040740967 -0.33700562 -0.040740967c-3.3701172 0 -3.3701172 6.480835 0 6.480835c0.084228516 0 0.21063232 0 0.33700562 -0.040771484c8.509491 -0.8967285 16.555603 -2.7309265 24.601715 -5.013489c1.8956909 -0.48910522 2.8645935 -2.3233032 2.3590698 -3.668396c-0.37911987 -1.5488586 -1.7271729 -2.4048157 -2.9909668 -2.4048157z" fill-rule="evenodd"/><path fill="#3d6d70" d="m453.65204 283.08124c-1.6429138 0 -3.5386047 1.0189819 -3.749237 2.8939514c-2.401184 14.22522 3.749237 28.45047 16.092255 36.68396c4.4232483 2.8532104 9.436279 4.239044 14.491425 4.239044c7.919739 0 15.797333 -3.4645996 21.020996 -10.189972c4.7181396 -6.8884583 4.2547607 -15.611084 8.046112 -22.907104c0.9689026 -2.2010498 -1.1374207 -4.4020996 -3.2015991 -4.4020996c-0.92678833 0 -1.8956909 0.48913574 -2.485443 1.6304016c-3.7913513 6.8884277 -3.7913513 15.5703125 -8.046112 22.010376c-3.3701172 4.850464 -9.309906 7.9482117 -15.586731 7.9482117c-0.8003845 0 -1.6007996 -0.08151245 -2.401184 -0.16305542c-7.1193237 -0.9374695 -13.269775 -5.502594 -17.061127 -11.453552c-4.2547607 -6.8884277 -5.687042 -15.121948 -4.7181396 -23.39621c0.4633789 -1.9972229 -0.88464355 -2.8939514 -2.4012146 -2.8939514z" fill-rule="evenodd"/><path stroke="#5b98a0" stroke-width="1.0" stroke-linejoin="round" stroke-linecap="butt" d="m453.65204 283.08124c-1.6429138 0 -3.5386047 1.0189819 -3.749237 2.8939514c-2.401184 14.22522 3.749237 28.45047 16.092255 36.68396c4.4232483 2.8532104 9.436279 4.239044 14.491425 4.239044c7.919739 0 15.797333 -3.4645996 21.020996 -10.189972c4.7181396 -6.8884583 4.2547607 -15.611084 8.046112 -22.907104c0.9689026 -2.2010498 -1.1374207 -4.4020996 -3.2015991 -4.4020996c-0.92678833 0 -1.8956909 0.48913574 -2.485443 1.6304016c-3.7913513 6.8884277 -3.7913513 15.5703125 -8.046112 22.010376c-3.3701172 4.850464 -9.309906 7.9482117 -15.586731 7.9482117c-0.8003845 0 -1.6007996 -0.08151245 -2.401184 -0.16305542c-7.1193237 -0.9374695 -13.269775 -5.502594 -17.061127 -11.453552c-4.2547607 -6.8884277 -5.687042 -15.121948 -4.7181396 -23.39621c0.4633789 -1.9972229 -0.88464355 -2.8939514 -2.4012146 -2.8939514z" fill-rule="evenodd"/><path fill="#3d6d70" d="m474.20944 224.99892c-1.0531311 0 -2.1484375 0.32608032 -3.033081 0.97824097c-0.29489136 -0.08151245 -0.631897 -0.122283936 -0.9267578 -0.122283936c-1.3901672 0 -2.4433289 0.8967285 -2.8224792 2.4048462l-0.9689026 4.5651093c-0.4633789 0.93748474 -0.4633789 2.3233185 -0.4633789 3.668396c0 1.385849 0.4633789 2.7716827 1.4322815 4.1167603c0.92678833 0.69291687 2.1063232 1.0597687 3.2858582 1.0597687c1.1795349 0 2.3590698 -0.3668518 3.3279724 -1.0597687c0.92678833 -1.3450775 1.8956909 -2.7309113 2.3590698 -4.1167603c0.9689026 -1.3450775 1.8956909 -2.7309113 2.3590698 -4.116745c0.9689026 -2.2825623 0 -4.5651245 -1.3901672 -5.9509583c-0.75827026 -0.97824097 -1.9378052 -1.4266052 -3.1594849 -1.4266052z" fill-rule="evenodd"/><path stroke="#5b98a0" stroke-width="1.0" stroke-linejoin="round" stroke-linecap="butt" d="m474.20944 224.99892c-1.0531311 0 -2.1484375 0.32608032 -3.033081 0.97824097c-0.29489136 -0.08151245 -0.631897 -0.122283936 -0.9267578 -0.122283936c-1.3901672 0 -2.4433289 0.8967285 -2.8224792 2.4048462l-0.9689026 4.5651093c-0.4633789 0.93748474 -0.4633789 2.3233185 -0.4633789 3.668396c0 1.385849 0.4633789 2.7716827 1.4322815 4.1167603c0.92678833 0.69291687 2.1063232 1.0597687 3.2858582 1.0597687c1.1795349 0 2.3590698 -0.3668518 3.3279724 -1.0597687c0.92678833 -1.3450775 1.8956909 -2.7309113 2.3590698 -4.1167603c0.9689026 -1.3450775 1.8956909 -2.7309113 2.3590698 -4.116745c0.9689026 -2.2825623 0 -4.5651245 -1.3901672 -5.9509583c-0.75827026 -0.97824097 -1.9378052 -1.4266052 -3.1594849 -1.4266052z" fill-rule="evenodd"/><path fill="#3d6d70" d="m499.14786 227.81133c-1.8956604 0 -3.3279724 1.3450775 -3.3279724 3.1792755l0 7.336792c0 2.2825623 0 4.6058807 0.9689026 6.888443c0.8846741 1.7526703 2.611847 2.7716827 4.33902 2.7716827c0.9689026 0 1.8956604 -0.2853241 2.7381897 -0.93748474c1.8956909 -1.834198 2.8645935 -4.6058807 2.3590698 -7.336792c0 -2.7309265 -0.4633789 -5.9509583 -0.9267578 -8.722641c-0.3791504 -1.1005096 -1.432312 -1.9564667 -2.8224792 -1.9564667c-0.29486084 0 -0.631897 0.040756226 -0.9689026 0.12226868c-0.4633789 -0.89671326 -1.4322815 -1.3450775 -2.3590698 -1.3450775z" fill-rule="evenodd"/><path stroke="#5b98a0" stroke-width="1.0" stroke-linejoin="round" stroke-linecap="butt" d="m499.14786 227.81133c-1.8956604 0 -3.3279724 1.3450775 -3.3279724 3.1792755l0 7.336792c0 2.2825623 0 4.6058807 0.9689026 6.888443c0.8846741 1.7526703 2.611847 2.7716827 4.33902 2.7716827c0.9689026 0 1.8956604 -0.2853241 2.7381897 -0.93748474c1.8956909 -1.834198 2.8645935 -4.6058807 2.3590698 -7.336792c0 -2.7309265 -0.4633789 -5.9509583 -0.9267578 -8.722641c-0.3791504 -1.1005096 -1.432312 -1.9564667 -2.8224792 -1.9564667c-0.29486084 0 -0.631897 0.040756226 -0.9689026 0.12226868c-0.4633789 -0.89671326 -1.4322815 -1.3450775 -2.3590698 -1.3450775z" fill-rule="evenodd"/></g></svg>