<svg version="1.1" viewBox="0.0 0.0 960.0 540.0" fill="none" stroke="none" stroke-linecap="square" stroke-miterlimit="10" xmlns:xlink="http://www.w3.org/1999/xlink" xmlns="http://www.w3.org/2000/svg"><clipPath id="p.0"><path d="m0 0l960.0 0l0 540.0l-960.0 0l0 -540.0z" clip-rule="nonzero"/></clipPath><g clip-path="url(#p.0)"><path fill="#ffffff" d="m0 0l960.0 0l0 540.0l-960.0 0z" fill-rule="evenodd"/><path fill="#ffffff" d="m386.79984 201.93105c-5.6205444 0 -11.0772705 2.7232513 -14.476227 7.591324c-1.4998474 -3.9517975 -5.835541 -6.4293365 -10.079102 -6.4293365c-1.0545044 0 -2.1038818 0.15356445 -3.1071777 0.47605896c-5.098419 1.5305481 -8.589508 6.884918 -8.671417 12.157379c0 2.6362305 0.76272583 5.190567 2.04245 7.4838257c1.6994629 3.0611115 3.9927368 5.6154327 7.4838257 6.5522003c-0.47607422 -0.12797546 -0.9367676 -0.1842804 -1.3821106 -0.1842804c-3.818695 0 -6.5982666 4.2742767 -6.444702 8.005951c-0.08187866 -1.6994781 -2.3802795 -3.654892 -3.6548767 -4.4227295c-1.7045898 -0.9367523 -3.572998 -1.6124573 -5.528412 -1.786499c-0.9162903 -0.10749817 -1.837677 -0.1638031 -2.7590942 -0.1638031c-4.013214 0 -7.9803467 1.0493774 -11.445862 3.0559845c-8.164642 4.847595 -12.6692505 14.030899 -11.481689 23.47525c-1.7250671 -1.187561 -3.6343994 -1.7250671 -5.4976807 -1.7250671c-4.837372 0 -9.403412 3.6139526 -9.894836 8.952972c-1.3053284 -0.70129395 -2.7437134 -1.0186768 -4.1974792 -1.0186768c-2.7898254 0 -5.6359253 1.1824646 -7.709076 3.1430054c-1.3565063 1.1927185 -2.4621887 2.7232666 -2.9740906 4.4227295c-1.9554138 5.9532776 1.3616333 12.843323 6.890045 15.648468c2.2011414 1.1159363 4.632599 1.643158 7.084564 1.643158c3.7009583 0 7.447998 -1.197815 10.519318 -3.3426208l0 0c-0.087005615 5.103546 5.4414062 8.415466 10.457916 9.096283c0.99819946 0.12283325 1.9912415 0.18426514 2.979187 0.18426514c7.26886 0 14.164001 -3.2504883 18.87851 -8.9427185c6.8234863 5.748535 15.325989 8.686768 23.874542 8.686768c6.2604065 0 12.546417 -1.5765991 18.223267 -4.7759094c4.4227295 -2.6362305 8.420593 -6.3781433 10.120056 -11.225739c1.6175842 -4.9295044 0.51190186 -10.969818 -3.6600037 -13.943878c3.1481323 -0.68081665 5.103546 -3.9978638 3.9978638 -7.05896l0 0c2.1089783 0.8548584 4.32547 1.2694702 6.5368347 1.2694702c4.3971252 0 8.748199 -1.643158 12.09082 -4.7554474c4.847595 -4.934616 6.3781433 -12.162506 3.9978638 -18.54065c-0.8548584 -2.1294556 -2.0424194 -4.0848846 -3.6600037 -5.6973267c-3.0610962 -3.1481323 -7.314911 -5.103546 -11.73764 -5.272476c2.4673157 -8.338684 -1.5305481 -17.097107 -9.265198 -20.839035c-2.4365845 -1.1619873 -5.0114136 -1.7199402 -7.5503845 -1.7199402z" fill-rule="evenodd"/><path fill="#9ad7df" d="m639.78156 116.98211c-10.876038 0 -21.752075 1.4981232 -32.04248 4.5559235c-25.963013 7.490593 -44.954224 23.190056 -52.81842 42.62455c-8.6171875 -7.0801544 -19.381653 -10.158478 -29.923035 -10.158478c-23.508942 0 -45.790833 15.350586 -40.04605 36.057465c-17.317993 -3.981308 -35.779358 -7.346939 -54.0455 -7.346939c-5.1870117 0 -10.346161 0.26678467 -15.449524 0.8824463l-1.8684387 0.32835388c-22.700226 3.0783386 -44.45227 14.324478 -50.029724 30.701172c-6.023651 18.05951 9.732666 37.14514 31.512604 46.359604c14.640778 5.848816 31.122162 7.983124 47.798737 7.983124c8.64502 0 17.345856 -0.574646 25.879333 -1.4981384c0 9.39917 10.541382 15.330078 21.166443 15.330078c6.3303833 0 12.660797 -2.1138 16.81601 -6.8133545c7.864197 19.085602 23.174255 35.811188 44.480164 48.083435c16.202454 9.809601 36.6438 14.878571 57.364014 14.878571c5.8842163 0 11.824219 -0.4104309 17.680542 -1.251831c26.40918 -4.0839233 47.715088 -19.085632 54.21277 -38.52014c2.9281616 2.4421387 6.553528 3.4887695 10.039429 3.4887695c8.728699 0 16.815979 -6.4234314 12.186707 -13.729309l0 0c14.947571 9.173401 33.35315 13.790894 51.78662 13.790894c15.895752 0 31.791443 -3.4272156 45.511963 -10.3637085c28.723877 -16.027802 38.930603 -44.327896 25.963013 -68.872406c-4.6292725 -7.5111237 -11.126953 -13.996124 -19.465271 -19.434494c-14.361938 -9.748032 -33.35315 -15.165894 -52.957886 -15.165894c-4.406189 0 -8.868103 0.26678467 -13.302185 0.8414154c6.1073 -15.453201 -10.123108 -29.285141 -29.22583 -29.285141c-4.071533 0 -8.254639 0.6156616 -12.381958 1.9701233l0 0c7.3064575 -2.4626617 4.071533 -17.361755 2.231018 -21.096786c-3.7090454 -6.833893 -10.178894 -12.62114 -18.99121 -16.376701c-12.995483 -5.274193 -27.52472 -7.9626007 -42.08185 -7.9626007z" fill-rule="evenodd"/><path fill="#ffffff" d="m736.0762 199.95325l0 0c-3.2628174 1.7033539 -4.1831055 5.458908 -6.9718018 7.8394775c-2.7608643 2.7294464 -6.4698486 5.110016 -10.652954 6.8338776c-5.744751 2.2164001 -11.991516 3.3451233 -18.23822 3.3451233c-4.32251 0 -8.645081 -0.5335846 -12.800232 -1.6417847l0 0c1.3943481 4.4328003 -1.8405762 9.193939 -7.864258 10.897278c-4.071533 1.0055847 -8.64502 1.6417694 -13.162781 1.6417694c-1.6453247 0 -3.2906494 -0.08207703 -4.908142 -0.26678467l0 0c3.3186035 4.740631 9.39801 6.957016 15.421631 6.957016c8.226746 0 16.397705 -4.104431 17.457458 -11.389801c2.5377197 0.43096924 5.0475464 0.65670776 7.529541 0.65670776c8.923889 0 17.262207 -2.8320618 23.062744 -8.167831c6.0236206 -4.761139 9.732666 -10.568909 11.127014 -16.705048z" fill-rule="evenodd"/><path fill="#ffffff" d="m553.9725 173.02817l0 0c-1.8126831 19.680756 19.82782 34.682465 44.117615 34.682465c6.3861694 0 12.995483 -1.0466309 19.381653 -3.324585c2.4540405 3.7966003 7.4179688 5.6846313 12.40979 5.6846313c5.326477 0 10.680847 -2.1342926 13.05127 -6.361862l0 0c-1.9521484 0.6361847 -4.04364 0.98506165 -6.0515747 0.98506165c-2.2867432 0 -4.489807 -0.43096924 -6.4419556 -1.3339386c-3.7089844 -1.7033386 -6.0236206 -4.761154 -5.5773926 -7.8394775l0 0c-7.61322 3.611908 -16.369812 5.458893 -25.210083 5.458893c-6.190979 0 -12.409851 -0.90296936 -18.3219 -2.7294464c-14.361938 -4.432785 -24.568665 -13.975601 -27.357422 -25.22174z" fill-rule="evenodd"/><path fill="#ffd600" d="m357.47897 3.2071855c-0.94818115 0 -1.8963318 0.12313318 -2.7050781 0.36939907c-66.73416 19.08562 -120.94696 56.92851 -149.67082 105.011955c-30.564407 50.79238 -29.644135 110.12199 -1.3943634 161.61212c44.842697 83.874115 161.49503 137.86795 281.52173 137.86795c23.899353 0 47.910248 -2.1343079 71.53079 -6.608124c76.912964 -15.001709 143.1731 -50.46405 185.78479 -99.90195c0.9202881 -0.6772461 0.9202881 -1.3544617 1.3943481 -2.3805847c1.3943481 -3.7555542 -2.3146362 -7.5111084 -7.41803 -7.839447c-91.72113 -2.7294617 -186.23096 -6.136139 -269.64172 -36.139557c-54.658997 -19.434494 -102.848145 -54.568466 -124.15399 -97.52136c-26.40921 -52.167366 2.3146362 -94.44304 26.855408 -143.20372c1.8684387 -2.7294483 0 -6.1361294 -3.2349243 -7.4905925c-0.9202881 -1.0261087 -2.3146362 -2.0522175 -3.7089844 -2.7294493c-1.5059204 -0.6567092 -3.3743591 -1.0466306 -5.159149 -1.0466306z" fill-rule="evenodd"/><path fill="#fcd8a9" d="m421.73117 305.8887c-1.9520874 0 -3.8763123 0.041046143 -5.800537 0.102630615c-5.5774536 0 -11.127014 1.0260925 -16.230377 2.7294312c-5.5495605 1.7033386 -9.258575 5.110016 -10.652924 9.214447c-1.3943787 6.813385 5.5495605 12.949493 12.96756 17.033417c12.047302 6.833893 26.40921 11.246155 41.24524 12.970001c2.9560547 0.3899231 5.939972 0.574646 8.868134 0.574646c7.1391296 0 14.083069 -1.1287231 20.30191 -3.3040771c9.2864685 -3.4066772 14.836029 -10.568939 13.915741 -18.080048c-1.8684387 -5.458893 -6.9439087 -10.220032 -13.915741 -12.621124c-15.839935 -5.828308 -33.18582 -8.619324 -50.699005 -8.619324z" fill-rule="evenodd"/><path fill="#fcd8a9" d="m512.2253 320.2953c-0.3067627 0 -0.5856323 0 -0.86450195 0.020507812c-13.44165 0.6772461 -26.8833 16.35617 -12.96756 23.518402c3.7089844 1.375 7.864197 2.0522156 12.493469 2.0522156c0.80874634 0.082092285 1.6732483 0.12313843 2.5098572 0.12313843c2.5656128 0 5.270691 -0.3899231 7.6968994 -1.149231c14.110901 -5.7051697 7.1948853 -24.565033 -8.868164 -24.565033z" fill-rule="evenodd"/><path fill="#fcd8a9" d="m487.96338 355.08035c-0.22311401 0 -0.4461975 0 -0.6971741 0c-11.127014 0.6977539 -14.361938 11.943909 -4.1552124 15.699463c1.3664856 0.32836914 2.3146362 0.6772461 3.6811218 0.6772461c3.709015 0 6.9718018 -1.026123 9.286438 -3.0783386c7.6968994 -5.992462 2.0915527 -13.29837 -8.115173 -13.29837z" fill-rule="evenodd"/><path fill="#ffffff" d="m370.66965 255.97879c-13.664764 0 -27.413177 1.9701233 -40.464386 6.0335083c-38.930603 13.29837 -62.997284 42.624542 -60.682648 74.3313c-3.56958 -1.4365234 -7.3343506 -2.0932617 -11.0433655 -2.0932617c-12.242493 0 -23.899353 7.0801697 -26.018784 16.746094c-18.796005 -8.106232 -40.101852 -12.518524 -61.993347 -12.518524c-2.9560394 0 -5.939972 0.082092285 -8.896027 0.24627686c-12.047287 0.6772461 -23.648376 3.4066772 -34.301308 7.1622314c-11.127007 4.0839233 -20.831772 10.220062 -28.723862 17.73117c-15.282204 14.324463 -19.465294 33.758972 -10.652924 51.141235c9.119125 16.78714 31.763565 27.97174 56.77842 27.97174c0.39042664 0 0.7529602 -0.02053833 1.1433868 -0.02053833c1.8405609 14.324493 16.67656 25.570648 36.14186 26.945618c16.202484 33.410095 55.57927 62.736267 102.848145 70.90411c10.736603 1.7648926 21.61261 2.6473389 32.43286 2.6473389c37.257355 0 73.817535 -10.281616 101.4538 -29.572449c8.031525 3.6324463 17.2901 5.6026 26.576538 5.6026c4.6292725 0 9.258575 -0.4925537 13.748413 -1.5186768c13.887848 -2.7294312 25.46106 -9.891693 31.48471 -19.434479c25.433136 7.3058777 53.93393 13.872955 81.68173 13.872955c4.6292725 0 9.230652 -0.18469238 13.776306 -0.5746155c31.95874 -2.3805542 62.076965 -12.621124 85.25128 -28.977295c26.40924 -19.43451 39.85089 -46.35959 36.588074 -73.98242c-1.8405762 -12.272278 -7.41803 -24.544525 -15.756287 -35.46231c-21.305847 -27.889648 -60.90576 -43.958496 -102.178894 -43.958496c-15.2543335 0 -30.73175 2.1958618 -45.595642 6.792816c-5.1033325 -11.92337 -17.150635 -21.486694 -32.43283 -26.247833c-6.3025208 -1.6417847 -12.8281555 -2.462677 -19.325867 -2.462677c-9.704773 0 -19.325867 1.8470154 -27.943024 5.5204773c2.7887268 -12.949493 -6.497711 -24.195648 -18.99121 -33.738464c-20.134583 -15.063263 -47.324646 -23.087433 -74.90512 -23.087433z" fill-rule="evenodd"/><path fill="#5b98a0" d="m274.59808 343.8342c8.784485 22.287079 36.72751 37.001495 67.37558 37.001495c4.9918213 0 10.039398 -0.3899231 15.114899 -1.1903076c6.5256042 7.4085083 17.373749 11.287201 28.417084 11.287201c7.752655 0 15.588959 -1.9085693 22.0867 -5.848816c-16.230377 -0.6772156 -29.197937 -8.845062 -32.90695 -20.111725c-9.87207 2.6063232 -20.078796 3.8786926 -30.146118 3.8786926c-26.771729 0 -52.762665 -8.906616 -69.94119 -25.01654z" fill-rule="evenodd"/><path fill="#5b98a0" d="m531.74634 356.10648c-2.3146362 19.10614 -18.070923 35.811188 -41.691406 43.979004c0.4461975 0.020507812 0.892395 0.020507812 1.338562 0.020507812c14.808136 0 29.03064 -5.3973083 37.11792 -14.324463c8.338318 -8.86557 9.732666 -20.132263 3.2349243 -29.675049z" fill-rule="evenodd"/><path fill="#ffffff" d="m195.23099 292.85712c-4.266739 0 -8.589264 0.94403076 -12.35405 2.914154c-5.5774384 3.0578003 -8.812363 8.167816 -8.338272 13.29837c0.44618225 5.110016 4.155197 9.871155 9.7326355 12.949493c4.266754 2.0932617 9.091248 3.1193848 13.720535 3.1193848c8.868134 0 17.039093 -3.7760925 19.158524 -10.958862c1.868454 -6.8133545 -1.3943634 -13.647247 -8.78447 -18.080017c-3.8763275 -2.1343079 -8.477722 -3.2425232 -13.134903 -3.2425232z" fill-rule="evenodd"/><path fill="#ffffff" d="m240.07368 310.95767c-8.951813 0 -18.796005 6.5466003 -14.110947 13.442047c1.3943634 2.0522156 4.155197 3.7555542 6.943924 4.43277c1.3943634 0.26678467 2.8166046 0.3899231 4.210968 0.3899231c4.238861 0 8.421951 -1.149231 11.545319 -3.4477234c3.7089996 -3.4066772 3.7089996 -7.8394775 0.47409058 -11.595032c-2.3146515 -2.277954 -5.6332245 -3.2219849 -9.0633545 -3.2219849z" fill-rule="evenodd"/><path fill="#9ad7df" d="m432.5793 133.05096c-4.183075 0 -8.198853 0.80036926 -11.099121 2.8115387c-8.812378 6.136139 -11.573212 16.027817 -6.023651 24.544525c5.131256 6.4644775 14.612915 10.384216 24.540771 10.384216c2.621399 0 5.270691 -0.26678467 7.89209 -0.84140015c5.103363 -1.026123 9.258575 -3.4066925 11.573212 -6.485016c2.7887268 -3.0578003 3.709015 -6.8133545 3.2628174 -10.568924c-0.94818115 -6.1361237 -5.5774536 -11.92337 -12.521393 -15.67894c-4.210968 -2.277954 -11.154877 -4.1660004 -17.624725 -4.1660004z" fill-rule="evenodd"/><path fill="#3f9cac" d="m238.33496 189.65776c-1.8108215 0.18127441 -3.4984741 1.0288544 -4.075287 2.5407867c-4.237503 17.341263 7.142639 34.718643 28.58017 42.364075c7.35672 2.0264587 14.975708 2.6209717 22.28366 1.8893738c14.163208 -1.4178772 27.014618 -7.794098 33.982697 -17.84694c5.045044 -8.696991 6.178131 -18.601944 3.0749512 -27.549622c-0.78393555 -2.1027985 -3.5085144 -2.9449158 -5.8367004 -2.7118378c-2.2635193 0.22659302 -4.0660095 1.5219269 -2.894043 3.5858765c5.1399536 16.402481 -5.953247 35.49649 -30.075989 37.911407c-0.71139526 0.07122803 -1.4227905 0.1424408 -2.1429749 0.1660614c-25.674408 1.5038605 -41.47679 -19.841843 -37.845108 -36.540787c0.80955505 -2.747055 -2.2058105 -4.0932617 -5.0513763 -3.8083954z" fill-rule="evenodd"/><path fill="#3f9cac" d="m253.64284 138.4885c-1.4874573 0.14891052 -2.8046722 0.8624573 -3.0638123 1.9548035c-1.50383 3.9799042 -2.240387 7.8345337 -0.83395386 11.523087c-0.21871948 2.7363892 1.5999756 4.7355957 4.0979614 6.133606c1.5842285 0.37460327 3.0597992 0.51771545 4.417923 0.38175964c1.3581238 -0.13595581 2.5987854 -0.55101013 3.6014404 -1.1845856c3.840332 -3.098938 6.1523438 -6.626541 5.3605347 -10.909836c-0.01574707 -4.3609924 -5.099701 -7.6329346 -11.025757 -7.621338c-0.8464508 -0.3030548 -1.7135925 -0.36166382 -2.5543365 -0.27749634z" fill-rule="evenodd"/><path fill="#3d6d70" d="m297.51358 149.89893l0 0l0 0c0 0 0 0 0 0z" fill-rule="evenodd"/><path stroke="#3d6d70" stroke-width="1.0" stroke-linejoin="round" stroke-linecap="butt" d="m297.51358 149.89893l0 0l0 0c0 0 0 0 0 0z" fill-rule="evenodd"/><path fill="#3f9cac" d="m291.46768 138.02585c-1.4874878 0.14891052 -2.8046875 0.862442 -3.0638428 1.9547882c-1.5038147 3.9799194 -2.240387 7.8345337 -0.83395386 11.523102c-0.21871948 2.736374 1.5999756 4.7355957 4.0979614 6.1335907c1.5842285 0.37460327 3.0598145 0.5177307 4.417938 0.38175964c1.3581238 -0.13595581 2.598755 -0.5509949 3.60141 -1.1845703c3.8403625 -3.098938 6.1523743 -6.6265564 5.360565 -10.909851c-0.01574707 -4.3609924 -5.099701 -7.6329193 -11.025787 -7.621338c-0.84643555 -0.30303955 -1.713562 -0.36164856 -2.5542908 -0.27748108z" fill-rule="evenodd"/></g></svg>