<?xml version="1.0"?>
<svg xmlns:xlink="http://www.w3.org/1999/xlink" xmlns="http://www.w3.org/2000/svg" version="1.1" viewBox="0.0 0.0 960.0 540.0" fill="none" stroke="none" stroke-linecap="square" stroke-miterlimit="10" style="background-color:transparent;">
  <clipPath id="p.0">
    <path d="m0 0l960.0 0l0 540.0l-960.0 0l0 -540.0z" clip-rule="nonzero"/>
  </clipPath>
  <g clip-path="url(#p.0)">
    <path fill="none" d="m0 0l960.0 0l0 540.0l-960.0 0z" fill-rule="evenodd"/>
    <path fill="none" d="m386.79984 201.93105c-5.6205444 0 -11.0772705 2.7232513 -14.476227 7.591324c-1.4998474 -3.9517975 -5.835541 -6.4293365 -10.079102 -6.4293365c-1.0545044 0 -2.1038818 0.15356445 -3.1071777 0.47605896c-5.098419 1.5305481 -8.589508 6.884918 -8.671417 12.157379c0 2.6362305 0.76272583 5.190567 2.04245 7.4838257c1.6994629 3.0611115 3.9927368 5.6154327 7.4838257 6.5522003c-0.47607422 -0.12797546 -0.9367676 -0.1842804 -1.3821106 -0.1842804c-3.818695 0 -6.5982666 4.2742767 -6.444702 8.005951c-0.08187866 -1.6994781 -2.3802795 -3.654892 -3.6548767 -4.4227295c-1.7045898 -0.9367523 -3.572998 -1.6124573 -5.528412 -1.786499c-0.9162903 -0.10749817 -1.837677 -0.1638031 -2.7590942 -0.1638031c-4.013214 0 -7.9803467 1.0493774 -11.445862 3.0559845c-8.164642 4.847595 -12.6692505 14.030899 -11.481689 23.47525c-1.7250671 -1.187561 -3.6343994 -1.7250671 -5.4976807 -1.7250671c-4.837372 0 -9.403412 3.6139526 -9.894836 8.952972c-1.3053284 -0.70129395 -2.7437134 -1.0186768 -4.1974792 -1.0186768c-2.7898254 0 -5.6359253 1.1824646 -7.709076 3.1430054c-1.3565063 1.1927185 -2.4621887 2.7232666 -2.9740906 4.4227295c-1.9554138 5.9532776 1.3616333 12.843323 6.890045 15.648468c2.2011414 1.1159363 4.632599 1.643158 7.084564 1.643158c3.7009583 0 7.447998 -1.197815 10.519318 -3.3426208l0 0c-0.087005615 5.103546 5.4414062 8.415466 10.457916 9.096283c0.99819946 0.12283325 1.9912415 0.18426514 2.979187 0.18426514c7.26886 0 14.164001 -3.2504883 18.87851 -8.9427185c6.8234863 5.748535 15.325989 8.686768 23.874542 8.686768c6.2604065 0 12.546417 -1.5765991 18.223267 -4.7759094c4.4227295 -2.6362305 8.420593 -6.3781433 10.120056 -11.225739c1.6175842 -4.9295044 0.51190186 -10.969818 -3.6600037 -13.943878c3.1481323 -0.68081665 5.103546 -3.9978638 3.9978638 -7.05896l0 0c2.1089783 0.8548584 4.32547 1.2694702 6.5368347 1.2694702c4.3971252 0 8.748199 -1.643158 12.09082 -4.7554474c4.847595 -4.934616 6.3781433 -12.162506 3.9978638 -18.54065c-0.8548584 -2.1294556 -2.0424194 -4.0848846 -3.6600037 -5.6973267c-3.0610962 -3.1481323 -7.314911 -5.103546 -11.73764 -5.272476c2.4673157 -8.338684 -1.5305481 -17.097107 -9.265198 -20.839035c-2.4365845 -1.1619873 -5.0114136 -1.7199402 -7.5503845 -1.7199402z" fill-rule="evenodd"/>
    <path fill="#ffd600" d="m519.04626 152.78282c-46.568665 0 -90.02905 27.938293 -106.51404 72.80646c-20.592346 57.19548 10.296173 119.531784 68.964935 139.79918c12.377594 4.2257385 25.032745 6.217499 37.46585 6.217499c46.485413 0 90.112305 -27.96524 106.375244 -73.10254c20.897644 -56.872482 -9.990906 -119.20882 -68.65961 -139.4762c-12.460876 -4.2257385 -25.143799 -6.2444 -37.632385 -6.2444z" fill-rule="evenodd"/>
    <path fill="#ffd600" d="m703.15625 52.253376c-0.86035156 0 -1.8039551 0.3498993 -2.6365356 1.1573639c-30.888489 24.197048 -57.41986 53.265804 -78.62274 85.64517c-0.9436035 0.8882141 -0.9436035 2.099411 -0.30529785 3.310608c0.4163208 1.4534302 1.5819092 2.6377106 2.9695435 2.6377106c0.63830566 0 1.3320923 -0.24223328 2.02594 -0.8074646l0.9158325 -0.3229828c1.887146 -1.1842804 3.4412842 -2.71846 4.6901245 -3.929657c0.9436035 0 1.5541382 -0.29608154 2.1924438 -0.8882141c21.841248 -22.716698 42.73883 -46.294685 63.02588 -70.51865l0.9158325 -0.5921402c0.33306885 -0.6190567 0.63830566 -0.9151306 0.9436035 -1.5341873c2.1924438 -2.7184677 4.3571167 -5.1408615 6.5496216 -7.563259c2.9140015 -2.5569725 0.38848877 -6.5942993 -2.6642456 -6.5942993z" fill-rule="evenodd"/>
    <path fill="#ffd600" d="m691.7777 154.77457c-4.6624146 0.9151306 -9.047302 2.4223938 -12.793884 4.8447876c-4.3571777 2.1263275 -9.047302 4.5487213 -13.40448 6.971115c-8.742004 4.52182 -16.845764 9.662674 -24.644165 15.718674c-0.9436035 0.6190491 -1.2489014 1.830246 -0.9436035 3.0414429l-1.5541382 0.8882141c-3.0527954 1.4803619 -1.942688 6.675049 1.5819092 6.675049c0.08325195 0 0.1942749 0 0.27752686 0c11.239746 -2.1263275 22.146484 -6.0559845 31.832092 -12.111984c4.6901245 -2.71846 9.657837 -5.4369354 14.042725 -8.478378c5.30072 -3.0145416 8.742065 -8.155411 9.657898 -13.915329c-0.30529785 -2.1263275 -1.859436 -3.6335907 -4.05188 -3.6335907z" fill-rule="evenodd"/>
    <path fill="#ffd600" d="m594.8938 87.835686c-1.2488403 0 -2.4977417 0.5383072 -3.2747803 1.5880127c-8.10376 11.196854 -13.099182 24.493118 -14.348022 38.112366l-0.9158325 1.8302536c-1.7484131 2.7184753 0.8880615 5.3292694 3.3858032 5.3292694c1.1100464 0 2.1646729 -0.51138306 2.8307495 -1.6956787l13.126892 -24.223953c3.1082764 -5.7330093 6.2165527 -13.000198 2.4699707 -19.352257c-0.7770386 -1.0497055 -2.02594 -1.5880127 -3.2747803 -1.5880127z" fill-rule="evenodd"/>
    <path fill="#ffd600" d="m548.1586 12.822146c-0.5828247 0 -1.1656494 0.1076622 -1.7761841 0.34990215c-3.4135742 1.2111979 -4.6624146 4.8447914 -5.911255 7.563259c-1.887207 4.5218067 -3.4413452 9.070528 -4.3848877 13.619249c-0.6105957 1.5072708 -0.9158325 3.0145378 -1.2489014 4.5218086c-3.1082764 9.689583 -5.605957 19.37917 -8.103699 29.068756c-4.6901855 16.929855 -7.798462 34.1827 -9.685608 51.731613c-0.13879395 2.2609024 1.6373901 3.418274 3.5245361 3.418274c1.859436 0 3.829834 -1.1573715 3.968628 -3.418274c0 0 0 -0.29606628 0 -0.29606628c0.3330078 -0.6190567 0.63830566 -0.9151306 0.63830566 -1.5072708c10.296143 -30.576027 20.897644 -61.44812 31.193787 -92.2933c1.2488403 -4.252651 3.4412842 -11.51984 -3.4412842 -12.111982l-2.164734 0c-0.7770386 -0.37681675 -1.6651611 -0.64597225 -2.6087036 -0.64597225z" fill-rule="evenodd"/>
    <path fill="#ffd600" d="m470.9512 94.75297c-1.887146 0 -3.5800476 1.3726959 -3.8020935 3.4451904c-0.63830566 11.196854 1.859436 22.097633 6.854889 32.379356c0.30526733 1.5072784 1.8594055 2.7184753 3.4412842 2.7184753c0.9158325 0 1.5541382 -0.29608154 1.859436 -0.5921478c0.30526733 0 0.63830566 -0.3229828 0.943573 -0.6190491l0.30526733 -0.5921478c0 -0.3229828 0 -0.6190491 0.30529785 -0.9151306c0 -0.29606628 0 -0.6190491 0 -0.9151306l0 -0.29606628c0 0 0 -0.29606628 0 -0.6190491c0 -2.4224014 -0.6105652 -4.5218124 -0.6105652 -6.64814c-0.63830566 -7.859329 -1.2488708 -15.745575 -2.4977112 -23.30883c0 -0.2960739 0 -0.8882141 0 -0.8882141c-0.63830566 -1.8302536 -2.1924438 -2.7453842 -3.746582 -2.7453842c-0.30529785 0 -0.6383362 0.32299042 -0.6383362 0.32299042l-0.61053467 -0.32299042c-0.5827942 -0.26914978 -1.1933594 -0.4037323 -1.8039246 -0.4037323z" fill-rule="evenodd"/>
    <path fill="#ffd600" d="m349.95038 23.992085c-1.2766113 0 -2.4699707 0.5652256 -3.2470398 1.5880165c-5.939026 10.873867 3.746582 23.281918 8.742035 32.675434l20.287079 38.435352c11.545013 21.478577 23.090057 43.253235 42.7388 59.294876c0.5828247 0.5921478 1.4154053 0.8612976 2.2757263 0.8612976c2.3034363 0 4.773407 -1.8571777 3.635559 -4.4948883c0 -0.29608154 -0.30526733 -0.5921478 -0.61053467 -1.2111969c1.8594055 -0.8882141 2.1924438 -3.0145416 1.2488403 -4.521805c-14.348022 -21.182518 -26.198334 -43.87229 -35.88394 -67.477196c-8.742035 -20.59037 -14.348053 -46.294685 -38.381683 -55.09606c-0.24978638 -0.026914597 -0.52731323 -0.0538311 -0.8048401 -0.0538311z" fill-rule="evenodd"/>
    <path fill="#ffd600" d="m764.04517 215.84587c-34.60736 0 -69.1037 7.1595154 -102.51764 15.503326c-3.4413452 1.2111969 -3.4413452 5.7330017 0 6.6481323c0.61053467 0.9151306 1.5541382 1.5072784 2.8029785 1.5072784c3.774353 0.08073425 7.576416 0.10765076 11.350769 0.10765076c41.767456 0 83.45172 -4.6025543 124.35889 -14.02298c2.8307495 -1.5072632 2.8307495 -5.759918 -0.30529785 -6.971115c-11.878052 -1.937912 -23.811646 -2.772293 -35.689697 -2.772293z" fill-rule="evenodd"/>
    <path fill="#ffd600" d="m669.3259 266.7431c-1.887146 0 -3.746582 1.5072632 -3.4412842 3.633606c0 0.59213257 0 1.2111816 0.30529785 1.5072632c-0.30529785 1.8033447 0.3330078 3.3375244 1.5818481 4.548706c7.29895 3.956604 15.43042 6.0829163 23.61737 6.0829163c0.5550537 0 1.0823364 -0.026916504 1.6373901 -0.026916504l1.5541382 0.59213257c0.49957275 0.29608154 1.0823975 0.43066406 1.6651611 0.43066406c1.2211304 0 2.4977417 -0.6190491 3.3303223 -1.6418457c1.5541382 0 2.8029785 -0.5921631 4.3848877 -0.9151306c1.5541382 -0.59213257 2.8029785 -1.8033447 2.8029785 -3.633606c-0.30523682 -1.5072632 -1.2488403 -3.0145264 -2.8029785 -3.310608c-11.239746 -3.929657 -22.78479 -6.352051 -34.63513 -7.2671814z" fill-rule="evenodd"/>
    <path fill="#ffd600" d="m339.04367 135.79913c-0.971344 0 -1.9704285 0.08073425 -2.9417725 0.21531677c-3.4413147 1.2111969 -5.6337585 5.140869 -4.3848877 8.77446c1.2488708 4.252655 5.6337585 6.352066 9.380341 8.478394l5.6059875 3.0145264c4.6901855 3.633606 9.990906 6.675049 14.986359 9.68959l16.845764 10.281723c2.6087036 1.6149292 5.744751 3.7681732 8.631012 3.7681732c0.8880615 0 1.7761536 -0.21531677 2.6087341 -0.7267151c0.3885193 0.107666016 0.7770691 0.16148376 1.1655884 0.16148376c3.6078186 0 5.328491 -4.8986206 1.942688 -6.809616c-8.742035 -4.8447876 -16.540497 -10.30864 -24.03366 -16.956772c-6.8548584 -6.0559998 -12.793884 -13.323181 -21.20288 -17.54892c-2.6087341 -1.6149292 -5.5505066 -2.3416443 -8.6032715 -2.3416443z" fill-rule="evenodd"/>
    <path fill="#ffd600" d="m327.35986 210.46277l14.65332 2.1263275c6.882599 0.88819885 14.042755 1.8033295 20.925354 3.6066742c-10.629181 -1.5072784 -20.592316 -3.0145416 -31.221527 -4.8178864l0.33303833 0l-4.6901855 -0.91511536zm-142.28697 -31.195084c-3.746582 0 -3.9685974 4.925537 -1.5541382 6.675049c27.780243 20.590363 63.969467 18.167969 96.412125 22.393707c17.48407 2.4223938 34.6351 6.971115 51.786133 10.281723c17.48407 3.0414581 35.273407 5.463852 53.062744 7.2671814c2.1647034 -0.29606628 3.746582 -2.1263123 3.4135437 -4.2257233c4.05188 -0.29608154 4.6901855 -5.759918 0.9436035 -6.9711304c-67.07776 -16.633774 -135.09909 -28.745758 -203.73097 -35.39389c-0.11100769 0 -0.24977112 -0.026916504 -0.33303833 -0.026916504z" fill-rule="evenodd"/>
    <path fill="#ffd600" d="m370.12643 251.13211c-1.3598633 0 -2.7197266 0.05381775 -4.07959 0.18840027c-3.108307 0.29606628 -6.549591 0.8882141 -9.990906 1.5072784c-3.1082764 0.29606628 -6.2443237 1.2111969 -9.3526 2.0993958c-3.4412842 0.9151306 -5.6059875 3.633606 -5.6059875 6.9711304c0 3.6335754 3.4135437 5.140869 6.8548584 5.759918c4.024109 0.6997986 8.048218 0.9958801 12.072327 0.9958801c2.8307495 0 5.68927 -0.16149902 8.52002 -0.40374756c6.8548584 -0.29605103 13.737488 -0.9151306 19.648743 -5.140869c0.9436035 -1.2111816 0.9436035 -2.7184448 0.63830566 -3.929657c-0.30526733 -0.29608154 -0.63830566 -0.6190491 -0.943573 -0.9151306c0.63830566 -1.5072632 0 -3.3375244 -1.5541382 -3.929657c-5.0231934 -2.1801605 -10.629211 -3.202942 -16.207458 -3.202942z" fill-rule="evenodd"/>
    <path fill="#ffd600" d="m381.28293 303.91342c-0.1665039 0 -0.3607788 0.026916504 -0.5827942 0.053833008c-25.560028 2.0994263 -45.54181 18.141052 -66.74472 30.549103c-21.230652 12.408051 -46.513153 20.590363 -61.777023 40.857758c-1.5818787 2.1263123 0.3052826 4.5487366 2.1647034 5.140869c1.2488556 0.48446655 2.4977264 0.6997986 3.7465668 0.6997986c3.4135742 0 6.7716064 -1.5610962 9.990906 -3.1221924c5.606018 -2.4223938 10.906738 -5.4369507 16.540466 -8.1553955c11.239777 -5.463867 22.146484 -11.519867 33.053223 -17.871918c21.53592 -12.408051 42.128265 -26.027313 62.110046 -40.53476l0.30529785 -0.29608154l0.943573 0c4.4959106 -0.59213257 4.6624146 -7.3210144 0.24975586 -7.3210144z" fill-rule="evenodd"/>
    <path fill="#ffd600" d="m399.93262 345.2018c-0.88809204 0 -1.7484131 0.37683105 -2.3589783 1.1304626c-6.882599 5.140869 -12.793884 11.196869 -18.094604 17.845001c-1.2488708 2.4223938 0.6105652 5.1408386 3.4135437 5.43692c10.934479 -1.5072632 20.287079 -8.451477 24.03366 -18.437134c0.30526733 -1.5341797 0 -3.0414429 -1.2488708 -3.9565735c-0.66604614 -0.21533203 -1.3321228 -0.40374756 -1.998169 -0.40374756c-0.27752686 0 -0.52731323 0.026916504 -0.8048401 0.107666016c0 -0.29605103 0 -0.59213257 -0.3330078 -0.59213257c-0.7770691 -0.7536316 -1.6929016 -1.1304626 -2.6087341 -1.1304626z" fill-rule="evenodd"/>
    <path fill="#ffd600" d="m461.6819 383.8525c-0.943573 0 -1.8871765 0.29605103 -2.6642456 0.8882141c-8.714264 9.689575 -11.850311 22.716675 -8.103729 35.124725c0.52731323 1.5342102 1.942688 2.2878418 3.4135742 2.2878418c1.1378479 0 2.3312073 -0.45758057 3.1360168 -1.3996277c5.30072 -9.662659 8.436768 -19.971313 9.3526 -30.549103c0 -1.2111816 -0.6105652 -2.4223938 -1.5541382 -3.0414429c0 -0.8882141 -0.30529785 -1.8033447 -0.9436035 -2.4223938c-0.7770691 -0.5921631 -1.6929016 -0.8882141 -2.6364746 -0.8882141z" fill-rule="evenodd"/>
    <path fill="#ffd600" d="m549.7405 384.95602c-0.63830566 0 -1.2766113 0.16149902 -1.803894 0.40374756c-1.5541382 1.8033447 -2.1646729 3.929657 -1.859375 6.352051c1.5541382 7.563263 3.4412842 15.126526 5.30072 22.689789c0.61053467 1.5610962 2.2201538 2.4762268 3.774292 2.4762268c0.9158325 0 1.8039551 -0.29608154 2.4699707 -0.9689636c4.05188 -4.2257385 5.30072 -10.281708 3.746582 -15.718658c-2.1924438 -5.4638367 -4.9954224 -10.281738 -9.047302 -14.238312c-0.7493286 -0.6997986 -1.6928711 -0.9958801 -2.5809937 -0.9958801z" fill-rule="evenodd"/>
    <path fill="#ffd600" d="m631.8879 361.35114c-0.9158325 0 -1.8039551 0.32299805 -2.4977417 1.0227966c-0.9436035 0.8882141 -1.2488403 2.3954773 -0.9436035 3.606659c3.1082764 8.182312 8.10376 15.745575 14.986328 21.801575c0.72161865 0.53829956 1.5541382 0.7805481 2.3590088 0.7805481c1.887146 0 3.66333 -1.3726807 3.857544 -3.4990234c0 -2.7184448 -0.61053467 -5.1408386 -1.5541382 -7.563263c-0.9158325 -7.8862305 -6.8548584 -14.534363 -15.291565 -16.041626c-0.30529785 -0.08074951 -0.6105957 -0.107666016 -0.9158325 -0.107666016z" fill-rule="evenodd"/>
    <path fill="#ffd600" d="m431.5982 368.26843c-0.88809204 0 -1.7761841 0.32296753 -2.5254822 1.0496826c-0.3885498 -0.1614685 -0.83258057 -0.24221802 -1.2488708 -0.24221802c-1.2210999 0 -2.4144592 0.6459656 -3.1082764 1.7495117c-27.474945 40.857727 -50.231995 84.43396 -67.716064 130.43256c-0.22201538 2.3954773 1.6651611 4.1719055 3.8020935 4.1719055c0.8048401 0 1.6651611 -0.26913452 2.4422302 -0.8612976c7.493164 -8.774445 12.155579 -19.971313 17.456299 -30.253021l18.427643 -33.886627l35.883972 -67.18112c1.1378479 -2.6377258 -1.054596 -4.97937 -3.4135437 -4.97937z" fill-rule="evenodd"/>
    <path fill="#ffd600" d="m510.88702 395.07626c-1.054596 0 -2.0536804 0.5383301 -2.5532227 1.7764282l-0.33303833 0.9151306c-3.746582 9.985657 -4.967682 20.563446 -3.4135437 31.168152c0.6105652 11.196869 1.5541382 22.98587 2.4977112 34.18271c1.5541382 22.689789 4.6624146 45.406464 8.714264 67.8002c0.4163208 1.8302612 1.831665 2.6376953 3.3025513 2.6376953c1.914917 0 3.885376 -1.3457642 3.885376 -3.5528564c0 -25.43515 0.30529785 -50.547302 0.63830566 -75.95557c0 -12.408051 0 -24.816101 0 -37.22415c0 -7.2671814 -0.9436035 -16.337708 -8.742065 -19.056183c-0.7492676 -1.6149292 -2.4421997 -2.6915588 -3.996338 -2.6915588z" fill-rule="evenodd"/>
    <path fill="#ffd600" d="m594.8383 382.5067c-0.8048706 0 -1.6651611 0.13458252 -2.5809937 0.43066406c-1.887207 0.29608154 -2.8030396 2.4223938 -2.4977417 4.2257385c15.902161 49.04007 38.99225 95.92688 68.6319 138.58798c0.8048096 0.8881836 1.859436 1.2919312 2.9417725 1.2919312c1.859375 0 3.718811 -1.2650146 3.940857 -3.3913574c2.4976807 0 4.3571167 -2.1263428 3.4135132 -4.548706c-10.296143 -25.408264 -21.841187 -50.843414 -34.302063 -75.33652c-6.2442627 -12.408051 -13.126892 -24.52005 -19.98175 -36.30905c-3.4413452 -6.055969 -6.8548584 -12.111969 -10.60144 -17.871887c-2.081482 -3.52594 -4.8289795 -7.0787964 -8.96405 -7.0787964z" fill-rule="evenodd"/>
    <path fill="#ffd600" d="m663.8865 328.4604c-2.8862915 0 -4.8012085 2.8530273 -3.6078491 5.1408386c6.5496216 9.985657 18.7052 10.308655 29.001343 13.942261c14.042786 4.5217896 25.893066 13.915314 38.68695 21.182495c24.977234 13.915314 52.729736 23.281921 81.45355 26.915527c0.1942749 0.053833008 0.4163208 0.080718994 0.63830566 0.080718994c2.9140015 0 5.68927 -3.5797424 2.7752686 -5.813751c-9.657898 -7.2671814 -20.259338 -13.0271 -31.499084 -17.252838l-38.076416 -16.041626c-12.793884 -5.4369507 -25.25476 -10.900787 -38.048645 -16.041656c-11.878052 -5.43692 -24.671936 -9.366608 -37.77112 -11.49292c-0.13873291 -0.16149902 -0.3885498 -0.24224854 -0.66607666 -0.24224854c-0.24975586 0 -0.5827637 0.08074951 -0.8880615 0.24224854l-1.5541382 -0.6190491c-0.13873291 0 -0.30529785 0 -0.44403076 0z" fill-rule="evenodd"/>
    <path fill="none" d="m448.02765 191.89105c-0.49954224 0 -1.026825 0.18841553 -1.4708557 0.72673035c-15.596924 16.014725 -24.977234 36.90117 -26.83667 58.998795c-0.1665039 1.2112122 0.86032104 1.8033447 1.942688 1.8033447c1.0823364 0 2.2756958 -0.59213257 2.4144592 -1.8033447c1.5541382 -21.182495 10.60144 -40.857742 25.282501 -56.280334c1.6373901 -1.3726959 0.24978638 -3.4451904 -1.3321228 -3.4451904z" fill-rule="evenodd"/>
    <path stroke="#ffffff" stroke-width="1.0" stroke-linejoin="round" stroke-linecap="butt" d="m448.02765 191.89105c-0.49954224 0 -1.026825 0.18841553 -1.4708557 0.72673035c-15.596924 16.014725 -24.977234 36.90117 -26.83667 58.998795c-0.1665039 1.2112122 0.86032104 1.8033447 1.942688 1.8033447c1.0823364 0 2.2756958 -0.59213257 2.4144592 -1.8033447c1.5541382 -21.182495 10.60144 -40.857742 25.282501 -56.280334c1.6373901 -1.3726959 0.24978638 -3.4451904 -1.3321228 -3.4451904z" fill-rule="evenodd"/>
    <path fill="none" d="m516.77057 164.06042c-10.98999 0 -21.813446 3.0145264 -31.221558 9.178177c-2.081421 0.9958801 -0.69381714 3.687439 1.082367 3.687439c0.3607788 0 0.7215576 -0.107666016 1.1100769 -0.34991455c8.464508 -5.490753 18.427643 -8.316895 28.529541 -8.316895c4.4404297 0 8.908569 0.5383148 13.265686 1.6418457c0.1942749 0.053833008 0.3885498 0.08074951 0.5828247 0.08074951c2.3867188 0 3.2747803 -3.4720917 0.66607666 -4.306473c-4.6347046 -1.0766296 -9.3526 -1.6149292 -14.015015 -1.6149292z" fill-rule="evenodd"/>
    <path stroke="#ffffff" stroke-width="1.0" stroke-linejoin="round" stroke-linecap="butt" d="m516.77057 164.06042c-10.98999 0 -21.813446 3.0145264 -31.221558 9.178177c-2.081421 0.9958801 -0.69381714 3.687439 1.082367 3.687439c0.3607788 0 0.7215576 -0.107666016 1.1100769 -0.34991455c8.464508 -5.490753 18.427643 -8.316895 28.529541 -8.316895c4.4404297 0 8.908569 0.5383148 13.265686 1.6418457c0.1942749 0.053833008 0.3885498 0.08074951 0.5828247 0.08074951c2.3867188 0 3.2747803 -3.4720917 0.66607666 -4.306473c-4.6347046 -1.0766296 -9.3526 -1.6149292 -14.015015 -1.6149292z" fill-rule="evenodd"/>
    <path fill="none" d="m423.772 281.03525c-1.082367 0 -2.1924438 0.6728821 -2.1924438 2.0455627c-0.6105652 14.534393 4.0518494 28.745789 12.793884 40.23871c0.49954224 0.7805481 1.2210999 1.0765991 1.914917 1.0765991c1.4986267 0 2.886261 -1.4265137 1.831665 -2.8799438c-8.408997 -11.196869 -12.793884 -24.816101 -12.155579 -38.435364c0 -1.3726807 -1.1101074 -2.0455627 -2.1924438 -2.0455627z" fill-rule="evenodd"/>
    <path stroke="#ffffff" stroke-width="1.0" stroke-linejoin="round" stroke-linecap="butt" d="m423.772 281.03525c-1.082367 0 -2.1924438 0.6728821 -2.1924438 2.0455627c-0.6105652 14.534393 4.0518494 28.745789 12.793884 40.23871c0.49954224 0.7805481 1.2210999 1.0765991 1.914917 1.0765991c1.4986267 0 2.886261 -1.4265137 1.831665 -2.8799438c-8.408997 -11.196869 -12.793884 -24.816101 -12.155579 -38.435364c0 -1.3726807 -1.1101074 -2.0455627 -2.1924438 -2.0455627z" fill-rule="evenodd"/>
    <path fill="#5b98a0" d="m550.6286 277.10556c-1.1101074 0 -2.2202148 0.6729126 -2.053711 2.0455933c0.30529785 9.689575 -2.1924438 20.886444 -12.18335 25.704315c-2.1646729 1.1573792 -4.6068726 1.7495117 -7.0768433 1.7495117c-2.136963 0 -4.3016357 -0.45758057 -6.3275757 -1.4265137c-4.3571167 -2.7184753 -7.798462 -6.0559998 -10.60144 -10.308655c-0.47180176 -0.6190491 -1.1101074 -0.8612976 -1.7484131 -0.8612976c-1.5541382 0 -3.1082764 1.5072632 -1.9981995 2.9876404c3.1082764 4.8447876 7.4931946 9.070526 12.488617 11.815887c2.6364746 1.2112122 5.439514 1.8033447 8.214722 1.8033447c2.7752686 0 5.494995 -0.59213257 7.992737 -1.8033447c12.488647 -4.8447876 16.23523 -18.167969 15.596924 -29.660889c0 -1.3726807 -1.1656494 -2.0455933 -2.3034668 -2.0455933z" fill-rule="evenodd"/>
    <path stroke="#5b98a0" stroke-width="1.0" stroke-linejoin="round" stroke-linecap="butt" d="m550.6286 277.10556c-1.1101074 0 -2.2202148 0.6729126 -2.053711 2.0455933c0.30529785 9.689575 -2.1924438 20.886444 -12.18335 25.704315c-2.1646729 1.1573792 -4.6068726 1.7495117 -7.0768433 1.7495117c-2.136963 0 -4.3016357 -0.45758057 -6.3275757 -1.4265137c-4.3571167 -2.7184753 -7.798462 -6.0559998 -10.60144 -10.308655c-0.47180176 -0.6190491 -1.1101074 -0.8612976 -1.7484131 -0.8612976c-1.5541382 0 -3.1082764 1.5072632 -1.9981995 2.9876404c3.1082764 4.8447876 7.4931946 9.070526 12.488617 11.815887c2.6364746 1.2112122 5.439514 1.8033447 8.214722 1.8033447c2.7752686 0 5.494995 -0.59213257 7.992737 -1.8033447c12.488647 -4.8447876 16.23523 -18.167969 15.596924 -29.660889c0 -1.3726807 -1.1656494 -2.0455933 -2.3034668 -2.0455933z" fill-rule="evenodd"/>
    <path fill="#5b98a0" d="m492.07086 250.00165c-0.9436035 0 -1.859436 0.13458252 -2.7752686 0.4037323c-3.746582 1.2111969 -6.244293 4.2257385 -7.1878967 7.563278c-0.61053467 2.1263123 -0.9158325 3.929657 -0.61053467 6.055969c0 1.3457947 1.0823364 2.0455933 2.1646729 2.0455933c1.1101074 0 2.1924438 -0.6997986 2.1924438 -2.0455933c-0.30526733 -0.9151306 -0.30526733 -1.8302612 0 -2.7184448l0 -0.32299805l0 -0.59213257c0 -0.6190796 0 -0.9151306 0.30529785 -1.5072937c0 0 0 -0.32296753 0 -0.32296753l0 -0.29608154c0.33303833 -0.59213257 0.63830566 -0.9151306 0.943573 -1.2111816l0 -0.29608154l0.30529785 -0.6190491l0.63830566 -0.29608154l0.30526733 -0.29606628l0.30526733 -0.29606628l0.33303833 0c0 0 0.41629028 -0.26916504 0.49954224 -0.26916504c0.055511475 0 0 0.053833008 -0.1942749 0.26916504l0.6105652 0c0.33303833 -0.32299805 0.63830566 -0.32299805 0.943573 -0.32299805l2.4977417 0c0.30526733 0 0.61053467 0.32299805 0.943573 0.32299805l0.30526733 0.59213257c0.47180176 0.29608154 1.0268555 0.45758057 1.5541382 0.45758057c0.5550537 0 1.1101074 -0.16149902 1.5541382 -0.45758057c0.9436035 -0.9151306 1.2488708 -2.1263275 0.63830566 -3.310608c-1.7761536 -1.7225952 -3.996338 -2.5300598 -6.2720337 -2.5300598z" fill-rule="evenodd"/>
    <path stroke="#5b98a0" stroke-width="1.0" stroke-linejoin="round" stroke-linecap="butt" d="m492.07086 250.00165c-0.9436035 0 -1.859436 0.13458252 -2.7752686 0.4037323c-3.746582 1.2111969 -6.244293 4.2257385 -7.1878967 7.563278c-0.61053467 2.1263123 -0.9158325 3.929657 -0.61053467 6.055969c0 1.3457947 1.0823364 2.0455933 2.1646729 2.0455933c1.1101074 0 2.1924438 -0.6997986 2.1924438 -2.0455933c-0.30526733 -0.9151306 -0.30526733 -1.8302612 0 -2.7184448l0 -0.32299805l0 -0.59213257c0 -0.6190796 0 -0.9151306 0.30529785 -1.5072937c0 0 0 -0.32296753 0 -0.32296753l0 -0.29608154c0.33303833 -0.59213257 0.63830566 -0.9151306 0.943573 -1.2111816l0 -0.29608154l0.30529785 -0.6190491l0.63830566 -0.29608154l0.30526733 -0.29606628l0.30526733 -0.29606628l0.33303833 0c0 0 0.41629028 -0.26916504 0.49954224 -0.26916504c0.055511475 0 0 0.053833008 -0.1942749 0.26916504l0.6105652 0c0.33303833 -0.32299805 0.63830566 -0.32299805 0.943573 -0.32299805l2.4977417 0c0.30526733 0 0.61053467 0.32299805 0.943573 0.32299805l0.30526733 0.59213257c0.47180176 0.29608154 1.0268555 0.45758057 1.5541382 0.45758057c0.5550537 0 1.1101074 -0.16149902 1.5541382 -0.45758057c0.9436035 -0.9151306 1.2488708 -2.1263275 0.63830566 -3.310608c-1.7761536 -1.7225952 -3.996338 -2.5300598 -6.2720337 -2.5300598z" fill-rule="evenodd"/>
    <path fill="#5b98a0" d="m532.3397 228.9268c-4.6624146 0 -8.408997 3.310608 -9.047302 7.563263c-0.6105957 2.4223938 0 4.8447876 1.2488403 6.6481323c0.41625977 0.8074646 1.1101074 1.2111969 1.914917 1.2111969c0.3885498 0 0.8048096 -0.107666016 1.2211304 -0.29606628c0.9158325 -0.61906433 1.2488403 -1.8302612 0.61053467 -2.7184753c-0.30529785 -0.3229828 -0.30529785 -0.6190491 -0.61053467 -1.2111969l0 -0.3229828l0 -0.5921478l0 -1.2111969l0 -0.6190491l0.30523682 -0.8882141l0.30529785 -0.61906433l0.30529785 -0.59213257c0.3330078 -0.3229828 0.63830566 -0.61906433 0.9435425 -0.9151306l0.30529785 -0.29606628l4.3848877 0c0.30529785 0.29606628 0.61053467 0.29606628 0.9436035 0.59213257l0.30523682 0.29608154l0.30529785 0.3229828l0.61053467 0.59213257l0.9436035 0.9151306l0 0.29606628c0 0.29608154 0 0.61906433 0 0.9151306c0.30529785 0.9151306 1.2488403 1.5072784 2.4977417 1.5072784c1.5541382 0 2.8029785 -1.8033447 2.1924438 -3.0145416c-1.2489014 -4.5487213 -5.30072 -7.563263 -9.685608 -7.563263z" fill-rule="evenodd"/>
    <path stroke="#5b98a0" stroke-width="1.0" stroke-linejoin="round" stroke-linecap="butt" d="m532.3397 228.9268c-4.6624146 0 -8.408997 3.310608 -9.047302 7.563263c-0.6105957 2.4223938 0 4.8447876 1.2488403 6.6481323c0.41625977 0.8074646 1.1101074 1.2111969 1.914917 1.2111969c0.3885498 0 0.8048096 -0.107666016 1.2211304 -0.29606628c0.9158325 -0.61906433 1.2488403 -1.8302612 0.61053467 -2.7184753c-0.30529785 -0.3229828 -0.30529785 -0.6190491 -0.61053467 -1.2111969l0 -0.3229828l0 -0.5921478l0 -1.2111969l0 -0.6190491l0.30523682 -0.8882141l0.30529785 -0.61906433l0.30529785 -0.59213257c0.3330078 -0.3229828 0.63830566 -0.61906433 0.9435425 -0.9151306l0.30529785 -0.29606628l4.3848877 0c0.30529785 0.29606628 0.61053467 0.29606628 0.9436035 0.59213257l0.30523682 0.29608154l0.30529785 0.3229828l0.61053467 0.59213257l0.9436035 0.9151306l0 0.29606628c0 0.29608154 0 0.61906433 0 0.9151306c0.30529785 0.9151306 1.2488403 1.5072784 2.4977417 1.5072784c1.5541382 0 2.8029785 -1.8033447 2.1924438 -3.0145416c-1.2489014 -4.5487213 -5.30072 -7.563263 -9.685608 -7.563263z" fill-rule="evenodd"/>
  </g>
</svg>
