<svg version="1.1" viewBox="0.0 0.0 960.0 540.0" fill="none" stroke="none" stroke-linecap="square" stroke-miterlimit="10" xmlns:xlink="http://www.w3.org/1999/xlink" xmlns="http://www.w3.org/2000/svg"><clipPath id="p.0"><path d="m0 0l960.0 0l0 540.0l-960.0 0l0 -540.0z" clip-rule="nonzero"/></clipPath><g clip-path="url(#p.0)"><path fill="#ffffff" d="m0 0l960.0 0l0 540.0l-960.0 0z" fill-rule="evenodd"/><path fill="#caebed" d="m297.87366 12.986985c-5.0032043 0 -10.235565 0.18741035 -15.620697 0.5622301c-158.19296 11.169634 -148.9122 182.87463 -147.4227 201.84053l0 0c-14.398537 -6.9341736 -28.109612 -10.045181 -40.713104 -10.045181c-70.12126 0 -107.1679 95.27922 -53.163834 152.06444c27.00203 28.03653 54.958878 36.39502 78.599976 36.39502c34.64052 0 60.07666 -17.84143 60.07666 -17.84143c0 0 8.593292 68.2547 95.74837 76.68814c6.3017273 0.63720703 12.221558 0.93704224 17.797668 0.93704224c70.999664 0 83.526794 -48.539154 83.56497 -48.57666l0 0c0 0.037506104 -4.315735 49.326324 66.53119 72.49017c8.555084 2.7736816 16.42273 3.973114 23.67929 3.973114c52.1326 0 70.35037 -63.38205 70.35037 -63.38205l0 0c0 0 -4.277527 61.957733 97.46704 80.88614c11.34314 2.136444 21.578735 3.0735168 30.82129 3.0735168c73.67316 0 85.550964 -59.521423 85.550964 -59.521423c18.828857 21.627136 57.55597 37.107178 93.1131 37.107178c30.935852 0 59.503784 -11.731842 70.46503 -41.305145c23.641052 -63.64441 -11.992432 -72.49017 -11.992432 -72.49017c0 0 44.226807 -43.404144 7.294739 -86.80829c-14.016602 -16.492065 -27.880432 -21.552155 -39.643738 -21.552155c-18.94342 0 -32.50171 13.118713 -32.50171 13.118713c0 0 33.914856 -177.81458 -94.029724 -198.05484c-8.020386 -1.2743912 -15.8116455 -1.8366165 -23.297363 -1.8366165c-112.59119 0 -166.93903 133.32343 -166.93903 133.32343c0 0 11.610535 -76.27585 -42.928253 -76.27585c-54.538757 0 -76.423004 51.8376 -76.423004 51.8376c0 0 14.89505 -166.60745 -136.38507 -166.60745z" fill-rule="evenodd"/><path fill="#5b98a0" d="m468.2542 302.23853c-1.069397 0 -2.138794 0.52474976 -2.6352844 1.649231c-4.315735 13.081207 0.42010498 27.399323 12.030609 34.970673c4.048401 2.1364746 8.402313 3.1859741 12.718079 3.1859741c8.364136 0 16.499115 -3.935608 21.616882 -11.169617c3.8574219 -6.3344727 5.576111 -13.905823 4.73584 -21.06488c-0.22912598 -1.6867065 -1.7186279 -2.5487976 -3.093567 -2.5487976c-1.336731 0 -2.520691 0.86209106 -2.062378 2.5487976c1.222168 13.081207 -7.2565613 26.98703 -21.50232 26.98703c-0.4201355 0 -0.8402405 0 -1.2603455 -0.037475586c-15.047821 -0.8246155 -21.922455 -18.553589 -18.026825 -31.185028c0.763855 -2.0615234 -0.8402405 -3.335907 -2.520691 -3.335907z" fill-rule="evenodd"/><path stroke="#5b98a0" stroke-width="1.0" stroke-linejoin="round" stroke-linecap="butt" d="m468.2542 302.23853c-1.069397 0 -2.138794 0.52474976 -2.6352844 1.649231c-4.315735 13.081207 0.42010498 27.399323 12.030609 34.970673c4.048401 2.1364746 8.402313 3.1859741 12.718079 3.1859741c8.364136 0 16.499115 -3.935608 21.616882 -11.169617c3.8574219 -6.3344727 5.576111 -13.905823 4.73584 -21.06488c-0.22912598 -1.6867065 -1.7186279 -2.5487976 -3.093567 -2.5487976c-1.336731 0 -2.520691 0.86209106 -2.062378 2.5487976c1.222168 13.081207 -7.2565613 26.98703 -21.50232 26.98703c-0.4201355 0 -0.8402405 0 -1.2603455 -0.037475586c-15.047821 -0.8246155 -21.922455 -18.553589 -18.026825 -31.185028c0.763855 -2.0615234 -0.8402405 -3.335907 -2.520691 -3.335907z" fill-rule="evenodd"/><path fill="#5b98a0" d="m482.6147 263.85657c-0.87841797 0 -1.7186584 0.44979858 -1.9859924 1.2743835c-1.2985535 2.96109 -2.1387634 5.884674 -1.7186584 8.845764c-0.42010498 2.098999 0.42010498 3.785675 1.7186584 5.0600586c0.87841797 0.412323 1.7186584 0.63720703 2.520691 0.63720703c0.802063 0 1.5658875 -0.22488403 2.2151794 -0.63720703c2.5588684 -2.098999 4.277527 -4.647766 4.277527 -8.021149c0.458313 -3.3733826 -2.1387634 -6.2969666 -5.5760803 -6.7467346c-0.458313 -0.29986572 -0.95480347 -0.412323 -1.4513245 -0.412323z" fill-rule="evenodd"/><path stroke="#5b98a0" stroke-width="1.0" stroke-linejoin="round" stroke-linecap="butt" d="m482.6147 263.85657c-0.87841797 0 -1.7186584 0.44979858 -1.9859924 1.2743835c-1.2985535 2.96109 -2.1387634 5.884674 -1.7186584 8.845764c-0.42010498 2.098999 0.42010498 3.785675 1.7186584 5.0600586c0.87841797 0.412323 1.7186584 0.63720703 2.520691 0.63720703c0.802063 0 1.5658875 -0.22488403 2.2151794 -0.63720703c2.5588684 -2.098999 4.277527 -4.647766 4.277527 -8.021149c0.458313 -3.3733826 -2.1387634 -6.2969666 -5.5760803 -6.7467346c-0.458313 -0.29986572 -0.95480347 -0.412323 -1.4513245 -0.412323z" fill-rule="evenodd"/><path fill="#3f9cac" d="m507.6692 274.38913z" fill-rule="evenodd"/><path fill="#5b98a0" d="m506.14142 264.15643c-1.031189 0 -1.947815 0.7871094 -2.3297424 1.7991333l0 0.86209106l-0.42010498 0.41229248l-0.8402405 2.098999c-0.87841797 1.686676 -1.7186584 3.3733826 -1.7186584 5.0600586c0 2.96109 2.1387634 5.9221497 5.1559753 6.746765c0.572876 0.29986572 1.18396 0.44979858 1.795044 0.44979858c1.069397 0 2.062378 -0.48727417 2.9026184 -1.2744141c1.2985535 -1.2743835 2.1387634 -2.9610596 2.1387634 -4.647766c0.458313 -1.2743835 0.458313 -2.9610596 -0.42010498 -4.647766c-0.42010498 -1.686676 -1.7186584 -2.923584 -3.437317 -3.373352c0.4201355 -1.6867065 -0.42010498 -2.9236145 -2.1387634 -3.3733826c-0.2291565 -0.07498169 -0.458313 -0.112457275 -0.6874695 -0.112457275z" fill-rule="evenodd"/><path fill="#3f9cac" d="m506.82895 276.07584l0 0l0 0c0 0 0 0 0 0z" fill-rule="evenodd"/><path stroke="#5b98a0" stroke-width="1.0" stroke-linejoin="round" stroke-linecap="butt" d="m506.82895 276.07584l0 0l0 0c0 0 0 0 0 0z" fill-rule="evenodd"/><path fill="#ffffff" d="m227.0664 44.108215c-0.34373474 0 -0.6874695 0.074962616 -1.0693817 0.22489166c-43.34839 20.20279 -66.11107 65.705925 -71.267044 110.79676c-1.2985382 14.767914 -1.2985382 29.08603 0 43.853928c0 1.6866913 1.4131317 2.5112915 2.7880554 2.5112915c1.4131165 0 2.7880402 -0.8246002 2.7880402 -2.5112915c-3.8574371 -45.95291 4.31575 -95.65404 39.07083 -129.80014c8.593292 -8.021141 18.485123 -15.1802025 29.637314 -20.240273c2.673462 -1.0869751 0.64927673 -4.8351746 -1.947815 -4.8351746z" fill-rule="evenodd"/><path stroke="#ffffff" stroke-width="1.0" stroke-linejoin="round" stroke-linecap="butt" d="m227.0664 44.108215c-0.34373474 0 -0.6874695 0.074962616 -1.0693817 0.22489166c-43.34839 20.20279 -66.11107 65.705925 -71.267044 110.79676c-1.2985382 14.767914 -1.2985382 29.08603 0 43.853928c0 1.6866913 1.4131317 2.5112915 2.7880554 2.5112915c1.4131165 0 2.7880402 -0.8246002 2.7880402 -2.5112915c-3.8574371 -45.95291 4.31575 -95.65404 39.07083 -129.80014c8.593292 -8.021141 18.485123 -15.1802025 29.637314 -20.240273c2.673462 -1.0869751 0.64927673 -4.8351746 -1.947815 -4.8351746z" fill-rule="evenodd"/><path fill="#ffffff" d="m375.6368 64.835976c-2.253357 0 -3.590088 3.4483414 -1.489502 5.1725082c6.454529 4.6477737 11.610504 10.9822235 14.589508 18.141289c4.73584 7.9836655 9.013397 16.004807 13.329132 24.438255c0.496521 0.86208344 1.260376 1.236908 1.986023 1.236908c1.795044 0 3.6282654 -1.9865494 2.7498474 -3.7856827c-4.315735 -8.845749 -9.051605 -17.691498 -14.169373 -26.124947c-3.437317 -7.1590576 -9.051605 -13.456032 -15.467926 -18.516106c-0.5346985 -0.3748169 -1.069397 -0.56222534 -1.52771 -0.56222534z" fill-rule="evenodd"/><path stroke="#ffffff" stroke-width="1.0" stroke-linejoin="round" stroke-linecap="butt" d="m375.6368 64.835976c-2.253357 0 -3.590088 3.4483414 -1.489502 5.1725082c6.454529 4.6477737 11.610504 10.9822235 14.589508 18.141289c4.73584 7.9836655 9.013397 16.004807 13.329132 24.438255c0.496521 0.86208344 1.260376 1.236908 1.986023 1.236908c1.795044 0 3.6282654 -1.9865494 2.7498474 -3.7856827c-4.315735 -8.845749 -9.051605 -17.691498 -14.169373 -26.124947c-3.437317 -7.1590576 -9.051605 -13.456032 -15.467926 -18.516106c-0.5346985 -0.3748169 -1.069397 -0.56222534 -1.52771 -0.56222534z" fill-rule="evenodd"/><path fill="#ffffff" d="m86.97556 229.53357c-17.568504 0 -31.661503 13.381058 -40.86587 27.174438c-9.471718 15.180206 -15.04781 33.69632 -9.013409 50.975494c0.49650192 1.1619568 1.5658875 1.649231 2.6352768 1.649231c1.7186584 0 3.4755096 -1.2744141 2.940815 -3.335907c-5.576092 -15.592499 -0.42011642 -32.009613 7.7148666 -45.503143c8.020405 -12.5564575 20.853054 -25.487747 37.161213 -25.487747c1.18396 0 2.4061203 0.07496643 3.6282806 0.18740845c0.11457062 0.037475586 0.22914886 0.037475586 0.3437271 0.037475586c2.6734695 0 2.5588913 -5.0975494 -0.76384735 -5.509842c-1.2603531 -0.112457275 -2.5588913 -0.18740845 -3.7810516 -0.18740845z" fill-rule="evenodd"/><path stroke="#ffffff" stroke-width="1.0" stroke-linejoin="round" stroke-linecap="butt" d="m86.97556 229.53357c-17.568504 0 -31.661503 13.381058 -40.86587 27.174438c-9.471718 15.180206 -15.04781 33.69632 -9.013409 50.975494c0.49650192 1.1619568 1.5658875 1.649231 2.6352768 1.649231c1.7186584 0 3.4755096 -1.2744141 2.940815 -3.335907c-5.576092 -15.592499 -0.42011642 -32.009613 7.7148666 -45.503143c8.020405 -12.5564575 20.853054 -25.487747 37.161213 -25.487747c1.18396 0 2.4061203 0.07496643 3.6282806 0.18740845c0.11457062 0.037475586 0.22914886 0.037475586 0.3437271 0.037475586c2.6734695 0 2.5588913 -5.0975494 -0.76384735 -5.509842c-1.2603531 -0.112457275 -2.5588913 -0.18740845 -3.7810516 -0.18740845z" fill-rule="evenodd"/><path fill="#ffffff" d="m124.443085 230.58307c-1.336731 0 -2.7116623 0.14993286 -4.0483932 0.41230774c-3.2081604 0.7871094 -2.3297348 5.5848083 0.91661835 5.5848083c0.2673416 0 0.53469086 -0.037475586 0.8020401 -0.11244202l7.7148666 0c0.458313 0.29985046 0.9166107 0.44978333 1.336731 0.44978333c0.8020477 0 1.5658875 -0.4872589 2.100586 -1.2743835c0.42012024 -0.86209106 0 -2.1364746 -0.8402405 -2.9610748c-2.36792 -1.4243164 -5.117775 -2.098999 -7.9822083 -2.098999z" fill-rule="evenodd"/><path stroke="#ffffff" stroke-width="1.0" stroke-linejoin="round" stroke-linecap="butt" d="m124.443085 230.58307c-1.336731 0 -2.7116623 0.14993286 -4.0483932 0.41230774c-3.2081604 0.7871094 -2.3297348 5.5848083 0.91661835 5.5848083c0.2673416 0 0.53469086 -0.037475586 0.8020401 -0.11244202l7.7148666 0c0.458313 0.29985046 0.9166107 0.44978333 1.336731 0.44978333c0.8020477 0 1.5658875 -0.4872589 2.100586 -1.2743835c0.42012024 -0.86209106 0 -2.1364746 -0.8402405 -2.9610748c-2.36792 -1.4243164 -5.117775 -2.098999 -7.9822083 -2.098999z" fill-rule="evenodd"/><path fill="#ffffff" d="m54.626774 335.86023c-1.8332329 0 -3.7046623 1.8366089 -2.5206985 3.8606567c2.1387749 5.0600586 5.1559753 9.670349 8.593292 14.318115c3.437313 4.1979675 7.29475 8.021149 12.450726 10.944733c4.735855 2.548767 9.89183 4.647766 15.047806 6.746765c1.4895096 0.5997009 3.3991241 1.3868408 5.2705536 1.3868408c0.84023285 0 1.642273 -0.14993286 2.444313 -0.52474976c2.1387787 -1.2743835 2.5588913 -4.2354736 0.84023285 -5.9221497c-0.6492691 -0.48727417 -1.4131165 -0.7121582 -2.1005783 -0.7121582c-1.1075821 0 -2.100586 0.56222534 -2.597084 1.5742188l-1.2985458 -0.41229248l-3.0171967 -1.2743835c-1.7186584 -0.41229248 -3.8574371 -1.2743835 -5.5760956 -2.098999c-3.8574295 -1.686676 -7.7148666 -3.8231506 -10.732063 -6.334442c-6.454521 -5.4723816 -11.5723 -12.631439 -14.5895 -20.240295c-0.5346947 -0.89956665 -1.3749275 -1.3118591 -2.2151604 -1.3118591z" fill-rule="evenodd"/><path stroke="#ffffff" stroke-width="1.0" stroke-linejoin="round" stroke-linecap="butt" d="m54.626774 335.86023c-1.8332329 0 -3.7046623 1.8366089 -2.5206985 3.8606567c2.1387749 5.0600586 5.1559753 9.670349 8.593292 14.318115c3.437313 4.1979675 7.29475 8.021149 12.450726 10.944733c4.735855 2.548767 9.89183 4.647766 15.047806 6.746765c1.4895096 0.5997009 3.3991241 1.3868408 5.2705536 1.3868408c0.84023285 0 1.642273 -0.14993286 2.444313 -0.52474976c2.1387787 -1.2743835 2.5588913 -4.2354736 0.84023285 -5.9221497c-0.6492691 -0.48727417 -1.4131165 -0.7121582 -2.1005783 -0.7121582c-1.1075821 0 -2.100586 0.56222534 -2.597084 1.5742188l-1.2985458 -0.41229248l-3.0171967 -1.2743835c-1.7186584 -0.41229248 -3.8574371 -1.2743835 -5.5760956 -2.098999c-3.8574295 -1.686676 -7.7148666 -3.8231506 -10.732063 -6.334442c-6.454521 -5.4723816 -11.5723 -12.631439 -14.5895 -20.240295c-0.5346947 -0.89956665 -1.3749275 -1.3118591 -2.2151604 -1.3118591z" fill-rule="evenodd"/><path fill="#ffffff" d="m496.78378 143.17415c-4.2393494 0 -8.669678 2.211441 -12.297943 3.9730988c-5.996216 2.923584 -11.152191 6.74675 -16.308167 10.944733c-5.1559753 4.2354736 -9.433533 9.258057 -13.749268 14.3181305c-3.437317 4.647766 -8.555084 10.9822235 -5.996216 17.728973c0.496521 1.124466 1.5658875 1.6492157 2.6734924 1.6492157c1.7186584 0 3.437317 -1.2743988 2.9026184 -3.335907c-2.138794 -5.0600586 3.0171814 -10.569916 6.0343933 -13.9058075c3.437317 -4.647766 7.294739 -8.433456 11.572296 -12.219131c3.8574219 -3.3733826 8.593292 -6.3344574 13.329163 -9.295532c3.0171814 -1.6492157 7.600281 -4.572815 11.725067 -4.572815c1.145752 0 2.253357 0.22489929 3.284546 0.78712463c0.152771 0.037490845 0.305542 0.037490845 0.458313 0.037490845c2.2915344 0 3.7046509 -3.073532 1.6804504 -4.685257c-1.6804504 -1.0120087 -3.4754944 -1.4243164 -5.3087463 -1.4243164z" fill-rule="evenodd"/><path stroke="#ffffff" stroke-width="1.0" stroke-linejoin="round" stroke-linecap="butt" d="m496.78378 143.17415c-4.2393494 0 -8.669678 2.211441 -12.297943 3.9730988c-5.996216 2.923584 -11.152191 6.74675 -16.308167 10.944733c-5.1559753 4.2354736 -9.433533 9.258057 -13.749268 14.3181305c-3.437317 4.647766 -8.555084 10.9822235 -5.996216 17.728973c0.496521 1.124466 1.5658875 1.6492157 2.6734924 1.6492157c1.7186584 0 3.437317 -1.2743988 2.9026184 -3.335907c-2.138794 -5.0600586 3.0171814 -10.569916 6.0343933 -13.9058075c3.437317 -4.647766 7.294739 -8.433456 11.572296 -12.219131c3.8574219 -3.3733826 8.593292 -6.3344574 13.329163 -9.295532c3.0171814 -1.6492157 7.600281 -4.572815 11.725067 -4.572815c1.145752 0 2.253357 0.22489929 3.284546 0.78712463c0.152771 0.037490845 0.305542 0.037490845 0.458313 0.037490845c2.2915344 0 3.7046509 -3.073532 1.6804504 -4.685257c-1.6804504 -1.0120087 -3.4754944 -1.4243164 -5.3087463 -1.4243164z" fill-rule="evenodd"/><path fill="#ffffff" d="m527.14746 149.54616c-1.145813 0 -2.36792 0.7496338 -2.71167 1.7991333c-0.42010498 1.2743835 0.42010498 2.9610748 2.138794 3.3733826l0.42010498 0.41230774l1.298523 0.44978333c0.42010498 0.41229248 1.298523 0.8246002 2.138794 1.2368927l0.458313 0.44978333l0.84020996 0.8246155c0.42010498 0.41229248 1.298523 1.2743835 1.718689 1.6866913l0.87841797 0.8620758l0.42010498 0.8246155c0.42010498 0.41229248 0.84020996 1.2743835 1.260376 2.0989838c0.45825195 0.41230774 0.45825195 0.41230774 0.87841797 0.86209106l0.42010498 0.8246002l0 0.41230774l0 0.8620758c0 0.41230774 0 0.8246002 0.42010498 1.2743835c0.38189697 1.3493652 1.52771 1.986557 2.673462 1.986557c1.680481 0 3.437317 -1.2743988 2.940796 -3.2609406l0.840271 0c-2.558899 -7.5713654 -8.593323 -13.905823 -16.308167 -16.866898c-0.22912598 -0.07496643 -0.458313 -0.11244202 -0.725647 -0.11244202z" fill-rule="evenodd"/><path stroke="#ffffff" stroke-width="1.0" stroke-linejoin="round" stroke-linecap="butt" d="m527.14746 149.54616c-1.145813 0 -2.36792 0.7496338 -2.71167 1.7991333c-0.42010498 1.2743835 0.42010498 2.9610748 2.138794 3.3733826l0.42010498 0.41230774l1.298523 0.44978333c0.42010498 0.41229248 1.298523 0.8246002 2.138794 1.2368927l0.458313 0.44978333l0.84020996 0.8246155c0.42010498 0.41229248 1.298523 1.2743835 1.718689 1.6866913l0.87841797 0.8620758l0.42010498 0.8246155c0.42010498 0.41229248 0.84020996 1.2743835 1.260376 2.0989838c0.45825195 0.41230774 0.45825195 0.41230774 0.87841797 0.86209106l0.42010498 0.8246002l0 0.41230774l0 0.8620758c0 0.41230774 0 0.8246002 0.42010498 1.2743835c0.38189697 1.3493652 1.52771 1.986557 2.673462 1.986557c1.680481 0 3.437317 -1.2743988 2.940796 -3.2609406l0.840271 0c-2.558899 -7.5713654 -8.593323 -13.905823 -16.308167 -16.866898c-0.22912598 -0.07496643 -0.458313 -0.11244202 -0.725647 -0.11244202z" fill-rule="evenodd"/><path fill="#ffffff" d="m674.11224 105.31695c-0.190979 0 -0.458313 0.037483215 -0.68743896 0.11244202c-10.732117 2.5112915 -20.623901 7.9836655 -28.758911 15.180206c-9.433533 7.9836655 -18.485107 16.417107 -27.040222 25.675163c-9.051575 9.295532 -17.60669 18.965881 -26.200012 28.673721c-8.173157 8.433456 -15.047791 18.103806 -20.623901 28.636246c-0.87841797 2.323883 1.107605 4.272949 2.826233 4.272949c0.763855 0 1.489502 -0.41230774 1.909668 -1.3118744c5.57605 -10.53244 12.450684 -20.24028 20.585693 -29.08603c7.7530518 -8.845749 15.888062 -18.10379 24.481323 -26.537247c8.173157 -8.433441 15.888062 -16.866898 24.901428 -24.438255c8.173218 -7.5713654 18.065063 -13.081215 29.217224 -16.004807c3.169983 -0.41230774 2.291565 -5.172516 -0.611084 -5.172516z" fill-rule="evenodd"/><path stroke="#ffffff" stroke-width="1.0" stroke-linejoin="round" stroke-linecap="butt" d="m674.11224 105.31695c-0.190979 0 -0.458313 0.037483215 -0.68743896 0.11244202c-10.732117 2.5112915 -20.623901 7.9836655 -28.758911 15.180206c-9.433533 7.9836655 -18.485107 16.417107 -27.040222 25.675163c-9.051575 9.295532 -17.60669 18.965881 -26.200012 28.673721c-8.173157 8.433456 -15.047791 18.103806 -20.623901 28.636246c-0.87841797 2.323883 1.107605 4.272949 2.826233 4.272949c0.763855 0 1.489502 -0.41230774 1.909668 -1.3118744c5.57605 -10.53244 12.450684 -20.24028 20.585693 -29.08603c7.7530518 -8.845749 15.888062 -18.10379 24.481323 -26.537247c8.173157 -8.433441 15.888062 -16.866898 24.901428 -24.438255c8.173218 -7.5713654 18.065063 -13.081215 29.217224 -16.004807c3.169983 -0.41230774 2.291565 -5.172516 -0.611084 -5.172516z" fill-rule="evenodd"/><path fill="#ffffff" d="m748.8561 92.423004c-9.853638 0 -19.898254 1.7991409 -29.484558 3.7107162c-3.284546 0.82460785 -2.253357 5.0975494 0.840271 5.0975494c0.152771 0 0.305542 0 0.458313 -0.037475586c9.089783 -1.7241745 18.637878 -3.4858246 27.994995 -3.4858246c8.746094 0 17.339355 1.5367584 25.245178 6.0345993c0.496521 0.26237488 0.993042 0.33733368 1.451355 0.33733368c2.597046 0 4.048401 -3.5607834 1.107544 -4.9851c-8.669678 -4.9851074 -18.065002 -6.6717987 -27.613098 -6.6717987z" fill-rule="evenodd"/><path stroke="#ffffff" stroke-width="1.0" stroke-linejoin="round" stroke-linecap="butt" d="m748.8561 92.423004c-9.853638 0 -19.898254 1.7991409 -29.484558 3.7107162c-3.284546 0.82460785 -2.253357 5.0975494 0.840271 5.0975494c0.152771 0 0.305542 0 0.458313 -0.037475586c9.089783 -1.7241745 18.637878 -3.4858246 27.994995 -3.4858246c8.746094 0 17.339355 1.5367584 25.245178 6.0345993c0.496521 0.26237488 0.993042 0.33733368 1.451355 0.33733368c2.597046 0 4.048401 -3.5607834 1.107544 -4.9851c-8.669678 -4.9851074 -18.065002 -6.6717987 -27.613098 -6.6717987z" fill-rule="evenodd"/><path fill="#ffffff" d="m798.0486 127.13169c-1.8331909 0 -3.7810059 1.7991409 -2.253357 3.5607834c7.2948 10.53244 12.450745 22.33928 15.047852 34.558395c2.558899 13.081223 3.437317 26.537262 3.437317 40.030777c0 1.6866913 1.260315 2.548767 2.558899 2.548767c1.298523 0 2.597046 -0.8620758 2.597046 -2.548767c0.42010498 -13.905823 -0.87841797 -27.811646 -3.017212 -41.30516c-3.0171509 -13.043732 -8.173157 -25.262863 -16.308167 -35.795303c-0.53466797 -0.7496338 -1.260315 -1.0494919 -2.062378 -1.0494919z" fill-rule="evenodd"/><path stroke="#ffffff" stroke-width="1.0" stroke-linejoin="round" stroke-linecap="butt" d="m798.0486 127.13169c-1.8331909 0 -3.7810059 1.7991409 -2.253357 3.5607834c7.2948 10.53244 12.450745 22.33928 15.047852 34.558395c2.558899 13.081223 3.437317 26.537262 3.437317 40.030777c0 1.6866913 1.260315 2.548767 2.558899 2.548767c1.298523 0 2.597046 -0.8620758 2.597046 -2.548767c0.42010498 -13.905823 -0.87841797 -27.811646 -3.017212 -41.30516c-3.0171509 -13.043732 -8.173157 -25.262863 -16.308167 -35.795303c-0.53466797 -0.7496338 -1.260315 -1.0494919 -2.062378 -1.0494919z" fill-rule="evenodd"/><path fill="#ffffff" d="m871.18756 277.62347c-7.218384 0 -14.169373 2.923584 -19.1344 8.171051c-2.02417 1.9490662 -0.11456299 4.422882 2.062378 4.422882c0.611084 0 1.222168 -0.18740845 1.795044 -0.6371765c4.353943 -4.4603577 9.930054 -6.5968323 15.5061035 -6.5968323c6.569092 0 13.138245 2.9985352 17.568542 8.695801c0.611084 0.7496338 1.451294 1.0494995 2.215149 1.0494995c1.9096069 0 3.7046509 -1.7991333 2.482483 -3.5982666c-4.697632 -6.7092896 -11.992371 -10.53244 -19.745422 -11.357056c-0.916626 -0.11242676 -1.833252 -0.14990234 -2.749878 -0.14990234z" fill-rule="evenodd"/><path stroke="#ffffff" stroke-width="1.0" stroke-linejoin="round" stroke-linecap="butt" d="m871.18756 277.62347c-7.218384 0 -14.169373 2.923584 -19.1344 8.171051c-2.02417 1.9490662 -0.11456299 4.422882 2.062378 4.422882c0.611084 0 1.222168 -0.18740845 1.795044 -0.6371765c4.353943 -4.4603577 9.930054 -6.5968323 15.5061035 -6.5968323c6.569092 0 13.138245 2.9985352 17.568542 8.695801c0.611084 0.7496338 1.451294 1.0494995 2.215149 1.0494995c1.9096069 0 3.7046509 -1.7991333 2.482483 -3.5982666c-4.697632 -6.7092896 -11.992371 -10.53244 -19.745422 -11.357056c-0.916626 -0.11242676 -1.833252 -0.14990234 -2.749878 -0.14990234z" fill-rule="evenodd"/><path fill="#ffffff" d="m901.2836 312.62115c-0.22918701 0 -0.496521 0.037475586 -0.725708 0.112457275c-1.260315 0.44976807 -2.138733 1.686676 -1.7186279 3.373352c2.597107 6.3344727 2.597107 13.49353 0 19.828003c-0.84020996 1.2368774 -0.42010498 2.5112915 0.87841797 3.373352c0.458313 0.29986572 0.954834 0.412323 1.451294 0.412323c0.87841797 0 1.718689 -0.44979858 1.986023 -1.2743835c3.437317 -7.5713806 3.8574219 -16.004822 0.84020996 -24.02597c-0.34368896 -1.0120239 -1.5658569 -1.7991333 -2.711609 -1.7991333z" fill-rule="evenodd"/><path stroke="#ffffff" stroke-width="1.0" stroke-linejoin="round" stroke-linecap="butt" d="m901.2836 312.62115c-0.22918701 0 -0.496521 0.037475586 -0.725708 0.112457275c-1.260315 0.44976807 -2.138733 1.686676 -1.7186279 3.373352c2.597107 6.3344727 2.597107 13.49353 0 19.828003c-0.84020996 1.2368774 -0.42010498 2.5112915 0.87841797 3.373352c0.458313 0.29986572 0.954834 0.412323 1.451294 0.412323c0.87841797 0 1.718689 -0.44979858 1.986023 -1.2743835c3.437317 -7.5713806 3.8574219 -16.004822 0.84020996 -24.02597c-0.34368896 -1.0120239 -1.5658569 -1.7991333 -2.711609 -1.7991333z" fill-rule="evenodd"/><path fill="#ffffff" d="m900.2142 379.33978c-1.833252 0 -3.742859 1.9865723 -2.215149 3.7857056c12.030579 15.592499 10.732056 37.931763 -3.857483 51.837585c-1.9859619 1.9115906 -0.15270996 4.6102905 1.756897 4.6102905c0.572876 0 1.18396 -0.26239014 1.6804199 -0.8246155c16.308167 -15.592499 18.44696 -40.443054 4.697693 -58.17206c-0.496521 -0.86206055 -1.260376 -1.236908 -2.062378 -1.236908z" fill-rule="evenodd"/><path stroke="#ffffff" stroke-width="1.0" stroke-linejoin="round" stroke-linecap="butt" d="m900.2142 379.33978c-1.833252 0 -3.742859 1.9865723 -2.215149 3.7857056c12.030579 15.592499 10.732056 37.931763 -3.857483 51.837585c-1.9859619 1.9115906 -0.15270996 4.6102905 1.756897 4.6102905c0.572876 0 1.18396 -0.26239014 1.6804199 -0.8246155c16.308167 -15.592499 18.44696 -40.443054 4.697693 -58.17206c-0.496521 -0.86206055 -1.260376 -1.236908 -2.062378 -1.236908z" fill-rule="evenodd"/><path fill="#ffffff" d="m799.6145 451.6808c-1.986023 0 -3.3609009 3.4483643 -1.222168 5.172516c8.555115 6.746765 18.867065 11.394531 29.599121 13.081207c1.833252 0.29986572 3.666504 0.412323 5.499695 0.412323c3.322754 0 6.645508 -0.44979858 9.968262 -1.2743835c5.155945 -1.236908 9.433533 -5.060089 14.589478 -6.746765c2.788025 -0.7496338 1.9096069 -5.1350403 -0.954834 -5.1350403c-0.22912598 0 -0.49645996 0.037475586 -0.76379395 0.07498169c-4.277588 1.686676 -8.13501 4.647766 -12.450745 6.334442c-3.513733 0.93704224 -7.562134 1.4243164 -11.34314 1.4243164c-1.260376 0 -2.482544 -0.037475586 -3.666504 -0.14993286c-10.311951 -2.098999 -19.745483 -6.334442 -27.91864 -12.631439c-0.458313 -0.3748169 -0.916626 -0.56222534 -1.336731 -0.56222534z" fill-rule="evenodd"/><path stroke="#ffffff" stroke-width="1.0" stroke-linejoin="round" stroke-linecap="butt" d="m799.6145 451.6808c-1.986023 0 -3.3609009 3.4483643 -1.222168 5.172516c8.555115 6.746765 18.867065 11.394531 29.599121 13.081207c1.833252 0.29986572 3.666504 0.412323 5.499695 0.412323c3.322754 0 6.645508 -0.44979858 9.968262 -1.2743835c5.155945 -1.236908 9.433533 -5.060089 14.589478 -6.746765c2.788025 -0.7496338 1.9096069 -5.1350403 -0.954834 -5.1350403c-0.22912598 0 -0.49645996 0.037475586 -0.76379395 0.07498169c-4.277588 1.686676 -8.13501 4.647766 -12.450745 6.334442c-3.513733 0.93704224 -7.562134 1.4243164 -11.34314 1.4243164c-1.260376 0 -2.482544 -0.037475586 -3.666504 -0.14993286c-10.311951 -2.098999 -19.745483 -6.334442 -27.91864 -12.631439c-0.458313 -0.3748169 -0.916626 -0.56222534 -1.336731 -0.56222534z" fill-rule="evenodd"/><path fill="#ffffff" d="m557.5107 409.17578c-1.145813 0 -2.253357 0.6371765 -2.597107 2.1739502c-4.277527 15.592499 4.73584 28.673706 13.329163 40.892853c3.8574219 5.884674 8.134949 10.944733 13.290955 15.592499c2.597046 2.5112915 5.155945 4.197998 7.7530518 5.884674c1.7186279 1.2743835 3.399109 2.098999 5.117798 2.96109l1.7186279 0.82458496l1.298523 0.412323c0 0 0.42016602 0.44976807 0.878479 0.44976807c-0.649292 1.7991333 0.76379395 3.1859741 2.36792 3.1859741c0.64923096 0 1.298523 -0.18740845 1.9096069 -0.6746826c6.454529 -5.472351 -5.576111 -8.845734 -8.593323 -10.53244c-6.416321 -3.785675 -12.030579 -8.845734 -16.308105 -14.767883c-4.735901 -5.884674 -9.013428 -12.219147 -12.87085 -18.516113c-4.735901 -7.1590576 -6.454529 -16.004822 -4.315735 -24.438263c0.53466797 -2.0240173 -1.260376 -3.4483337 -2.979004 -3.4483337z" fill-rule="evenodd"/><path stroke="#ffffff" stroke-width="1.0" stroke-linejoin="round" stroke-linecap="butt" d="m557.5107 409.17578c-1.145813 0 -2.253357 0.6371765 -2.597107 2.1739502c-4.277527 15.592499 4.73584 28.673706 13.329163 40.892853c3.8574219 5.884674 8.134949 10.944733 13.290955 15.592499c2.597046 2.5112915 5.155945 4.197998 7.7530518 5.884674c1.7186279 1.2743835 3.399109 2.098999 5.117798 2.96109l1.7186279 0.82458496l1.298523 0.412323c0 0 0.42016602 0.44976807 0.878479 0.44976807c-0.649292 1.7991333 0.76379395 3.1859741 2.36792 3.1859741c0.64923096 0 1.298523 -0.18740845 1.9096069 -0.6746826c6.454529 -5.472351 -5.576111 -8.845734 -8.593323 -10.53244c-6.416321 -3.785675 -12.030579 -8.845734 -16.308105 -14.767883c-4.735901 -5.884674 -9.013428 -12.219147 -12.87085 -18.516113c-4.735901 -7.1590576 -6.454529 -16.004822 -4.315735 -24.438263c0.53466797 -2.0240173 -1.260376 -3.4483337 -2.979004 -3.4483337z" fill-rule="evenodd"/><path fill="#ffffff" d="m701.53516 476.26923c-0.649292 0 -1.298523 0.22491455 -1.9096069 0.8246155c-8.13501 7.983673 -19.516357 12.294098 -30.897705 12.294098c-3.055359 0 -6.072571 -0.29986572 -9.051575 -0.93704224c-0.26733398 -0.037506104 -0.496521 -0.07498169 -0.725647 -0.07498169c-2.864441 0 -3.742859 4.3854065 -0.99298096 5.5848083c3.3609009 0.6746826 6.76001 1.0120239 10.120972 1.0120239c13.023621 0 25.856262 -5.0600586 35.404358 -14.093231c1.986023 -1.9490662 0.152771 -4.6102905 -1.947815 -4.6102905z" fill-rule="evenodd"/><path stroke="#ffffff" stroke-width="1.0" stroke-linejoin="round" stroke-linecap="butt" d="m701.53516 476.26923c-0.649292 0 -1.298523 0.22491455 -1.9096069 0.8246155c-8.13501 7.983673 -19.516357 12.294098 -30.897705 12.294098c-3.055359 0 -6.072571 -0.29986572 -9.051575 -0.93704224c-0.26733398 -0.037506104 -0.496521 -0.07498169 -0.725647 -0.07498169c-2.864441 0 -3.742859 4.3854065 -0.99298096 5.5848083c3.3609009 0.6746826 6.76001 1.0120239 10.120972 1.0120239c13.023621 0 25.856262 -5.0600586 35.404358 -14.093231c1.986023 -1.9490662 0.152771 -4.6102905 -1.947815 -4.6102905z" fill-rule="evenodd"/><path fill="#ffffff" d="m737.2457 431.55276c-0.87841797 0 -1.718689 0.48724365 -1.986023 1.2743835l-5.155945 8.433441c-0.840271 1.2743835 -0.42016602 2.548767 0.87841797 3.3733826c0.458313 0.29986572 0.95477295 0.44976807 1.451294 0.44976807c0.916626 0 1.833252 -0.48724365 2.406128 -1.2743835l4.697632 -8.021149c0.878479 -1.2743835 0.458313 -2.9610596 -0.84020996 -3.785675c-0.458313 -0.2998352 -0.954834 -0.44976807 -1.451294 -0.44976807z" fill-rule="evenodd"/><path stroke="#ffffff" stroke-width="1.0" stroke-linejoin="round" stroke-linecap="butt" d="m737.2457 431.55276c-0.87841797 0 -1.718689 0.48724365 -1.986023 1.2743835l-5.155945 8.433441c-0.840271 1.2743835 -0.42016602 2.548767 0.87841797 3.3733826c0.458313 0.29986572 0.95477295 0.44976807 1.451294 0.44976807c0.916626 0 1.833252 -0.48724365 2.406128 -1.2743835l4.697632 -8.021149c0.878479 -1.2743835 0.458313 -2.9610596 -0.84020996 -3.785675c-0.458313 -0.2998352 -0.954834 -0.44976807 -1.451294 -0.44976807z" fill-rule="evenodd"/><path fill="#ffffff" d="m395.57343 382.82565c-1.1075745 0 -2.1769714 0.59973145 -2.520691 1.9865417c-2.138794 14.730438 2.1387634 29.910645 12.030609 41.305176c4.6976624 5.8846436 9.433502 11.357025 14.589478 16.417084c3.8574524 5.4723816 9.853638 8.433472 16.308167 8.845764c3.7046509 0 3.8574219 -5.0600586 0.8020325 -5.0600586c-0.11456299 0 -0.2291565 0 -0.3819275 0c-5.9961853 0 -10.732056 -4.647766 -14.589478 -8.845764c-4.2775574 -4.647766 -8.593292 -9.707825 -12.450745 -14.730408c-7.7148438 -10.53244 -13.749268 -23.613678 -10.732056 -36.694885c0.26733398 -1.9865417 -1.4513245 -3.2234497 -3.0553894 -3.2234497z" fill-rule="evenodd"/><path stroke="#ffffff" stroke-width="1.0" stroke-linejoin="round" stroke-linecap="butt" d="m395.57343 382.82565c-1.1075745 0 -2.1769714 0.59973145 -2.520691 1.9865417c-2.138794 14.730438 2.1387634 29.910645 12.030609 41.305176c4.6976624 5.8846436 9.433502 11.357025 14.589478 16.417084c3.8574524 5.4723816 9.853638 8.433472 16.308167 8.845764c3.7046509 0 3.8574219 -5.0600586 0.8020325 -5.0600586c-0.11456299 0 -0.2291565 0 -0.3819275 0c-5.9961853 0 -10.732056 -4.647766 -14.589478 -8.845764c-4.2775574 -4.647766 -8.593292 -9.707825 -12.450745 -14.730408c-7.7148438 -10.53244 -13.749268 -23.613678 -10.732056 -36.694885c0.26733398 -1.9865417 -1.4513245 -3.2234497 -3.0553894 -3.2234497z" fill-rule="evenodd"/><path fill="#ffffff" d="m201.74524 356.1382c-1.374939 0 -2.7880554 0.86206055 -2.7880554 2.548767c-1.2985382 16.004791 2.5970917 32.009613 10.732071 45.915436c6.874634 12.219116 18.02681 21.06488 31.776077 24.438263l0 0.41229248c0 1.6867065 1.2985535 2.548767 2.5970917 2.548767c1.2603455 0 2.5588837 -0.86206055 2.5588837 -2.548767l0.42012024 -2.098999c0 -1.236908 -0.8402252 -2.5112915 -2.1387787 -2.5112915c-13.290955 -3.3733826 -24.481323 -11.806824 -30.89766 -23.613647c-7.294739 -13.043732 -10.732056 -27.811646 -9.47171 -42.542053c0 -1.6867065 -1.3749237 -2.548767 -2.7880402 -2.548767z" fill-rule="evenodd"/><path stroke="#ffffff" stroke-width="1.0" stroke-linejoin="round" stroke-linecap="butt" d="m201.74524 356.1382c-1.374939 0 -2.7880554 0.86206055 -2.7880554 2.548767c-1.2985382 16.004791 2.5970917 32.009613 10.732071 45.915436c6.874634 12.219116 18.02681 21.06488 31.776077 24.438263l0 0.41229248c0 1.6867065 1.2985535 2.548767 2.5970917 2.548767c1.2603455 0 2.5588837 -0.86206055 2.5588837 -2.548767l0.42012024 -2.098999c0 -1.236908 -0.8402252 -2.5112915 -2.1387787 -2.5112915c-13.290955 -3.3733826 -24.481323 -11.806824 -30.89766 -23.613647c-7.294739 -13.043732 -10.732056 -27.811646 -9.47171 -42.542053c0 -1.6867065 -1.3749237 -2.548767 -2.7880402 -2.548767z" fill-rule="evenodd"/><path fill="#ffffff" d="m335.87772 417.90918c-0.572876 0 -1.145752 0.18740845 -1.642273 0.5997009c-10.961212 8.9956665 -24.519531 13.75589 -38.2688 13.75589c-2.979004 0 -5.9961853 -0.22488403 -8.975189 -0.6746826c-0.2673645 -0.07495117 -0.5346985 -0.11242676 -0.763855 -0.11242676c-2.864441 0 -3.742859 4.385376 -0.95480347 5.172516c3.5137024 0.52471924 7.0655823 0.82458496 10.617462 0.82458496c15.315155 0 30.324799 -5.1350403 42.202637 -14.730408c2.0242004 -2.0240479 0 -4.8351746 -2.2151794 -4.8351746z" fill-rule="evenodd"/><path stroke="#ffffff" stroke-width="1.0" stroke-linejoin="round" stroke-linecap="butt" d="m335.87772 417.90918c-0.572876 0 -1.145752 0.18740845 -1.642273 0.5997009c-10.961212 8.9956665 -24.519531 13.75589 -38.2688 13.75589c-2.979004 0 -5.9961853 -0.22488403 -8.975189 -0.6746826c-0.2673645 -0.07495117 -0.5346985 -0.11242676 -0.763855 -0.11242676c-2.864441 0 -3.742859 4.385376 -0.95480347 5.172516c3.5137024 0.52471924 7.0655823 0.82458496 10.617462 0.82458496c15.315155 0 30.324799 -5.1350403 42.202637 -14.730408c2.0242004 -2.0240479 0 -4.8351746 -2.2151794 -4.8351746z" fill-rule="evenodd"/><path fill="#ffffff" d="m370.78625 382.67572c-0.916626 0 -1.680481 0.44979858 -2.2151794 1.2743835c-0.42010498 0.86209106 -0.42010498 1.6867065 0 2.96109c-0.42010498 0.8246155 -1.298523 1.686676 -1.7186584 2.5112915l-3.0171814 5.0600586l-5.996216 10.120148c-1.52771 2.098999 0.42010498 4.010559 2.2915344 4.010559c0.763855 0 1.489502 -0.3373108 1.986023 -1.049469l7.7530518 -12.631439c1.2603455 -1.6867065 2.558899 -3.8231812 3.437317 -5.509857c1.2603455 -2.098999 0.8402405 -5.022583 -0.87841797 -6.2969666c-0.611084 -0.29986572 -1.1457825 -0.44979858 -1.642273 -0.44979858z" fill-rule="evenodd"/><path stroke="#ffffff" stroke-width="1.0" stroke-linejoin="round" stroke-linecap="butt" d="m370.78625 382.67572c-0.916626 0 -1.680481 0.44979858 -2.2151794 1.2743835c-0.42010498 0.86209106 -0.42010498 1.6867065 0 2.96109c-0.42010498 0.8246155 -1.298523 1.686676 -1.7186584 2.5112915l-3.0171814 5.0600586l-5.996216 10.120148c-1.52771 2.098999 0.42010498 4.010559 2.2915344 4.010559c0.763855 0 1.489502 -0.3373108 1.986023 -1.049469l7.7530518 -12.631439c1.2603455 -1.6867065 2.558899 -3.8231812 3.437317 -5.509857c1.2603455 -2.098999 0.8402405 -5.022583 -0.87841797 -6.2969666c-0.611084 -0.29986572 -1.1457825 -0.44979858 -1.642273 -0.44979858z" fill-rule="evenodd"/></g></svg>